<?xml version="1.0" standalone="no"?>
<!DOCTYPE svg PUBLIC "-//W3C//DTD SVG 1.1//EN" "http://www.w3.org/Graphics/SVG/1.1/DTD/svg11.dtd" >
<svg xmlns="http://www.w3.org/2000/svg" xmlns:xlink="http://www.w3.org/1999/xlink" version="1.1">
<metadata></metadata>
<defs>
<font id="viturdeshcregular" horiz-adv-x="819" >
<font-face units-per-em="2048" ascent="1638" descent="-410" />
<missing-glyph horiz-adv-x="500" />
<glyph />
<glyph />
<glyph horiz-adv-x="682" />
<glyph unicode="&#xd;" horiz-adv-x="681" />
<glyph unicode=" " />
<glyph unicode="!" horiz-adv-x="659" d="M16 606q0 18 10.5 24.5t10.5 98.5q0 74 17.5 154t35.5 92q8 4 41 4q70 0 190.5 -11.5t163.5 -21.5q16 -4 74.5 -102.5t79.5 -157.5q6 -18 6 -37q0 -51 -35 -63q-23 -8 -39 -29q-25 -29 -64.5 -118t-54 -148.5t-28.5 -82t-47 -32.5q-16 -4 -23 -4q-51 0 -149 111 q-80 90 -134.5 184t-54.5 139zM135 1122l19 60q6 20 15 53t14 50.5t17.5 41t26.5 41.5q27 26 33 49q0 18 6 0q8 -16 51 -59q47 -43 47.5 -69.5t30.5 -41.5q35 -14 47 -35q14 -20 15 -53q0 -27 -11 -35q-10 -6 -102 -6h-59z" />
<glyph unicode="&#x22;" horiz-adv-x="571" d="M16 1040q0 14 2 25q8 70 77.5 146.5t137.5 88.5q14 4 46 5q55 0 124 -39q150 -84 154 -283v-22q0 -51 -27 -91q-63 -98 -217 -98q-47 0 -92 12q-39 10 -89 59.5t-85 110.5q-31 55 -31 86zM164 1051q0 -12 20 -50q16 -37 56.5 -59t81.5 -22q37 0 61 18q23 16 23 53 q0 39 -22 82t-52.5 61.5t-50.5 18.5q-33 0 -74 -47q-43 -47 -43 -55zM217 1057q0 33 23 47q23 16 34 16q18 0 41 -20q27 -20 27 -60q0 -27 -15.5 -47t-39.5 -20q-29 0 -49.5 26.5t-20.5 57.5z" />
<glyph unicode="&#x201d;" horiz-adv-x="571" d="M16 1040q0 14 2 25q8 70 77.5 146.5t137.5 88.5q14 4 46 5q55 0 124 -39q150 -84 154 -283v-22q0 -51 -27 -91q-63 -98 -217 -98q-47 0 -92 12q-39 10 -89 59.5t-85 110.5q-31 55 -31 86zM164 1051q0 -12 20 -50q16 -37 56.5 -59t81.5 -22q37 0 61 18q23 16 23 53 q0 39 -22 82t-52.5 61.5t-50.5 18.5q-33 0 -74 -47q-43 -47 -43 -55zM217 1057q0 33 23 47q23 16 34 16q18 0 41 -20q27 -20 27 -60q0 -27 -15.5 -47t-39.5 -20q-29 0 -49.5 26.5t-20.5 57.5z" />
<glyph unicode="&#x201c;" horiz-adv-x="571" d="M16 1040q0 14 2 25q8 70 77.5 146.5t137.5 88.5q14 4 46 5q55 0 124 -39q150 -84 154 -283v-22q0 -51 -27 -91q-63 -98 -217 -98q-47 0 -92 12q-39 10 -89 59.5t-85 110.5q-31 55 -31 86zM164 1051q0 -12 20 -50q16 -37 56.5 -59t81.5 -22q37 0 61 18q23 16 23 53 q0 39 -22 82t-52.5 61.5t-50.5 18.5q-33 0 -74 -47q-43 -47 -43 -55zM217 1057q0 33 23 47q23 16 34 16q18 0 41 -20q27 -20 27 -60q0 -27 -15.5 -47t-39.5 -20q-29 0 -49.5 26.5t-20.5 57.5z" />
<glyph unicode="'" horiz-adv-x="450" d="M14 1004q0 4 1 13t1 15q2 49 11.5 65.5t50.5 59.5q61 62 90 74q33 16 78 16q41 0 73 -14q51 -27 84 -94.5t33 -141.5q0 -51 -18 -94q-16 -37 -57.5 -72.5t-77.5 -46.5q-12 -4 -39 -4q-47 0 -56 15q-6 10 -36 10q-33 0 -69 33.5t-52.5 76.5t-16.5 89zM152 999 q0 -29 18 -54t41 -25q14 0 41 18q27 16 26.5 71.5t-18.5 71.5q-16 16 -22.5 16.5t-44.5 -30.5q-41 -33 -41 -68z" />
<glyph unicode="&#x2019;" horiz-adv-x="450" d="M14 1004q0 4 1 13t1 15q2 49 11.5 65.5t50.5 59.5q61 62 90 74q33 16 78 16q41 0 73 -14q51 -27 84 -94.5t33 -141.5q0 -51 -18 -94q-16 -37 -57.5 -72.5t-77.5 -46.5q-12 -4 -39 -4q-47 0 -56 15q-6 10 -36 10q-33 0 -69 33.5t-52.5 76.5t-16.5 89zM152 999 q0 -29 18 -54t41 -25q14 0 41 18q27 16 26.5 71.5t-18.5 71.5q-16 16 -22.5 16.5t-44.5 -30.5q-41 -33 -41 -68z" />
<glyph unicode="&#x2018;" horiz-adv-x="450" d="M14 1004q0 4 1 13t1 15q2 49 11.5 65.5t50.5 59.5q61 62 90 74q33 16 78 16q41 0 73 -14q51 -27 84 -94.5t33 -141.5q0 -51 -18 -94q-16 -37 -57.5 -72.5t-77.5 -46.5q-12 -4 -39 -4q-47 0 -56 15q-6 10 -36 10q-33 0 -69 33.5t-52.5 76.5t-16.5 89zM152 999 q0 -29 18 -54t41 -25q14 0 41 18q27 16 26.5 71.5t-18.5 71.5q-16 16 -22.5 16.5t-44.5 -30.5q-41 -33 -41 -68z" />
<glyph unicode="," horiz-adv-x="432" d="M16 219q0 6 25 0q80 -25 256 -24h35q14 2 37 2q49 0 49 -9q0 -6 -47 -79q-45 -72 -74 -125q-31 -59 -43 -60q-16 0 -76 90q-37 55 -108 138q-54 61 -54 67z" />
<glyph unicode="." horiz-adv-x="362" d="M16 192.5q0 16.5 58 126.5q16 34 57 93q23 35 35 34q16 0 70 -94q49 -84 79 -110q33 -33 33 -41t-80 -8q-90 0 -162 -11q-43 -6 -65 -6q-25 0 -25 16.5z" />
<glyph unicode="0" horiz-adv-x="217" d="M16 1208q0 139 3.5 177.5t17.5 52.5q16 20 47 20q41 0 53.5 -34.5t20.5 -176.5q12 -193 20 -237q10 -61 19 -455l6 -393l-27 -27q-27 -27 -53 -26q-43 0 -60 59q-8 29 -16 393q-6 360 -18 397q-12 41 -13 250z" />
<glyph unicode="1" horiz-adv-x="538" d="M16 276q0 23 15.5 43.5t42.5 26.5q12 4 102 8q29 2 86 2q201 0 238 -22q25 -18 24 -51q0 -35 -24 -60q-20 -20 -94 -20q-72 0 -130 2q-205 4 -231 22q-29 18 -29 49z" />
<glyph unicode="2" horiz-adv-x="600" d="M16 391q0 82 21 115q14 27 36 36t81 13q47 4 153 4q141 0 182 -10q59 -14 78 -42t19 -101q0 -123 -54 -168q-16 -16 -118 -17h-115q-199 4 -229 19q-20 12 -39 55q-14 35 -15 96z" />
<glyph unicode="3" horiz-adv-x="655" d="M16 365q0 100 18 137t77 53q16 4 200 4q283 0 307 -51q8 -16 16.5 -89t8.5 -122q0 -27 -4 -39q-16 -41 -86 -41q-4 0 -12.5 1t-14.5 1q-2 0 -10 1t-12 1q-39 0 -139 -22q-117 -27 -144 -27q-35 0 -84 25q-53 27 -71 26q-27 0 -37.5 30t-12.5 112zM27 690q0 27 20 45 q23 21 189 33q100 8 186 8q133 0 162 -28q23 -23 22.5 -47.5t-22.5 -47.5q-16 -16 -53 -21t-199 -11q-61 -2 -166 -3q-76 0 -82 3q-57 18 -57 69z" />
<glyph unicode="4" horiz-adv-x="706" d="M16 907q0 59 32 76t147 23q80 6 215 6h45q137 -4 158.5 -20.5t23.5 -125.5v-24q0 -74 -12.5 -101.5t-53.5 -48.5q-27 -16 -96 -16h-29q-90 0 -155 -14q-59 -14 -111 -15q-78 0 -114.5 45t-45.5 150q-4 53 -4 65zM53 412v51q0 76 27.5 92.5t152.5 22.5q82 4 156 13t131 11 h23q49 0 69 -20q25 -20 25 -47q0 -20 29 -86q27 -55 26.5 -92.5t-39.5 -82.5q-29 -35 -42 -43t-42 -8q-55 0 -143 -16q-53 -10 -135 -10q-111 0 -168 22q-37 14 -51.5 56t-18.5 137z" />
<glyph unicode="5" horiz-adv-x="768" d="M14 856q0 16 11 62q25 109 84 108q53 8 86 16q55 14 260 15h90q111 0 135 -19q23 -18 22 -61v-23v-20q0 -49 9 -94q6 -25 6 -45q0 -45 -35 -67.5t-123 -37.5q-82 -12 -174 -12q-70 0 -170 6q-104 6 -141 18.5t-37 38.5q0 25 -14 68q-8 37 -9 47zM29 293q0 39 2 72 q10 156 47 190q24 20 315 43q29 4 52.5 9t42 6t71.5 1h23q80 0 93 -24.5t19 -167.5q4 -63 11 -68q10 -10 10 -30q0 -39 -29 -68q-20 -18 -52 -23.5t-169 -9.5q-135 -4 -180 -4q-201 0 -236 23q-20 12 -20 51zM59 1178q-14 28 2 55q18 25 65.5 24.5t135.5 -14.5 q53 -10 103 -10q57 0 133 10q84 12 149 12q20 0 27 -2q80 -16 80 -73q0 -27 -20.5 -47.5t-57.5 -20.5h-14h-17q-55 0 -127 -10q-78 -10 -141 -10q-117 0 -208 24.5t-110 61.5z" />
<glyph unicode="6" horiz-adv-x="733" d="M16 1171v48v12q2 80 21 98q23 25 174 53h2h2l2 2h2h2h2h2l2 2h2h2h2l3 3h2h2h2h2h2l2 2h4q66 14 156 14q68 0 114 -10q45 -10 88 -58q41 -43 41 -75q0 -4 -1 -14.5t-1 -16.5q-4 -70 -4 -78q-4 -20 -29 -47q-25 -25 -45 -25q-14 0 -22 2q-6 2 -21 2q-29 0 -55 -10 q-35 -18 -213 -20l-176 -2l-35 34q-23 20 -28 34t-5 50zM51 809q0 78 4 96.5t27 38.5q20 18 47 23.5t139 11.5q170 8 201 16q41 8 94 9q78 0 94 -15q23 -16 27 -127q2 -29 2 -71q0 -86 -35 -105.5t-180 -23.5q-35 -2 -77 -3.5t-67.5 -2.5t-31.5 -1h-19q-51 0 -122.5 10.5 t-81.5 20.5q-20 18 -21 123zM76 266q0 23 10 35t10 37q0 8 -4 45q-8 74 -8 88q0 51 20.5 70.5t71.5 21.5q41 1 135 21q68 16 160 16h37q78 -2 99.5 -6t39.5 -21q29 -29 29 -41q0 -14 20.5 -34.5t20.5 -86t-21 -98.5q-20 -27 -20 -55q0 -51 -80 -51q-20 0 -32.5 2t-59.5 2 q-86 0 -178 -6q-57 -4 -129 -4q-55 0 -78 8q-43 16 -43 57z" />
<glyph unicode="7" horiz-adv-x="1081" d="M16 1446q0 20 19 39q23 22 82 28q37 4 110 5q72 0 205 -3.5t148 -3.5h14q41 0 55 -18q41 -45 41 -209q0 -125 -28 -154q-16 -16 -72 -16q-43 0 -160 6q-233 12 -266 13q-70 0 -92.5 35.5t-44.5 189.5q-10 76 -11 88zM55 305q0 27 6 98q8 102 24.5 141.5t55.5 51.5 q8 2 82 2q100 0 160 -2q182 -4 225 -16.5t47 -59.5q4 -33 31 -59q23 -23 23 -47q0 -14 -2 -25q-14 -113 -43 -141q-23 -23 -244 -23q-317 0 -350 33q-14 12 -15 47zM57 936q0 63 45 96q16 14 70 15q12 0 94 -5q229 -10 303 -19t95 -30q45 -43 45 -172v-76q-16 -16 -49 -45.5 t-50 -44.5l-69 9q-49 6 -101 6h-16h-8q-63 0 -185 17.5t-141 29.5q-23 12 -22 57v23v20q0 49 -9 90q-2 10 -2 29zM784 825q0 74 3.5 94.5t19.5 38.5q27 31 72 37q61 10 88 11q51 0 68.5 -32t25.5 -124q6 -61 6 -86q0 -31 -16 -53q-45 -61 -127 -66q-33 0 -79 21.5t-54 38.5 q-6 16 -7 120z" />
<glyph unicode="8" horiz-adv-x="1515" d="M16 801q0 53 10.5 79.5t45.5 63.5l37 39l94 -4q94 -6 106 -23q12 -14 13 -143q0 -115 -14.5 -142.5t-80.5 -35.5q-16 -4 -49 -8t-41 -6q-6 -2 -18 -3q-23 0 -47 23q-55 43 -56 160zM428 762q0 82 21 129q25 57 54 71.5t144 22.5q131 8 139 16q2 2 17 3q29 0 151 -19 q47 -6 66.5 -23.5t19.5 -50.5q0 -6 2 -41.5t5 -56.5q2 -12 2 -35q0 -119 -60 -147q-45 -23 -209 -23q-94 0 -168 8q-133 12 -158.5 33t-25.5 113zM449 1169v39q0 94 10 131.5t43 53.5q23 12 127 12q78 0 135 -2q238 -8 256 -19q27 -16 27 -41q0 -20 -17 -43q-23 -29 -22 -59 q0 -25 16 -57q16 -31 10 -58q-10 -39 -61 -50t-240 -15q-131 -4 -153 -4q-90 0 -110.5 19.5t-20.5 92.5zM471 293q0 188 49 225q18 12 147.5 12t209.5 -12q47 -6 137 -12q68 0 83 -22.5t21 -133.5q2 -37 2 -80q0 -45 -18 -57q-59 -43 -311 -43h-29h-72q-98 0 -110 -14 q-14 -14 -43 -15q-31 0 -48 17q-18 16 -18 135zM1178 831q0 63 15 87t58 34q47 10 86 11q59 0 82 -17q49 -35 66 -147q8 -66 14 -86q6 -23 -12 -45q-14 -16 -35.5 -21.5t-105.5 -11.5q-66 -4 -80 -4q-57 0 -69.5 25.5t-16.5 123.5q0 10 -1 27.5t-1 23.5z" />
<glyph unicode="9" horiz-adv-x="1495" d="M16 758q0 113 7 144.5t36 41.5q16 8 29 2q16 -4 72 -4q57 0 82 -24q20 -20 53 -37q35 -16 35 -60q0 -23 -15 -86q-25 -104 -60.5 -134t-137.5 -30q-74 0 -87.5 26t-13.5 161zM410 389q0 20 12 62q18 59 37 69q16 9 135 17q61 4 184 18t215 16h45q96 0 114.5 -22.5 t21.5 -128.5q0 -111 8 -119q6 -6 6 -22q0 -29 -14 -48q-45 -45 -371 -45h-37h-92q-115 0 -127 -18q-14 -18 -45 -18q-33 0 -53.5 28.5t-20.5 73.5q0 41 -12 94q-6 25 -6 43zM414 842v55q0 72 20 82q18 10 215 10q274 0 303 -14q23 -14 52 -2q12 4 22 4q51 0 68 -35 q31 -61 30 -133q0 -55 -18 -88q-18 -39 -66.5 -50.5t-201.5 -11.5h-115l-266 3l-21 28q-20 27 -22 152zM414 1126q0 14 8 80q8 70 8 76q0 16 -8 36.5t-8 31.5q0 33 24 45q37 20 271 30q33 2 84 4.5t82.5 4.5t46.5 2h8q45 0 104.5 -13.5t75.5 -27.5q14 -12 14 -45 q0 -27 -10 -33q-10 -8 -4 -62q2 -12 2 -30q0 -27 -20 -68q-27 -45 -50 -55q-24 -12 -145 -12q-84 0 -126 -10.5t-130 -10.5q-121 0 -166 -4h-10q-29 0 -40 13.5t-11 47.5zM428 1548q0 41 32 57.5t120 22.5q106 8 301 8h106q70 0 89.5 -4t33.5 -20q25 -25 25 -43 q0 -76 -138 -76q-33 0 -51 2q-14 2 -72 2q-98 0 -202 -6q-115 -4 -135 -4q-72 0 -90.5 12t-18.5 49zM1176 874q0 43 24.5 59.5t79.5 16.5q6 0 21.5 -1t23.5 -1l88 -2l29 -47q29 -47 35 -158l4 -110l-43 -41q-37 -37 -62 -37q-10 0 -106 14q-45 8 -62.5 37t-19.5 98 q0 72 -8 129q-4 33 -4 43z" />
<glyph unicode=":" horiz-adv-x="321" d="M16 864q0 92 19 117q20 29 55 35q41 8 80 8q55 0 86 -25l31 -24l10 -199q10 -180 10 -364q0 -117 -4 -144.5t-20 -46.5q-18 -20 -75.5 -39.5t-94.5 -19.5q-12 0 -17 2q-45 10 -55 69.5t-18 356.5q-6 203 -7 274z" />
<glyph unicode=";" horiz-adv-x="411" d="M16 915q0 76 17 98.5t76 26.5q102 4 116 4q51 0 68.5 -10t28 -40.5t14.5 -133.5q0 -12 1 -29.5t1 -23.5q0 -31 -6 -44t-25 -30q-25 -23 -59 -22q-6 0 -72 4q-86 6 -112.5 21.5t-36.5 64.5q-10 37 -11 114zM113 430q0 23 12 35q10 10 20 10q14 0 56 -41q41 -43 118 -96 q78 -55 78 -59q0 -10 -51 -46q-51 -33 -104 -86q-53 -49 -60 -49h-2q-2 2 -20 109q-20 113 -33 153q-14 43 -14 70z" />
<glyph unicode="?" horiz-adv-x="573" d="M16 940q0 68 15 94q16 29 67 80.5t76 59.5q31 12 68 12q66 0 147 -39q76 -37 94 -53q31 -27 53.5 -94.5t22.5 -129.5q0 -27 -6 -49q-10 -41 -70.5 -103.5t-105.5 -78.5q-33 -12 -49 -12q-12 0 -31 6q-33 10 -92 18q-41 4 -59.5 13.5t-49.5 42.5q-45 45 -65 114 q-14 55 -15 119zM143 182q0 12 39 64q39 49 76 131q33 80 57.5 80t110.5 -106.5t86 -145.5q0 -29 -49 -29q-25 0 -57 6q-37 6 -76 6q-61 0 -148 -14q-8 -2 -20 -2q-18 0 -19 10zM154 938q0 -23 2 -39q4 -63 32 -94q25 -25 68 -25h20q59 2 94.5 37t35.5 70q0 20 -11 57 q-10 41 -63 66q-51 27 -80 26q-33 0 -65.5 -34.5t-32.5 -63.5z" />
<glyph unicode="A" horiz-adv-x="714" d="M16 670q0 37 21 55q16 16 33 57q18 59 113.5 247t111.5 196q12 6 31 6q39 0 57 -19q14 -12 41 -59q88 -158 160 -242q23 -29 44 -78t44 -77q29 -35 28 -78v-25q-4 -80 -44 -172t-91 -129q-25 -16 -65.5 -85.5t-55.5 -84.5q-29 -29 -28 -35q0 -16 -21.5 -33.5t-42.5 -17.5 q-33 0 -47 37q-14 35 -14 55q0 18 -58 91q-72 86 -198 325q-18 35 -19 66zM176 668q0 -10 12 -29q14 -25 56 -104q51 -98 118 -183l21 -26l20 41q27 49 66 82q33 29 62.5 83t39.5 99q0 2 1 7t1 7q0 27 -16 51.5t-35 24.5q-37 0 -61 84q-15 47 -64 123q-49 78 -57 78 q-6 0 -51 -93q-74 -154 -82 -170q-31 -59 -31 -75zM227 666q0 41 26 78.5t60 37.5q20 0 75.5 -40t64.5 -60q6 -14 6 -31q0 -39 -29 -69.5t-70 -30.5q-31 0 -68.5 23.5t-53.5 52.5q-10 16 -11 39z" />
<glyph unicode="B" horiz-adv-x="1253" d="M16 733q0 45 39 62q16 4 23 4q43 0 82 -72q27 -49 122 -146.5t179 -159t86 -61.5q8 0 8 58q0 98 -16 186q-14 76 -15 123v10v17q0 20 -4 32.5t-14 28.5t-14 27q-12 27 -127 141q-111 111 -132 147q-16 29 -22 29q-4 -4 -27 -141q-18 -135 -30 -160q-16 -29 -50 -29 q-18 0 -34 13q-20 18 -21 59q0 43 14 141q16 127 16.5 211t16 115t56.5 31q27 0 51 -17.5t25 -38.5q0 -18 26 -36q33 -23 70 -84q39 -61 133 -154q96 -92 116 -123l21 -31l41 48q109 127 170 247q43 84 67 125q21 25 21 54q0 23 22.5 52t43 29t41 -18t20.5 -37 q0 -27 47 -131q23 -51 72 -181t75 -183q25 -49 25 -70q0 -16 -16 -37q-14 -18 -41 -18q-20 0 -35 14l-8 4q-16 0 -92 -154q-117 -238 -248 -407q-31 -39 -41 -49t-27 -10q-12 0 -20.5 2t-22.5 2q-29 0 -47 -13q-23 -12 -29 -12q-8 0 -30 16q-49 31 -72 43q-117 68 -287 228 q-66 61 -136.5 154.5t-70.5 119.5zM248 784q0 50 22 72q20 23 45 23q27 0 48.5 -30t27.5 -79q4 -33 4 -35q0 -18 -24 -43q-29 -23 -49 -22q-18 0 -43 18q-31 25 -31 96zM483 -20q0 27 22.5 48t61.5 27q37 4 86 4h37q78 -6 103 -26q24 -24 24 -55.5t-18 -49.5 q-32 -32 -138 -32h-6q-98 0 -139 28q-33 25 -33 56zM611 813q-1 -2 12 -18q18 -20 37.5 -140t21.5 -217q0 -102 8 -102q14 0 118.5 160.5t104.5 181.5q0 10 -30 2q-4 0 -9.5 -1t-7.5 -1q-57 0 -57 100q0 55 15.5 78t49.5 23q47 0 72 -72l12 -35l48 82q47 80 47 105t-43 131 q-47 118 -54 118q-12 0 -43 -67q-70 -141 -194 -271q-53 -55 -84 -55q-23 0 -24 -2z" />
<glyph unicode="C" horiz-adv-x="1714" d="M16 1040q0 10 7 23q16 33 40 33q31 0 119 -49q168 -92 305 -138q12 -4 27.5 -9t26 -8t19.5 -6t13 -5l7 -2l14 39q23 72 91.5 193.5t105.5 154.5q25 25 16 45q-12 20 -12 50q0 32 22 60q20 27 47 27q53 0 92 -107q25 -70 94.5 -202.5t98.5 -163.5h2q18 0 104 57.5 t125 95.5q66 66 93.5 81.5t85.5 15.5h24q59 0 76.5 -4t30.5 -21q12 -18 12 -45q0 -39 -35 -260q-27 -174 -37 -214t-26 -50q-119 -68 -213 -150q-43 -37 -174 -123q-127 -84 -168 -133q-45 -53 -66 -53q-12 0 -41 16q-20 12 -28.5 12.5t-26.5 -16.5q-23 -23 -45 -22 q-39 0 -242 94q-88 41 -227 59q-100 12 -133 62q-18 27 -43 33q-29 8 -43.5 51t-28.5 157q-8 63 -15.5 100.5t-16.5 75t-17 74.5q-12 57 -39 113q-20 41 -21 59zM205 872q0 -12 12 -43q12 -35 29 -127l12 -86l41 21q27 14 51 14q27 0 53 -28q23 -27 23 -52q0 -39 -45 -82 l-43 -40l68 -9q158 -18 272 -73q53 -27 59 -27q2 0 -19.5 30.5t-74.5 100.5q-70 92 -91.5 132t-21.5 83q0 25 2 39l7 45l-47 8q-104 18 -236 84q-33 18 -45 19q-6 0 -6 -9zM657 713q0 -33 17.5 -62.5t101.5 -142.5l80 -107l16 31q25 47 60 141q78 190 131 240q27 27 27 35 q0 4 -39 55q-45 53 -86 135q-39 80 -64 113l-18 25l-43 -68q-55 -84 -119 -222t-64 -173zM784 821q1 64 54 82q16 4 24 4q37 0 69 -28.5t32 -63.5q0 -8 -5 -20q-6 -18 -39.5 -36t-66.5 -18q-31 0 -49.5 23.5t-18.5 56.5zM1004 379q0 -6 4 -6q6 0 24 20q14 16 58 43 q45 27 151 109l115 84l-37 28q-33 27 -49 64q-8 16 -8 29q0 10 14 30q23 29 67 29q33 0 101 -12q57 -8 63 -9h4q2 2 8.5 54.5t13.5 120t7 96.5q0 18 -2 20h-2q-16 0 -72 -51q-74 -66 -157 -113q-84 -49 -84 -67q0 -2 1 -7t1 -7q0 -31 -58 -95q-61 -68 -104 -198 q-10 -31 -43 -113q-16 -39 -16 -49z" />
<glyph unicode="D" horiz-adv-x="1318" d="M16 862q0 111 50 111q31 0 107.5 77.5t145.5 178.5q39 59 93.5 118.5t68.5 59.5q11 0 11 14q0 16 22.5 38t36.5 22q47 0 188 -160q90 -100 174 -162q229 -166 298 -221t79 -84q12 -35 13 -66q0 -51 -39 -129q-100 -201 -110 -297t-69 -96q-20 0 -42.5 15.5t-22.5 31.5 q0 10 -35 29q-39 16 -129 86q-90 68 -117 76q-2 0 -5 1t-5 1q-25 0 -63 -27q-154 -106 -242 -186q-61 -55 -83 -69.5t-46 -14.5h-10q-43 2 -54 -21q-10 -27 -53 -26q-16 0 -31 10q-49 43 -73 287q-14 160 -37 248q-20 84 -21 155zM143 838q0 -37 21 -119q25 -115 33 -221 q12 -147 16 -166q2 -12 3 -18.5t3 -8.5t5 0t9 8q20 16 31 17q14 0 74 63q45 47 145.5 118t159.5 99q37 18 37 35q0 10 -2 17q-8 29 -20.5 119.5t-26 199.5t-15.5 125q-6 51 -6 102v23q0 4 1 10t1 8q0 23 -18 47l-23 27l-39 -41q-43 -43 -124 -154q-139 -188 -230 -233 q-35 -18 -35 -57zM342 715q0 42 59 73q29 14 43.5 15t34.5 -15q25 -14 25 -43q0 -33 -39 -67q-35 -31 -59 -31q-20 0 -41 21q-23 23 -23 47zM485 225q0 10 2 15q9 29 29 43q18 14 135 14q115 0 148 -23q49 -35 49 -79q0 -63 -78 -80q-25 -6 -70 -6q-133 0 -168 20 q-18 10 -32.5 40t-14.5 56zM745 1114q0 -10 19 -121q10 -47 33 -231q10 -90 16 -109.5t35 -46.5q25 -25 110 -88l72 -51l14 29q12 25 33 82q23 63 64 129q47 77 47 85q0 11 -250 189q-129 90 -145 106q-47 43 -48 27zM938 721q0 29 18.5 51.5t47 22.5t48 -21.5t19.5 -50.5 q0 -35 -27 -55q-31 -23 -40.5 -23t-40.5 23q-25 18 -25 53z" />
<glyph unicode="E" horiz-adv-x="1796" d="M16 76q0 23 15 49q23 39 10 51q-10 10 -10 30.5t14 45.5q14 20 109 24l92 7l119 73q33 20 74.5 45t57 35t40 27.5t44 35t47 43t68.5 66.5q106 109 133 160t52 205q14 82 24.5 108.5t30.5 38.5q20 10 43 10q33 0 55 -18q16 -14 24 -56t23 -243q18 -207 31 -412l8 -135h27 q18 0 129 17q86 14 254 14q150 0 199 -12l49 -15l2 -51v-22q0 -33 -13 -43q-10 -8 -88 -9q-57 0 -96 2h-57q-258 0 -504 -67q-88 -25 -162 -25q-12 0 -139 4q-41 2 -133 2q-399 0 -482 -28q-33 -14 -59 -2q-31 14 -31 45zM420 219l246 -8q156 -4 182 -4q78 0 92 6 q20 8 24.5 18.5t4.5 53.5q-1 71 -11 198q-10 135 -18 144h-2q-16 0 -139 -127q-84 -86 -129 -123t-125 -84zM702 334q0 67 84 67h2q41 0 74 -19.5t33 -48t-33 -47t-74 -18.5q-86 0 -86 66z" />
<glyph unicode="F" horiz-adv-x="1624" d="M16 188v2q0 23 8.5 33t41 24.5t69.5 17.5t172 5h193l-6 129q0 8 -1 26.5t-1 29.5q0 66 10 209q29 287 44 362.5t54 95.5q24 16 51 43q29 31 51 31q61 0 103 -207q8 -35 24 -51q20 -18 21 -49q0 -20 -10 -27q-8 -2 -9 -18q0 -39 56 -152q63 -139 126.5 -201.5 t178.5 -103.5q20 -8 79.5 -29.5t82.5 -29.5q72 -27 106 -27q20 0 31 2q33 6 53 6q29 0 49 -18q16 -16 17 -41q0 -33 -25 -70l-24 -37l-258 2h-48q-233 0 -405 -14q-133 -10 -169 -17.5t-56 -23.5q-29 -23 -41 -22q-16 0 -52 26q-31 20 -64.5 23.5t-205.5 7.5q-184 2 -215 10 t-31 53zM629 313q0 -33 5 -40t30 -7q8 0 177 15.5t179 15.5l-21 16l-8 4q-29 14 -73 62q-51 51 -70 78q-25 33 -27 24q-2 -2 -2 -14q0 -27 -8 -39q-23 -35 -88 -35q-39 0 -59 15q-10 8 -15.5 9t-7.5 -4t-6 -22q-6 -27 -6 -78zM639 487l29 21q28 22 66 22h3q35 0 58 -16 q8 -6 12 -6q2 0 2 2q0 4 -25 53q-59 123 -92 215q-18 37 -24 37q-4 -12 -16.5 -142t-12.5 -163v-23z" />
<glyph unicode="G" horiz-adv-x="1497" d="M16 395q2 182 26 292t85 214q119 199 422 326q96 41 178 43q66 0 145.5 -15.5t118.5 -35.5q29 -14 82 -31q47 -14 86 -46t39 -57q0 -43 -53 -63q-20 -8 -21 -23q0 -23 -20.5 -40t-48.5 -17q-35 0 -41 10.5t-66 10.5q-68 0 -100.5 -26t-75.5 -112q-35 -66 -42 -93t-7 -81 v-78q39 -39 113 -120l84 -4q10 0 24 -1.5t21 -1.5q45 0 96 29q53 29 77.5 59.5t45.5 90.5q55 170 119 170q12 0 30 -19q20 -20 47 -36.5t66 -94.5q25 -49 31 -74.5t6 -81.5q0 -98 -44 -224t-112 -214q-53 -72 -190.5 -152.5t-255.5 -113.5q-51 -14 -133 -14q-172 0 -332 55 q-86 31 -199 147.5t-174 237.5q-18 39 -22.5 66.5t-4.5 117.5zM162 293l55 -84q106 -158 217 -220.5t295 -64.5h45q51 0 78 6.5t88 32.5q92 41 173 98.5t114 106.5q45 66 76.5 161t31.5 160q0 55 -14 56q-6 0 -12 -25q-8 -39 -67.5 -95t-125.5 -91q-76 -37 -127 -37 q-6 0 -27.5 1t-35.5 1q-115 6 -156 28.5t-106.5 92t-77.5 106.5q-10 27 -11 95q0 33 3 51q4 76 10 105.5t37 90.5q45 94 79.5 138.5t81.5 68.5q43 23 43 31q0 4 -8 6q-20 8 -82 8q-59 0 -143 -35q-266 -119 -352 -282q-43 -82 -57.5 -146.5t-18.5 -199.5zM367 487q12 6 24 7 q20 0 62 -35q28 -28 28 -58v-2q0 -35 -30 -67q-31 -35 -60 -35q-25 0 -47 29q-22 24 -22 67q0 78 45 94z" />
<glyph unicode="H" horiz-adv-x="1486" d="M16 561v84q0 139 15.5 209t64.5 168q72 147 207 260q63 51 105 51q31 0 77 -28q90 -51 90 -109q0 -18 -16 -35q-47 -39 -47 -69q0 -4 1 -12.5t1 -14.5q4 -53 18 -59q12 -6 70 -39q55 -31 139 -39q45 -4 56 -4q31 0 30 6q0 8 31 20.5t70 46.5q35 31 45 76t12 170 q2 98 16 111q17 16 17 28q0 23 21.5 39.5t47.5 16.5q33 0 87 -56q88 -94 88 -139q0 -12 49 -88q90 -133 124.5 -257t37.5 -316q0 -106 -10.5 -151.5t-45.5 -94.5q-31 -43 -31 -65.5t-14 -37.5q-16 -16 -16 -26q0 -16 -22.5 -36.5t-41 -20.5t-47.5 28q-23 23 -47 23 q-4 0 -65 -4q-45 -4 -306 -9l-215 -2l-63 31q-55 25 -92 25q-31 0 -51 -2q-231 -18 -283 -43q-25 -12 -35 -12.5t-27 12.5q-34 22 -34 49q0 9 8 35q12 31 -2 47q-14 20 -17 233zM164 481q0 -109 6 -110q2 -2 20 -2q47 0 105 8q106 14 164 14q63 0 137 -31q53 -23 85 -26.5 t163 -3.5q174 0 174 10t125 10h127l26 56q18 37 23.5 66.5t5.5 109.5q0 166 -28.5 267t-108.5 222q-37 57 -49.5 57t-14.5 -63q-2 -70 -62.5 -140.5t-160.5 -119.5q-68 -31 -104 -31q-8 0 -78 4q-117 8 -154 33q-43 31 -92 53q-57 29 -73.5 57.5t-16.5 104.5v25v45 q0 57 -2 57t-59 -57q-53 -55 -105 -162l-49 -103l-2 -225q0 -25 -1 -65.5t-1 -59.5zM627 563q0 63 51 88q27 14 53 15q33 0 59.5 -20.5t26.5 -47.5q0 -25 -29 -57q-37 -41 -88 -41q-31 0 -52 17.5t-21 45.5z" />
<glyph unicode="I" horiz-adv-x="821" d="M16 205q0 31 9.5 44t44.5 34q55 33 75.5 93t59.5 296q4 25 14 80t12 72.5t9.5 59.5t9.5 66.5t6 67.5t7 88t5 104q8 201 17 274t32 89q14 12 52 12q39 0 53 -27.5t14 -101.5q0 -166 60 -409q119 -485 192 -676q12 -31 22.5 -40t37.5 -14q35 -6 47 -16t12 -31v-16v-53 q0 -41 -20.5 -68t-51.5 -27q-29 0 -51 23l-22 21l-52 -23q-35 -16 -71.5 -20.5t-165.5 -4.5q-186 0 -207 19q-20 16 -35 8q-16 -10 -37 -10q-31 0 -54.5 24.5t-23.5 61.5zM248 250q0 -4 69 -4q219 0 234 14q2 2 2 12q0 35 -41 158q-60 197 -80 279q-35 131 -37 131 q-8 0 -40.5 -172t-32.5 -217q0 -2 6 1t16 9q23 16 39 16q20 0 43 -28q18 -25 18 -54q0 -27 -16 -46t-43 -19t-45 19.5t-21 49.5q-2 25 -10 0l-10 -30q-20 -66 -35 -86q-16 -23 -16 -33z" />
<glyph unicode="J" horiz-adv-x="1402" d="M16 436v29q2 61 11.5 90t40.5 90q111 221 190 371q96 182 117 241q20 68 49 99q31 31 51 22q25 -8 295 -8l274 -2l48 -31q51 -33 51 -63q0 -20 -23 -39l-24 -25l28 -90q29 -88 76 -157q106 -152 156 -465q12 -68 20 -88q10 -25 10 -93q0 -106 -20 -155q-20 -47 -25 -82 q-6 -29 -59 -78t-86 -57q-37 -8 -78 -31q-61 -29 -262 -70q-149 -32 -208 -32h-3q-53 2 -111.5 24.5t-78.5 50.5q-16 23 -17 43q0 23 18.5 40.5t45.5 17.5q14 0 30 -6q25 -8 84 -9q94 0 220.5 20.5t201.5 51.5q12 6 49 18.5t56.5 21.5t38.5 24q53 43 53 174q0 57 -12 116 q-4 20 -15.5 80t-17.5 82q-47 225 -125 334q-35 49 -77 156.5t-44 146.5q0 10 -15.5 13t-80.5 3h-117l-211 -2l-12 -32q-18 -49 -130 -259t-142 -276l-64 -131l4 -111l2 -110l70 -94q74 -100 121 -136q67 -48 67 -95q0 -34 -37 -50q-10 -6 -20 -6q-16 0 -82 45 q-68 47 -129 125q-18 25 -51 65l-33 41q-68 82 -68 248zM553 512q0 37 47 84q35 37 49.5 43t61.5 6q96 -4 96 -53q0 -33 -39 -80q-57 -74 -106 -74q-18 0 -29 2q-45 8 -62.5 23.5t-17.5 48.5z" />
<glyph unicode="K" horiz-adv-x="1789" d="M16 309q0 31 29 66q16 20 19.5 67t5.5 248q2 289 20 316q18 29 53 28q23 0 39 -16q8 -8 11 -8q8 0 34 41q37 57 113 127.5t123 87.5q129 49 178 110q35 39 45 39q13 0 27 49q33 98 78 99q20 0 40 -21q16 -16 17 -37q0 -25 -14 -82q-4 -20 -1 -24t25 -4q31 0 41 -10.5 t160 -69.5q176 -70 270 -119t203 -125q147 -98 188 -115l56 -22l-4 -47l-3 -49h-108l-10 -80q-10 -72 -11 -248q0 -123 -3 -148.5t-19 -36t-37 -10.5q-84 0 -252 150q-115 100 -199 102q-33 0 -40 -6t-15 -41q-27 -98 -39 -248q-8 -118 -87 -118h-1q-8 0 -28 4q-31 6 -78 53 t-82 106q-80 141 -146 213l-41 45l-65 -28q-86 -39 -177 -99.5t-108 -89.5q-16 -25 -47 -43t-47 -36q-27 -29 -53 -29q-23 0 -43 20q-16 16 -17 39zM193 827q0 -12 1 -51t1 -63l4 -199l110 68q113 72 148 82q59 20 80.5 69t50.5 225q4 17 57 228q8 18 -4 18q-14 -2 -96 -40 t-90 -48q-45 -33 -127 -129q-37 -49 -68 -49q-14 0 -35 10q-8 4 -12 4q-20 0 -20 -125zM252 807q0 25 19.5 44t50.5 23q12 2 31.5 6.5t23.5 4.5h2q16 0 36.5 -21.5t20.5 -40.5q0 -33 -33.5 -54t-74.5 -21q-57 0 -72 38q-4 12 -4 21zM680 645l43 -47q66 -72 154 -225 q29 -49 38 -49q8 0 13 34q2 10 2 34v32q6 86 39 182q14 37 14 56q0 12 -10 32q-14 23 -47 113q-39 109 -84 201q-56 119 -56 129q0 18 -8 18q-6 0 -34.5 -109.5t-36.5 -144.5q-16 -72 -21 -160zM778 592q0 56 39 76q27 14 51 14q31 0 50.5 -21.5t19.5 -56.5q0 -47 -55 -69 q-25 -8 -37 -9q-43 0 -60 31q-8 14 -8 35zM905 1219q0 -37 58 -160q61 -133 90 -209q39 -106 56 -125.5t89 -40.5q66 -18 114 -46t130 -95l61 -51l6 118q6 96 21 203q8 70 8 80t-2 12q-6 10 -91 69.5t-132 88.5q-72 41 -283 129q-100 43 -115 43q-10 0 -10 -16zM1274 811 q0 50 45 68q18 8 39 8q29 0 46 -18.5t17 -49.5v-10q-2 -39 -41 -57q-29 -14 -41 -15q-8 0 -28 11q-37 23 -37 63z" />
<glyph unicode="L" horiz-adv-x="1540" d="M16 778v66q4 168 41 295q8 29 23 47q16 16 51 16q25 0 31 -10t43 -25q35 -16 74 -90q43 -84 96 -127t155 -80l115 -41l150 5q106 4 138 9t75 25q47 23 88 61t127 136q55 63 55 84q0 8 -2 12q-2 6 -2 19q0 44 57 75q27 16 53 23q18 0 37 -25.5t19 -52.5q0 -33 16 -57 q18 -29 44 -108t26 -111q0 -76 -55.5 -272.5t-94.5 -262.5q-49 -82 -219 -164l-115 -57l-243 2q-178 2 -227.5 5t-122.5 24q-188 51 -267 139q-86 102 -139 260q-27 82 -27 180zM147 870q0 -43 3 -63q8 -168 90 -297q39 -66 78.5 -96.5t115.5 -53.5q156 -49 402 -49h165 l95 49q115 59 153.5 121t89.5 267q35 139 35 184q0 31 -12 39q-14 12 -41 -19q-162 -197 -320 -245q-72 -23 -229 -23q-113 0 -148.5 4t-95.5 27q-113 47 -145 61q-49 25 -112.5 86.5t-86.5 106.5q-18 33 -22 32q-14 0 -15 -131zM655 530q1 32 19 50q14 18 61 18 q41 0 68 -14q27 -16 37 -41q4 -12 4 -19q0 -12 -25 -53q-37 -53 -76 -53q-37 0 -67 47q-20 37 -21 65z" />
<glyph unicode="M" horiz-adv-x="1705" d="M16 410q0 127 35 224t131 232q2 2 61.5 87t84.5 120q90 127 146.5 177.5t115.5 60.5q51 8 153 8q137 0 187 -14q131 -37 235 -121q164 -131 200 -167t108 -149q55 -86 83 -120q49 -66 72 -181q31 -168 49 -205q14 -27 15 -49q0 -29 -21 -61q-20 -35 -55 -35 q-76 4 -182 92q-53 47 -107 76q-55 31 -86 55q-96 80 -215 105q-61 12 -231 12q-152 0 -203 -16.5t-148 -96.5q-70 -59 -102 -75q-31 -16 -90 -65.5t-84 -78.5q-24 -30 -60 -30h-2q-53 0 -71.5 45t-18.5 170zM162 428l57 37q20 12 135 99t162 108q41 20 78 23t194 7h93 q139 0 190 -14q131 -31 244 -115q35 -27 112 -73l68 -41l-8 57q-14 100 -86 197q-66 90 -88 127q-35 53 -78 94t-182 145q-70 54 -133 72q-59 18 -175 18q-61 0 -120 -6q-59 -8 -156 -151q-57 -86 -78 -107q-31 -35 -98.5 -139t-89.5 -154q-27 -57 -35 -123zM633 907 q0 14 2 27q10 75 65 100q27 10 45 10q37 0 68 -30.5t31 -48.5q0 -23 -17.5 -57t-33.5 -44q-25 -10 -60 -10q-53 0 -80 16q-20 14 -20 37z" />
<glyph unicode="N" horiz-adv-x="1292" d="M18 248q0 86 97 276q55 102 80 174q76 219 137 316q27 43 61.5 135t61.5 133q8 12 30.5 45t28.5 45q14 25 23.5 36t29 20.5t47.5 9.5q39 0 84 -45q43 -47 86 -119q129 -213 152 -256q33 -57 90 -144q125 -186 174 -325q16 -47 53 -131q25 -53 25 -92q0 -37 -23 -82 q-37 -66 -90 -66q-12 0 -18 2q-27 8 -80 68q-57 63 -139 112l-88 54l-150 2q-16 0 -41.5 1t-34.5 1q-72 0 -108 -17q-57 -29 -182 -144.5t-125 -139.5q0 -14 -21.5 -31.5t-40.5 -17.5q-23 0 -44 17t-21 34q0 12 -27 47q-27 33 -27 82zM201 356q0 -4 28 23l76 63 q76 66 139 95l72 32q59 -2 178 -5t178 -3l95 -51q86 -47 98 -47q2 0 2 6q0 31 -56.5 139.5t-133.5 225.5q-70 111 -91 147q-35 68 -77 131q-52 86 -56 94q-23 39 -30 39q-14 0 -41 -45t-43 -98q-16 -47 -82 -169t-82 -169q-68 -203 -121 -297q-39 -72 -49 -96q-4 -12 -4 -15 zM573 752q0 27 14.5 61.5t30.5 48.5q20 14 37 15q31 0 52.5 -37t21.5 -92q0 -51 -24 -68q-23 -18 -46 -18q-25 0 -51 23.5t-33 49.5q-2 4 -2 17z" />
<glyph unicode="O" horiz-adv-x="1226" d="M16 625q0 33 27 65q27 35 68 35q59 0 180 62.5t239 152.5q49 37 74 51q33 23 66 23q47 0 141 -53q106 -61 240 -166q72 -57 96 -57.5t47 -22.5q18 -18 18 -41q0 -16 -2 -27q-8 -49 -30.5 -73.5t-89.5 -57.5q-59 -29 -76 -45t-43 -65q-35 -66 -54.5 -87.5t-62.5 -50.5 q-46 -29 -77 -29l-1 1q-31 0 -55 26q-33 35 -80 76q-37 29 -95.5 63.5t-84.5 53.5q-59 41 -116.5 59.5t-170.5 32.5q-115 18 -135 33q-23 14 -23 41zM365 662q0 -4 55 -25q39 -14 72.5 -32.5t74.5 -43t64 -37.5q47 -20 90 -53q53 -37 70 -37q23 0 61 68q66 113 129 133 q20 6 20 16.5t-93 82t-136 91.5q-55 29 -61 39t-17 10q-23 0 -94 -53q-70 -55 -133 -92q-102 -59 -102 -67zM610 637q0 70 41 111q23 23 58 22q37 0 57 -25q20 -23 29 -106q4 -49 4 -55q0 -29 -25 -47q-23 -20 -43 -21q-27 0 -72 43q-49 43 -49 78z" />
<glyph unicode="P" horiz-adv-x="1431" d="M16 1286q0 25 32 55.5t58 30.5q25 0 82 23q113 43 338 80q135 22 245 22h9q14 0 45 -1t52 -1q197 -4 311 -33q80 -20 99.5 -30.5t43.5 -40.5q39 -55 70 -80q16 -16 16 -43q0 -33 -53 -72q-55 -37 -61.5 -65.5t-51.5 -131.5q-55 -123 -72.5 -205.5t-23.5 -250.5 q-2 -47 -2 -119q0 -86 10 -133q8 -31 8 -45q0 -12 -14 -29q-18 -20 -45 -20q-35 0 -59 32q-16 20 -21.5 64.5t-11.5 208.5l-8 243l39 119q20 70 61 160t55 135q20 59 43 92q27 39 27 43q0 2 -28.5 8.5t-62.5 14.5t-42 10q-68 20 -240 21q-193 0 -358 -25 q-115 -16 -217.5 -39.5t-102.5 -36.5q0 -6 58 -57q150 -127 225 -240q35 -53 81 -183t60 -214q8 -43 8 -117q0 -98 -14 -157l-6 -27l201 4q23 0 57.5 1t46.5 1q92 0 113.5 -11t21.5 -52q0 -47 -42 -65.5t-154 -18.5q-53 0 -86 2l-138 6l-30 33q-29 31 -64 34q-33 2 -55 33 q-16 23 -16 41q0 12 10 88q8 51 8 92q0 39 -8 80q-35 190 -96 311q-23 43 -89.5 128t-78.5 85q-8 0 -81 85t-87 110q-10 14 -15 47zM698 956q0 40 37 60q33 16 60 16q31 0 51 -17.5t20 -43.5q0 -31 -28.5 -53.5t-67.5 -22.5q-10 0 -27 4q-45 12 -45 57z" />
<glyph unicode="Q" horiz-adv-x="1769" d="M16 512q0 12 13 29q18 27 55 26q57 0 93 -70.5t65 -230.5q39 -225 73 -311q8 -18 13.5 -25.5t12.5 -8.5t19 3q94 23 240 287q43 78 115 154q73 79 73 105t27 181q25 141 25 172q0 14 -4.5 21.5t-9.5 8.5t-19 1h-10q-100 0 -211 61q-57 33 -70 33q-10 0 -51 -69 q-39 -63 -130 -151.5t-147 -115.5q-57 -26 -91 -26h-3q-37 0 -53 24q-18 23 -18 43q0 18 24.5 40t44.5 22q16 0 68.5 41t68.5 65q2 4 47 53q31 31 93 134q51 92 71 112q18 18 47 19q33 0 74 -29q45 -33 105 -68l63 -34h434l70 34q74 39 100 66q35 31 68 31q53 0 69 -68 q6 -27 35 -63q25 -31 25 -41q0 -16 70.5 -123t103.5 -139l51 -52l-12 -94q-16 -137 -90 -577q-29 -170 -86 -185q-16 -4 -25 -4q-39 0 -104 51q-47 37 -113 70q-47 25 -121 80q-31 25 -148.5 107.5t-150.5 107.5q-51 45 -78 45q-20 0 -37.5 -21.5t-44.5 -72.5 q-45 -84 -115.5 -184.5t-103.5 -127.5q-95 -77 -199 -77h-3q-43 0 -59.5 5t-33.5 23q-35 37 -78.5 179.5t-60.5 275.5q-14 109 -55 199q-20 43 -21 59zM397 518q0 18 25 43q27 27 70 27q31 0 45 -17q16 -16 16 -43q0 -35 -22.5 -51t-61.5 -16q-43 0 -57 22q-14 20 -15 35z M911 426q-6 -31 21 -41q23 -10 31 -29q8 -20 139 -108q150 -100 184.5 -129t117.5 -76t97 -47h2q4 4 27 151q55 373 76 410q4 6 4 14q0 14 -33 50q-29 29 -95 132t-91 156q-6 14 -13.5 22.5t-11.5 6.5q-4 0 -86 -37q-72 -37 -186 -43l-115 -8v-49q0 -49 -14 -107 q-33 -139 -54 -268zM1235 539q0 39 20.5 59t42.5 20q25 0 48 -22q30 -24 30 -63q0 -34 -20 -48q-16 -14 -47 -14q-35 0 -58 18q-16 14 -16 50z" />
<glyph unicode="R" horiz-adv-x="1576" d="M16 25q0 35 27 49q18 12 22.5 26.5t4.5 71.5q2 311 374 721q86 94 239.5 174t307.5 111q66 14 117 14q55 0 131 -21q96 -25 202.5 -84t119.5 -96q2 -4 2 -16q0 -51 -47 -70q-16 -6 -33 -6q-35 0 -97 43q-123 90 -272 90q-29 0 -45 -2q-84 -8 -104 -14q-39 -10 -39 -70 q0 -12 4 -28q8 -29 8 -285v-111l-4 -366l86 -6q92 -8 139 -15q6 0 14.5 -1t12.5 -1q31 0 59 14q27 14 47.5 14.5t40.5 -20.5q23 -23 23 -63.5t-23 -63.5q-30 -30 -94 -30h-4q-14 0 -80 4q-98 8 -231 8q-262 0 -467 -35q-41 -8 -140 -8q-61 0 -96 2q-164 4 -184 25 q-20 18 -21 45zM205 106.5q8 -12.5 47 -12.5q31 0 88 6q74 6 133 15.5t158 15.5q133 10 143 21q12 12 14 350v143q0 203 -4 248l-8 53l-49 -24q-111 -57 -242 -207q-288 -327 -288 -549q0 -47 8 -59.5zM434 354q0 47 35 74q27 23 49.5 23t47 -25t24.5 -49q0 -29 -22.5 -62.5 t-45.5 -40.5q-6 -2 -18 -2q-31 0 -50.5 25t-19.5 57z" />
<glyph unicode="S" horiz-adv-x="1349" d="M18 967q0 82 25 198q4 25 12 80t11 64q10 63 25.5 81.5t68.5 26.5q45 6 67 6q29 0 47 -20q39 -43 219.5 -147.5t215.5 -104.5q14 0 66 -32t67 -48q25 -31 32 -53q18 -39 158 -180q137 -141 191 -230q110 -188 110 -261q0 -38 -14 -68q-20 -41 -33 -138q-23 -188 -63 -225 q-31 -31 -80 -31q-25 0 -51 11q-106 41 -277 215q-84 88 -121 102q-33 14 -44 26.5t-11 39.5q0 22 -15 22t-141 119q-197 186 -315 268q-84 57 -108.5 83t-24.5 56v11v12q0 37 -10 61q-6 18 -7 56zM141 944q0 -45 21 -57q20 -14 20 -33q0 -20 74 -72q135 -94 301 -258 l92 -90v150l-51 51q-53 53 -53 86q0 35 22.5 80t44.5 55q18 10 22.5 23.5t4.5 70.5v84l-96 47q-99 45 -215.5 121t-122.5 76q-14 0 -38 -130t-26 -204zM778 313l29 -16q20 -14 113 -107q170 -170 206 -170l4 3q6 6 25 127q16 113 41 161l25 49l-70 121q-47 82 -85 129 t-136 148l-152 153v-47q0 -51 10 -61q12 -12 13 -68q0 -59 -13 -82q-10 -14 -10 -180v-160z" />
<glyph unicode="T" horiz-adv-x="1386" d="M16 1282q0 16 23.5 37.5t42.5 21.5q20 0 92 -71q70 -70 127 -90q127 -43 379 -56q82 -4 92 -4q49 0 78 17q111 61 139 77q132 72 232 197q16 23 44.5 42.5t55.5 19.5q33 0 47 -33q4 -12 4 -19q0 -20 -29 -80q-30 -61 -30 -86q0 -14 2 -18t2 -14q0 -59 -70 -211 q-25 -51 -57 -154q-29 -88 -84 -229q-43 -106 -79 -255t-38 -214q-2 -55 -18.5 -73.5t-67.5 -18.5q-66 0 -112 51t-150 235q-125 219 -210 337t-263 308q-82 88 -82 136q0 12 2 18q6 27 -20 43q-20 14 -36 40t-16 46zM328 1006q0 -4 4 -13q2 -4 110 -125q143 -156 369 -557 q37 -63 45 -63q10 0 21 61q53 254 124 443q29 74 74 202q14 52 41 99q23 41 23 55q0 8 -9 8q-18 0 -96 -47q-109 -66 -148.5 -82t-103.5 -16q-16 0 -102 4q-158 8 -244 22q-72 14 -94 15q-14 0 -14 -6zM723 756q0 40 41 65q12 6 29 6q31 0 55 -19.5t24 -47.5q0 -23 -14 -43 q-14 -23 -43 -23q-2 0 -10 1t-12 1q-51 4 -64 31q-6 14 -6 29z" />
<glyph unicode="U" horiz-adv-x="1155" d="M16 621q0 23 19 47q18 23 51 41q27 12 123 100q86 82 168 129q92 51 194 137q51 41 78 41q37 0 139 -96q152 -141 242 -182q49 -23 79 -64t30 -80q0 -33 -20.5 -53t-37.5 -20q-14 0 -14 -43q0 -70 -115 -154q-35 -27 -34 -35q0 -4 12 -16q16 -16 16 -41q0 -84 -158 -180 q-51 -31 -76.5 -38.5t-95.5 -11.5q-25 -2 -59 -2q-43 0 -115 37q-61 33 -111 80t-50 74q0 23 22.5 43t48.5 20q20 0 20.5 4t-32.5 31q-45 37 -90 82q-49 49 -70 59q-23 10 -33 33q-8 14 -12 15.5t-18 -7.5q-20 -14 -41 -14q-25 0 -42.5 18.5t-17.5 45.5zM262 657l25 -32 q94 -121 329 -181l78 -20l76 53q70 45 129 105q86 86 86 98q0 6 -6 12q-12 12 -25 13q-16 0 -81.5 48t-131.5 107q-86 78 -90 78q-23 -4 -90 -57q-35 -29 -104 -70q-57 -31 -129 -94zM449 305q6 -29 54 -52.5t97 -23.5q14 0 23 2q51 8 75 29l23 19l-37 2q-39 0 -131 26.5 t-100 26.5q-12 0 -4 -29zM567 610q0 33 27 58q27 27 49 26q25 0 49.5 -23.5t24.5 -45.5q0 -25 -30 -52.5t-54 -27.5q-29 0 -47.5 19.5t-18.5 45.5z" />
<glyph unicode="V" horiz-adv-x="1282" d="M16 1192q0 29 54 80l55 51l240 -8q47 -2 137 -4t159.5 -4t108.5 -4q47 -2 109 -3q71 1 98 13q39 14 102 14h21q125 -2 125 -65v-11q-2 -33 20.5 -51t22.5 -53q0 -57 -78 -215q-33 -66 -89.5 -198t-70.5 -163q-57 -121 -92 -254q-29 -113 -41 -129q-12 -14 -35 -14 q-27 0 -49 15.5t-22 35.5q0 14 -86 86q-289 231 -502 594q-70 117 -97 139q-33 29 -61.5 76t-28.5 72zM178 1188q0 -8 55.5 -86t104.5 -158q61 -106 186 -253.5t226 -233.5l69 -58l25 76q18 63 57 145t55 125q31 88 91 205q8 16 45 87t47 96l32 71l-59 -2q-70 -4 -115 -22 q-41 -16 -180 -17q-119 0 -348 13.5t-262 13.5q-29 0 -29 -2zM684 727q0 22 31 53q33 33 71 33q35 0 64 -28.5t22 -43.5q-6 -16 -6 -26t-45 -31.5t-67 -21.5q-25 0 -47.5 21.5t-22.5 43.5z" />
<glyph unicode="W" horiz-adv-x="1325" d="M14 733q0 16 8.5 24.5t34.5 24.5q37 23 103 109q70 90 121 141q63 63 170.5 150.5t138.5 99.5q27 12 82 16q45 0 67 -26q102 -123 334 -363q72 -74 96.5 -92t55.5 -22q55 -10 70.5 -21.5t15.5 -44.5q0 -35 -42 -76t-182 -143q-55 -47 -102 -92q-156 -147 -215 -166 q-6 -2 -20 -2q-90 0 -240 90q-260 158 -389 268q-55 49 -78 60q-25 12 -27 49q0 4 -1 9t-1 7zM203 713l35 -29q31 -25 133 -91.5t157 -96.5q49 -29 97 -64q53 -39 75 -39q25 0 76 39q39 29 113 99.5t115 99.5q67 48 67 55q0 12 -45 57q-39 39 -154 167t-172 198 q-43 51 -49 51q-4 2 -33 -26q-27 -31 -94 -84q-160 -129 -258 -258zM221 1239q0 18 10 33q18 27 33 26q16 0 68 52q127 123 186.5 165t122.5 50q10 2 24.5 3t23.5 3t13 2h7q57 0 122 -96q55 -78 131 -153t117 -95q82 -41 82 -92q0 -25 -16.5 -47.5t-46.5 -22.5q-37 0 -94 33 q-53 31 -134.5 106.5t-117.5 130.5q-57 86 -95 86q-10 0 -16 -2q-33 -8 -94 -61q-33 -29 -125 -111q-61 -55 -100 -67q-20 -4 -29 -4q-31 0 -51.5 18t-20.5 43zM387 47q0 23 20.5 43.5t98.5 20.5q61 0 192 24.5t176 28.5q90 8 125 8q23 0 33 -10q12 -12 12 -47 q0 -27 -10 -47q-8 -14 -33.5 -25.5t-66.5 -20t-76 -12.5t-84 -10t-69 -8q-86 -10 -148 -10q-135 0 -156 26q-14 16 -14 39zM532 739q0 37 29 66q25 27 63 27h1q39 0 59.5 -33t20.5 -64q0 -73 -98 -73h-3q-33 0 -52.5 22.5t-19.5 54.5z" />
<glyph unicode="X" horiz-adv-x="1511" d="M18 1280q-8 18 5 45q8 20 48 37.5t76 17.5q18 0 31 -6q14 -6 33 -6q37 0 108 37q74 35 377 74q63 8 105 8q57 0 135 -31q74 -29 166 -41q53 -6 71.5 -13t43.5 -30q45 -43 45 -76q0 -16 -9 -24q-12 -16 -6 -49q2 -8 2 -21q0 -25 -20.5 -53.5t-87.5 -101.5 q-133 -150 -223 -271l-37 -51l71 -66q78 -74 95 -90q72 -84 77 -90q57 -68 113.5 -155.5t56.5 -112.5q0 -16 6.5 -21.5t26.5 -5.5q37 0 70 23q37 23 57 10q43 -23 43 -86q0 -27 -12 -45q-33 -43 -291 -61q-51 -4 -282.5 -26t-368.5 -22q-180 -4 -199 -14q-20 -12 -43 -12 q-27 0 -46 18.5t-19 44.5q0 29 22 52l23 24h-25q-27 0 -45 18.5t-18 43.5q0 20 15 42.5t32 22.5q14 0 41 41q74 113 266 322l127 137l-133 127q-125 121 -181 160q-25 16 -92 72.5t-120.5 97t-65.5 40.5t-33.5 23t-30.5 43zM287 94q0 -4 6 -4q4 0 4 4q0 6 -4 6q-6 0 -6 -6z M297 1231l41 -35q27 -20 98.5 -77.5t131 -106.5t102.5 -88q86 -78 104 -78q16 0 51 51q4 4 6 8q57 84 201 246q94 106 94 111q0 6 -45 6q-49 0 -151 37q-89 32 -134 32h-3q-37 0 -97 -8q-18 -2 -48 -6t-65.5 -8t-52.5 -6q-94 -12 -161 -45zM319 104l62 2q309 20 420 35 q100 12 209 17q129 8 133 10q4 0 4 8q0 29 -83 137.5t-183 206.5q-76 72 -86 78q-2 2 -7 2q-18 0 -133 -121q-135 -143 -161 -178q-43 -51 -52 -57q-14 -10 -41 -49q-25 -35 -53 -64zM676 1143q0 62 18 80q22 22 77 22h5q37 0 49.5 -12t12.5 -43q0 -43 -21 -51 q-20 -10 -20 -33q0 -27 -21.5 -44.5t-46.5 -17.5q-29 0 -39 23q-14 27 -14 76zM743 238q1 21 17 41q14 23 51 22q31 0 56.5 -16.5t25.5 -40.5q0 -16 -27.5 -43t-46.5 -27q-20 0 -48 23.5t-28 40.5z" />
<glyph unicode="Y" horiz-adv-x="1206" d="M16 1395q0 33 19.5 53t52.5 20q25 0 31 27q12 45 74 45q2 0 9 -1t11 -1q43 -8 291 -22q199 -12 269.5 -24.5t150.5 -47.5q57 -25 90 -25q2 0 8 1t10 1q12 2 29 2q18 0 37.5 -9t34.5 -13q27 -6 43 -27.5t16 -46.5q0 -2 -1 -6t-1 -6q-4 -16 -23.5 -30.5t-38.5 -14.5 q-6 0 -10 2h-2q-16 0 -53 -66q-170 -289 -225 -354q-14 -14 -14.5 -53t-35.5 -66q-23 -14 -40 -47t-17 -55q0 -10 2 -13q4 -6 31 -206q25 -197 47 -222q23 -23 23 -100q0 -49 -5.5 -67.5t-23.5 -34.5q-23 -23 -47 -23q-29 0 -56 27q-53 53 -104 575q-10 90 -16.5 119 t-26.5 59q-27 37 -135.5 155t-183.5 187q-68 63 -142 162q-78 102 -78 146zM186 1380q0 -31 140 -168q111 -109 211 -216t108 -128q6 -16 10 -16q6 0 33 43q12 20 43 66.5t73 106.5t62 93q16 25 41 72l23 45l-29 12q-20 8 -57 22.5t-48.5 17.5t-41 11.5t-61 11.5t-81 7 t-129.5 8q-256 14 -272 21q-25 6 -25 -9zM600 1163q0 29 23 45q20 16 40.5 16.5t41.5 -16.5q23 -14 22 -45q0 -27 -17.5 -46t-43.5 -19q-29 0 -47.5 19.5t-18.5 45.5z" />
<glyph unicode="Z" horiz-adv-x="1411" d="M16 410q0 41 27 59q27 20 27 66q0 96 245 438q88 121 142 205q57 82 86 102q33 18 41 45q8 25 30 39q31 20 103 102q82 88 143 129l64 41h137l139 2l98 -147q98 -152 99 -166q0 -57 -60 -57q-25 0 -32 -5.5t-11 -23.5q-2 -6 -19.5 -62.5t-17.5 -74.5q0 -23 -67 -191 q-70 -172 -70 -182q0 -14 -42 -119.5t-64 -148.5q-33 -63 -41 -88q-14 -37 -53 -37q-20 0 -39 12q-27 18 -27 58q0 47 35 110q55 104 155 412q90 276 109 405l12 92l-41 68q-41 68 -43 70t-9 -2.5t-19 -14.5q-12 -12 -97.5 -71.5t-101.5 -81.5q-29 -35 -84 -62l-55 -26 l6 -103q10 -166 63 -368q18 -78 35 -234l19 -174l-23 -18q-20 -18 -28.5 -51t-26.5 -46q-23 -14 -103 -100q-73 -81 -73 -100q0 -4 4 -13q12 -20 12 -41q0 -29 -23.5 -46t-64.5 -17q-39 0 -63 -10q-8 -4 -25 -4q-49 0 -53 63q-4 80 -101.5 165t-183.5 118q-47 16 -58.5 30.5 t-11.5 53.5zM184 444q0 -12 78 -61q82 -53 144 -121q49 -57 65 -57q6 0 10 4q12 12 98.5 116.5t94.5 112.5q18 20 18 41q0 25 -8 74q-8 63 -16.5 79.5t-40.5 37.5q-33 23 -38 35t-5 59q0 68 14 106q10 31 10 54q0 8 -8 61q-18 98 -29 98q-8 0 -36 -51q-31 -55 -142 -194 q-196 -249 -196 -331q0 -42 -11 -56q-2 -2 -2 -7z" />
<glyph unicode="a" horiz-adv-x="796" d="M16 659q0 57 52 86q78 43 223 252q74 105 84 107q16 8 37 8q33 0 54 -23.5t21 -62.5q0 -41 37 -78q39 -45 101 -125q63 -86 77 -86h3q12 6 38 -8q39 -20 39 -47t-34 -70q-33 -39 -68 -104q-117 -219 -178 -281q-63 -63 -99 -63q-18 0 -36 12q-23 16 -41 17 q-16 0 -45 35.5t-50 80.5q-27 57 -112 162q-84 102 -96 145q-6 23 -7 43zM182 633l39 -49q16 -20 40 -48t40 -49.5t33 -52.5q14 -29 41.5 -56.5t40.5 -27.5l4 2q6 6 57 98.5t70 129.5l26 55l-55 76q-20 28 -86 118q-31 39 -39 39t-51 -55q-45 -61 -102 -119z" />
<glyph unicode="b" horiz-adv-x="1339" d="M16 696q0 55 15 135q20 117 24 162q6 68 24.5 95.5t70.5 41.5q33 8 40 9q14 0 37 -13q31 -14 39 -28.5t68 -46.5q260 -152 319 -193l41 -27l21 27q18 25 49 80q57 100 199 164q91 41 116 72q29 33 51 32q20 0 49 -30.5t31 -53.5q2 -6 3 -26.5t1 -28.5q4 -57 91 -276 q20 -57 20 -71.5t-26.5 -38.5t-43.5 -24q-12 0 -67 -65q-49 -63 -205 -219l-149 -152l-54 6q-33 4 -37 4q-20 0 -34 -22q-18 -25 -43 -25q-27 0 -107 25q-86 27 -211 106q-170 111 -178 115q-61 35 -86 63.5t-25 65.5q0 43 -22 62q-20 18 -21 75zM156 752q0 -16 8 -37 q14 -27 8 -56q0 -2 -1 -7t-1 -7q0 -55 94 -106q43 -20 150 -88q135 -88 192 -105q10 -4 15.5 -3t6.5 5t1 17q0 33 -17 98q-10 39 -34 176l-19 104l-78 50q-80 44 -133 79q-92 59 -108 60q-10 0 -31 -10q-23 -12 -30 -26.5t-15 -72.5q-8 -66 -8 -71zM408 20q0 11 4 27 q18 57 94 57q2 0 10 -1t12 -1q207 -20 256 -47q31 -14 31 -51q0 -55 -57 -78q-18 -6 -92 -6h-43q-215 10 -215 100zM711 649q0 -23 28 -166q20 -114 37 -114q14 0 98 94q147 164 197 213l94 98l-35 96q-36 97 -36 111q0 23 -33 2l-78 -39q-61 -27 -94 -76q-66 -96 -107 -96 q-12 0 -17 -1t-7 -6t2 -13q10 -23 -23 -52q-27 -31 -26 -51z" />
<glyph unicode="c" horiz-adv-x="1601" d="M16 700v168l27 6q27 8 55 -6q31 -14 156 -22q131 -6 156 -23q37 -20 39 -4q0 12 24 45q29 33 72 119q45 90 112 158q66 70 66 84q0 20 18 43q16 25 39 24q33 0 76 -51q41 -51 155.5 -175t145.5 -148q20 -16 21 -46q0 -18 4 -22t24 0q27 6 115 14q23 2 55 2q43 0 80 -18 q53 -23 66 -23q10 0 41 -22q25 -18 24 -39q0 -4 -4 -33q-8 -53 -8 -139q-2 -74 -9 -93.5t-38 -23.5q-27 -2 -45 -55q-16 -45 -30.5 -57.5t-49.5 -12.5t-90 -49q-33 -29 -82 -60.5t-62 -39.5q-20 -14 -77 -35q-53 -20 -99 -66l-47 -45h-86q-150 0 -285 68q-170 84 -210 84 q-8 0 -17 -4q-12 -13 -51 -13h-1q-39 0 -90 43q-52 43 -52 76q0 61 86 62q39 0 157.5 -38t206.5 -79q141 -68 234 -72q14 0 14 4l-23 27q-29 33 -51 33q-51 0 -123 143q-74 152 -104.5 205t-79.5 115l-20 26l-17 -22q-16 -23 -39 -23q-20 0 -36.5 14.5t-139.5 16.5 q-82 0 -100.5 -3t-18.5 -18q0 -16 26 -83.5t48 -112.5q20 -39 21 -66q0 -20 -13 -37q-16 -23 -45 -22q-39 0 -61 43q-8 18 -20.5 39.5t-16.5 31t-10 27t-8.5 39t-3.5 55t-1 86.5zM616 799q0 -25 19 -51q14 -23 14 -37q0 -12 45 -95q57 -106 78 -153q27 -70 51 -80 q12 -6 21 -6q14 0 30 53q2 4 3 8q20 55 63 162t59 145l39 105l-120 121q-119 119 -130 119q-20 0 -96 -129.5t-76 -161.5zM952 246q8 0 48 25.5t65 45.5q35 29 92 99q115 137 229 200q37 18 46.5 30.5t9.5 35.5q0 20 -6 29.5t-29 17.5q-31 10 -45 10q-25 0 -207 -37 q-16 -2 -30.5 -23.5t-47.5 -90.5q-27 -61 -58.5 -142t-51 -140.5t-15.5 -59.5z" />
<glyph unicode="d" horiz-adv-x="1306" d="M16 180q0 27 35 62q33 33 53 32q8 0 15 -2h10q45 0 127 27q88 27 116.5 49.5t137.5 147.5q55 65 88 75q37 10 61 11q57 0 138 -62q25 -20 262 -184l57 -39l25 27q25 25 49 24q20 0 41 -16q18 -16 18 -41q0 -20 -16 -70q-29 -92 -98 -92q-20 0 -167 91t-266 179 q-39 29 -55 29h-2q-14 -8 -76 -86q-63 -82 -117.5 -115.5t-168.5 -66.5q-141 -39 -191 -39q-37 0 -55 18q-20 20 -21 41zM80 426q0 39 2 68q8 133 36.5 225t69.5 121q49 35 218 311q98 161 141 192q41 29 76 29q45 0 125 -39q86 -39 163 -125q233 -248 234 -280 q0 -23 31 -47q32 -25 32 -44.5t37 -131.5q35 -109 43 -181q2 -18 2 -41q0 -29 -18 -47q-23 -23 -51 -22q-31 0 -54 26q-18 27 -26 82q-2 23 -31 128.5t-29 144.5q0 31 -4 41t-20 14q-18 4 -63.5 49t-166.5 180q-80 90 -131 111q-53 27 -65.5 27t-145.5 -201 q-131 -197 -176 -238q-29 -23 -39 -41t-18 -61q-14 -68 -23 -180q-8 -119 -26 -142q-20 -27 -49 -26q-31 0 -54 30q-20 23 -20 68zM479 6q1 48 17 68q10 16 32.5 19t126.5 3q100 0 125 -3t39 -17q16 -16 17 -41q0 -35 -29 -55q-18 -14 -121.5 -26.5t-114.5 -16.5 q-18 -6 -30 -7q-61 0 -62 76z" />
<glyph unicode="e" horiz-adv-x="1636" d="M16 248q0 37 15 49q10 10 82 22q82 12 106.5 20.5t59.5 35.5q127 102 141 102t87 51.5t89 73.5q27 37 58.5 111.5t43.5 126.5q16 68 35 100q8 16 22.5 64.5t32.5 68.5q23 27 60 27q29 0 47 -19q29 -31 38.5 -92t37.5 -397q16 -180 33 -203l18 -29h233q227 0 285 -20 q82 -31 82 -76q0 -23 -27 -49q-23 -20 -45 -20q-16 0 -26 2q-74 12 -383 12q-211 0 -236 -8q-31 -10 -350 -21q-283 -6 -408 -16q-29 -2 -63.5 -2t-50.5 20q-16 27 -17 66zM467 330h172q178 0 188 8q8 6 9 39q0 45 -9 143l-14 174l-51 -96q-45 -84 -82 -123t-125 -92z" />
<glyph unicode="f" horiz-adv-x="1654" d="M16 297q0 37 51.5 45t270.5 8h276l4 363q4 291 12.5 352t51.5 92q18 12 55 12q39 0 82 -12q16 -4 28.5 -38t12.5 -70q0 -70 82 -248q57 -125 238 -256q47 -35 77.5 -47.5t153.5 -46.5l102 -29l29 22q31 23 41 23q18 0 37.5 -23.5t19.5 -46.5q0 -35 -28.5 -99.5 t-48.5 -74.5q-16 -8 -62 -8q-125 0 -203 33q-55 22 -125 22h-6q-98 0 -200 -37l-93 -30h-391q-262 0 -331.5 3t-94.5 15q-37 16 -39 58q0 4 -1 10t-1 8zM760 348l63 6q41 4 114 29t105 29l52 6l-52 43q-104 88 -145 135t-76 117q-45 100 -51 100q-4 0 -8 -229z" />
<glyph unicode="g" horiz-adv-x="1277" d="M16 651q0 70 36 183.5t81 185.5q8 16 21.5 37.5t28 44t20.5 31.5q35 53 87 106t78.5 61.5t71.5 8.5q129 0 267 -74q59 -35 81 -61q21 -23 21 -54v-6q0 -41 6 -74q2 -10 2 -26q0 -20 -20 -35q-23 -16 -72 -16q-33 0 -48 -8.5t-50 -45.5q-51 -53 -52 -94q0 -78 113 -110 q86 -27 133 -27q66 0 125 80q68 86 103 86q12 0 28 -10q27 -16 33 -9q6 10 33 11q35 0 61 -17q59 -41 60 -188q0 -109 -33 -228q-43 -168 -150 -292q-45 -53 -82.5 -80t-105.5 -49q-53 -20 -115 -21q-47 0 -82 2q-207 10 -307 74q-27 18 -103.5 119.5t-80.5 107.5 q-25 29 -80 132.5t-72 125.5q-25 35 -31 56.5t-6 72.5zM164 659q0 -35 33 -84q16 -25 60 -107.5t69 -113.5q63 -84 80 -110q41 -63 73.5 -85t112.5 -36q74 -14 135 -14q78 0 168 32q20 8 77.5 77t80.5 112q25 49 43 136t18 150q0 59 -16 66q-18 8 -19 4l-6 -8 q-6 -8 -16 -20.5t-21 -24.5q-80 -102 -215 -103q-53 0 -135 21q-203 51 -248 174q-10 31 -10 84q0 66 14 104q16 35 72.5 96.5t91.5 80.5l39 18l-43 20q-31 14 -117 23l-73 4l-41 -45q-31 -35 -65 -94.5t-48 -79.5q-29 -41 -61.5 -138.5t-32.5 -138.5z" />
<glyph unicode="h" horiz-adv-x="1216" d="M16 508q0 74 35 334q12 102 43 200q25 80 25 103q0 14 33.5 55t52.5 49q12 4 18 4q20 0 38 -12t22 -31q2 -4 2 -18q0 -37 -12.5 -82t-12.5 -82q0 -18 2 -24q8 -35 49 -91.5t72 -70.5q35 -18 119 -39t123 -21q31 0 44 8.5t42 38.5q43 47 63 89l23 47l-23 118 q-16 92 -16 126q0 45 28 65q25 16 39 16q16 0 40 -17.5t24 -31.5t10 -14q12 0 52 -66.5t75 -142.5q39 -90 78 -174q41 -88 63 -232q37 -211 37 -278q0 -47 -12 -68q-29 -53 -68 -53q-23 0 -45 18q-25 18 -28 119q-6 123 -33 256t-57 195q-31 59 -37 59q-2 0 -13 -14 q-16 -29 -69 -96q-92 -115 -215 -115q-74 0 -174 27q-162 39 -232 122l-37 43l-12 -71q-8 -47 -8 -152q0 -164 18 -225q8 -31 14.5 -40t18.5 -9t21 2q8 0 26.5 4t44 10t39.5 8q68 16 338 19q66 2 154 2q113 0 143 -17q51 -27 51 -67q0 -33 -33 -53q-20 -12 -57 -13 q-27 0 -45 2q-25 2 -100 2q-129 0 -282 -9t-183 -21q-39 -16 -121 -17q-78 0 -100.5 16.5t-36 41t-29.5 88.5q-29 109 -29 180z" />
<glyph unicode="i" horiz-adv-x="1234" d="M16 174q0 25 9 35q18 31 81 31q18 0 29 -2q12 -2 33 -2q25 0 70 28q49 31 71 72q23 39 49.5 137t36.5 180q8 70 27 164q25 139 45 395q7 72 25 95q20 25 55 24q49 0 69 -39q6 -10 27 -118q53 -305 188 -596q74 -162 98.5 -207t61.5 -86q35 -37 50.5 -44.5t64.5 -7.5 q72 0 93.5 -16t21.5 -74q0 -55 -33 -90q-30 -30 -60 -30h-2q-4 0 -13 1t-15 1q-59 6 -94 32q-27 20 -47.5 24.5t-100.5 4.5q-111 0 -199 -23q-82 -23 -237 -24q-102 0 -130 3t-50 19q-29 25 -58 25q-27 0 -82 16.5t-69 26.5q-14 12 -15 45zM395.5 200.5 q-0.5 -10.5 53.5 -10.5q96 0 190 23q72 20 135 20q57 0 53 11q-169 344 -206 450q-37 104 -41 109l-2 2q-8 0 -33 -160q-23 -154 -61 -272.5t-70 -147.5q-18 -14 -18.5 -24.5z" />
<glyph unicode="j" horiz-adv-x="1073" d="M16 668q0 102 11 147q31 141 82 234.5t98 93.5q28 0 57 14q20 10 33 10q18 0 53 -28q16 -16 57.5 -20.5t213.5 -8.5q88 -2 126.5 -3t85 -6t59.5 -9.5t35.5 -20.5t31 -29.5t26.5 -46.5q49 -84 62 -114q12 -37 12 -109q0 -92 -27 -299q-23 -152 -42 -214t-72 -146 q-41 -66 -72 -97.5t-84 -58.5q-59 -29 -168 -37q-23 -2 -62 -2q-133 0 -231 64q-90 59 -188 231q-57 98 -73.5 162.5t-21.5 212.5q-2 29 -2 80zM164 600q0 -111 14 -166q14 -61 64.5 -151t91.5 -133q47 -49 82 -63.5t110 -14.5h27q119 2 161 29.5t107 144.5q27 49 37 92 t29 170q22 167 22 234v6q0 90 -41 153l-39 62l-245 2q-174 2 -216 7t-71 21q-41 23 -49 23q-10 0 -53 -133q-31 -96 -31 -283z" />
<glyph unicode="k" horiz-adv-x="1390" d="M16 860q0 37 45 76q47 39 109 72q88 45 166 94t94 72q20 31 53 30q29 0 47 -20q14 -14 19.5 -14.5t21.5 18.5q25 25 19 53q0 2 -1 6t-1 6q0 20 13.5 41t31.5 27q8 4 26 4q31 0 46 -20q10 -14 30.5 -14.5t50.5 -24.5q39 -31 95 -52q113 -45 276 -198q86 -84 111 -84 q12 0 28 10q12 6 27 6q31 0 45 -39q8 -16 8 -28.5t-14 -32.5q-20 -27 -53 -43q-29 -14 -37 -26.5t-8 -155.5q0 -102 -4.5 -126t-20.5 -34q-20 -16 -39 -17q-27 0 -98.5 43t-106.5 82q-49 53 -61 54q-27 0 -88 -203q-25 -78 -49.5 -106.5t-69.5 -28.5q-41 0 -88 52t-90 144 q-55 119 -80 119q-4 0 -8 -4q-18 -18 -76.5 -123.5t-73.5 -144.5q-16 -43 -27.5 -57.5t-35.5 -14.5h-15q-74 8 -90 205q-23 242 -90 321q-37 43 -37 76zM176 858q0 -8 21 -45q16 -31 39.5 -115t23.5 -116q0 -29 10 -29q12 0 27 29q12 27 68 98q55 76 65 125q20 76 25 84 q9 18 34 104q6 20 10.5 38t6.5 28l2 10q-2 0 -16 -18q-12 -14 -110.5 -72.5t-154.5 -85.5q-51 -23 -51 -35zM569 705q25 -14 78 -125q51 -109 68 -109q6 0 16 47q8 41 38 100.5t50 73.5q16 12 17 25q0 6 -11 57q-65 283 -90 328q-25 47 -39 47q-12 0 -18 -31 q-12 -55 -103 -278q-28 -68 -28 -99q0 -29 22 -36zM915 1020q0 -4 5 -16q8 -27 18 -109l12 -86q61 -59 180 -178l5 100l2 100l-88 84q-92 90 -113 101q-20 10 -21 4z" />
<glyph unicode="l" horiz-adv-x="1607" d="M16 662v217v55q0 119 8 162t31 59q10 8 25 8q45 0 61 -55q18 -59 61.5 -138t73.5 -106q80 -70 159 -95.5t274 -39.5q92 -8 170 -8q123 0 239 51q98 43 117 66q16 18 38.5 89.5t22.5 102.5q0 41 25 81t61 40q12 0 33 -10q25 -14 47 -15q4 0 9.5 1t7.5 1q4 0 9 1t7 1 q51 0 66 -104q4 -31 12 -68.5t11 -58t6 -60.5t3 -96q0 -117 -13 -174t-71 -180q-29 -63 -57.5 -99t-120.5 -128q-113 -113 -174 -152t-151 -55q-123 -23 -271 -23q-68 0 -108 7q-59 10 -159.5 57t-176.5 100q-92 66 -134 138.5t-96 265.5zM135 743q0 -61 27 -141 q4 -12 59 -172q33 -94 62.5 -136t97.5 -89q104 -68 186 -96.5t183 -28.5q45 0 67 2q162 10 228.5 39t177.5 139q76 74 101.5 107.5t61.5 109.5l52 111l4 151q2 27 2 72q0 82 -8 90q-10 10 -17 -12q0 -2 -2 -6q-12 -49 -44 -102.5t-62 -73.5q-57 -37 -156 -78 q-76 -33 -111.5 -42t-105.5 -14q-6 0 -21.5 -1t-25.5 -1q-238 0 -420 39q-158 33 -268 135l-68 62v-64z" />
<glyph unicode="m" horiz-adv-x="1210" d="M16 233q0 137 70 304q135 311 299 395q45 23 111 37q55 12 114 12q100 0 166 -31q55 -25 133 -103.5t125 -154.5q23 -41 78 -121q57 -82 76 -204q8 -43 8 -68q0 -20 -12 -39q-18 -27 -51 -27q-74 0 -95 119q-12 74 -26 97q-133 213 -201 282q-55 59 -93 82t-87 23 q-37 0 -109 -17q-88 -20 -150.5 -86.5t-131.5 -216.5q-88 -182 -88 -266q0 -16 8 -17q6 0 51 33q152 113 217.5 142.5t163.5 33.5h31q115 0 212 -48t213.5 -158.5t116.5 -151.5q0 -23 -18 -43q-25 -31 -60 -31q-51 0 -98 66q-35 49 -98 104q-129 117 -279 117 q-74 0 -131 -29q-96 -45 -250 -149q-35 -20 -47 -21q-18 0 -47 23q-29 25 -55 20h-10q-55 0 -56 92z" />
<glyph unicode="n" horiz-adv-x="1230" d="M16 106q0 33 35 103q29 59 152 342q43 92 96 227q123 324 178 363q34 22 63 22h3q29 0 55 -22q14 -14 83 -126t103 -179q12 -20 68 -101q203 -272 221 -397q6 -47 76 -119t70 -108q0 -23 -29 -45.5t-47 -22.5q-31 0 -125 96q-74 78 -126 111t-138 59q-60 19 -118 19h-4 q-59 0 -212 -19q-78 -8 -141 -51q-47 -33 -87 -81t-51 -85q-12 -35 -37 -47q-16 -10 -26 -10q-8 0 -31 16q-31 25 -31 55zM328 444l45 9q10 2 51 6t59 8q72 10 133 10q104 0 166 -20q68 -23 78 -23q2 0 2 4q0 37 -123 203q-68 93 -127 193q-63 111 -71 114h-2 q-6 0 -16.5 -18.5t-22 -49t-13.5 -32.5q-18 -43 -41 -103q-4 -14 -54 -127.5t-56 -144.5z" />
<glyph unicode="o" horiz-adv-x="987" d="M16 733q0 6 4 43q8 68 16.5 85.5t53.5 51.5q96 72 201 93q59 12 108 45q39 27 70 43q16 6 35 6q51 0 65 -29q18 -39 174 -119l70 -34l41 26q39 29 66 29q20 0 36.5 -21.5t16.5 -44.5q0 -2 -1 -6t-1 -6q-6 -23 -87 -98.5t-169 -141.5q-84 -61 -84 -86q0 -10 2 -18 q12 -70 12 -92.5t-18 -46.5q-23 -29 -49 -29q-25 0 -54 23q-57 47 -141 101t-137 77q-174 76 -211 108q-18 18 -19 41zM174 766l66 -29q145 -68 204 -106l39 -27l23 35q33 43 110 106l89 72l-31 17q-6 4 -23.5 13t-43 23.5t-44 24.5t-41 22.5t-35.5 18.5l-10 6 q-37 -37 -135 -72q-131 -37 -154 -75z" />
<glyph unicode="p" horiz-adv-x="1146" d="M16 975q0 29 51.5 80t120 101t103.5 61q41 14 119 20q117 10 168 10q104 0 202 -37q33 -12 90.5 -31.5t67.5 -23.5q61 -18 89 -35.5t63 -62.5q43 -55 43 -86q0 -29 -35 -60q-25 -23 -69 -39t-68 -38q-25 -25 -32 -47.5t-16 -114.5q-18 -213 -18 -299q0 -51 6 -58 q12 -6 12 -30q0 -39 -26 -82q-39 -61 -107 -62q-12 0 -41 4q-61 8 -178 9q-84 2 -107.5 6t-39.5 18q-20 20 -25 53q-10 102 -74 267q-70 184 -89 223t-76 113q-51 66 -91 84q-43 18 -43 57zM205 1004l67 -86q94 -123 170 -334q57 -164 58 -238v-43l133 -2h133l-6 143 q-2 20 -2 68q0 106 12 222t27 145q10 18 69 69l58 53l-62 21q-127 47 -137 51q-66 25 -145 25q-63 0 -154 -8q-117 -10 -193 -66z" />
<glyph unicode="q" horiz-adv-x="1540" d="M16 510v162l21 -27q59 -72 106 -266q31 -127 60 -154q20 -16 25 -17t22 13q41 35 115 158q23 37 81 110.5t93 106.5q31 31 65.5 31t46.5 -29q12 -25 31 -14q16 10 33 10q27 0 92 -43q51 -35 82 -67.5t98 -123.5q117 -154 143 -153h3q12 8 34 67q18 49 63.5 153.5 t63.5 154.5q33 86 64 120q31 31 31 37q0 8 -28 166t-30 162h-4q-29 0 -171 -29.5t-179 -44.5q-79 -30 -195 -30h-8q-53 0 -104 10q-207 39 -375 162q-45 33 -49 28q-2 -2 -33 -94q-39 -123 -137 -317q-14 -25 -37 -29h-8q-10 0 -12.5 16.5t-2.5 83.5q0 104 21 144 q31 68 55 141q20 61 35.5 89.5t42.5 55.5q47 47 84 47q39 0 117 -53q61 -41 188 -92q106 -39 254 -39q59 0 86 8q184 53 289 72q84 16 106.5 24.5t40.5 28.5q23 29 43 29q10 0 17 -2q49 -12 71 -16q35 -8 47.5 -22.5t12.5 -49.5t-27 -55l-29 -23l23 -139q25 -160 31 -217 q2 -20 2 -47q0 -37 -21 -64q-23 -29 -43 -29q-18 0 -47 -86q-33 -100 -57 -145q-27 -49 -37 -86q-16 -47 -100 -221q-16 -29 -62 -29q-20 0 -41 6q-57 16 -108.5 65.5t-126.5 157.5q-63 90 -92 121t-68 56q-63 39 -64 51q0 14 -8 14q-20 0 -90 -88q-55 -70 -86 -125 q-29 -59 -129 -168q-55 -59 -55 -83.5t-18.5 -43t-43.5 -18.5q-18 0 -28 8q-37 25 -37 80q0 29 -16.5 29t-51.5 34q-80 80 -80 367z" />
<glyph unicode="r" horiz-adv-x="1697" d="M16 315q0 236 13 260q53 104 167.5 243.5t182.5 182.5q47 31 129 99q92 76 190.5 136t151.5 73q56 14 154 22q123 10 172 10q92 0 247 -51q131 -43 166 -59.5t68 -44.5q29 -27 29 -58q0 -29 -23 -49t-53 -20q-29 0 -54 18q-33 25 -182 72t-194 47q-53 0 -60 -10 q-2 -2 -2 -27q0 -68 11.5 -219.5t23.5 -218.5q14 -78 18 -281l3 -182l215 -10q158 -8 190.5 -14t48.5 -25q23 -27 23 -55q0 -27 -18.5 -45.5t-63.5 -18.5q-8 0 -99 4q-115 6 -192 6q-135 0 -285 -20q-129 -18 -340 -19h-98q-295 2 -405.5 17.5t-110.5 56.5q0 10 -12 10 q-10 0 -11 170zM86 215l127 -6q102 -4 195 -4q630 0 630 43q0 53 -15 264t-24 240q-8 37 -17 189.5t-11 172.5q-4 35 -9.5 47.5t-23.5 12.5t-51 -9q-31 -8 -115 -58t-133 -91q-63 -53 -141 -111q-145 -109 -275 -297q-125 -188 -133 -313z" />
<glyph unicode="s" horiz-adv-x="1382" d="M16 1022q0 45 41 235q18 92 29 122t29 46q27 20 47 21q12 0 20 -2q37 -8 53.5 -20.5t79.5 -20.5q59 -6 131 -39q61 -31 105 -31q33 0 54.5 -17.5t21.5 -43.5q0 -23 18 -23q16 0 43 21q25 20 47 20q18 0 157.5 -139t197.5 -213q137 -180 167 -219q106 -133 111 -234v-16 q0 -51 -10 -119q-12 -70 -21 -203q-4 -78 -10 -99t-22 -36q-27 -20 -50 -20q-41 0 -127 61q-88 61 -120 78q-240 115 -260 115q-41 0 -95 82q-125 197 -422 364q-145 82 -172.5 102.5t-29.5 53.5v16q0 29 18 45q20 20 41 21q23 0 51 -29q43 -39 148 -92q236 -119 327 -215 l48 -49l-7 39q-27 170 -55 534l-8 86l-47 -6q-4 0 -11.5 -1t-9.5 -1q-35 0 -106 35q-78 39 -152 41l-73 2l-29 -131q-29 -133 -41 -156q-18 -33 -53 -33q-41 0 -50 37q-4 16 -4 31zM729 1108q0 -2 2 -19.5t9.5 -82t17.5 -156.5q25 -231 45 -336q6 -29 13 -74t9 -53 q4 -23 17.5 -35t60.5 -33q37 -16 75 -31.5t66.5 -28.5t71.5 -38q66 -35 76 -35l4 2q8 10 17.5 67.5t17.5 121t10 76.5q6 20 6 32q0 18 -39 78q-41 63 -89 120.5t-91 115.5q-112 145 -139 174q-133 141 -156 141h-2q0 -2 -2 -4v-2z" />
<glyph unicode="t" horiz-adv-x="1019" d="M16 1112q0 39 20.5 57.5t20.5 59.5q0 38 27 65q25 25 43 25q14 0 63 -16q39 -14 46.5 -22.5t7.5 -43.5q0 -31 11 -53.5t56 -77.5q61 -74 112.5 -103.5t117.5 -29.5q70 0 112.5 32.5t102.5 131.5q43 72 71 104q29 29 58 29q25 0 42 -19.5t17 -50.5q0 -35 31 -49 q33 -16 33 -59q0 -51 -50 -211q-45 -143 -60 -205t-42 -219q-27 -160 -59 -260q-31 -106 -31 -144q0 -33 -20.5 -57.5t-45.5 -24.5q-76 0 -309 379q-61 98 -202.5 369.5t-141.5 290.5q0 10 -16 43q-14 27 -15 59zM174 1042q0 -12 128 -254.5t179 -330.5q158 -260 168 -260 q18 0 74 344q25 164 90 372l16 54l-53 -49q-59 -57 -104 -75t-127 -18q-61 0 -88 5t-70 28q-18 8 -32.5 15.5t-29 17.5t-22.5 16t-21.5 20.5t-17.5 19.5t-21.5 25.5t-23.5 26.5q-41 45 -45 45v-2z" />
<glyph unicode="u" horiz-adv-x="1284" d="M14 279q0 2 1 7t1 9q2 39 29 53q23 10 32 25.5t17 56.5t45 103.5t89.5 137t72.5 111.5q51 85 125 142q55 43 74.5 51t68.5 8h23q33 0 61.5 -16.5t177.5 -114.5q94 -61 127 -96q35 -39 70 -60q20 -12 60 -41.5t83 -50.5q74 -39 84 -51q14 -14 15 -39q0 -39 -33 -61 q-23 -16 -35 -17q-10 0 -47 13l-53 16v-39q0 -115 -215 -309q-51 -47 -101 -109q-55 -70 -81 -78q-20 -4 -37 -4q-80 0 -168 41q-18 8 -81 38t-93.5 45.5t-76.5 44t-81 57.5q-74 61 -119 86q-35 20 -35 41zM195 332q0 -8 48 -48t103 -77q29 -18 140.5 -69.5t138.5 -57.5h6 q20 0 44.5 19.5t24.5 35.5q0 10 42 54t94 85q45 37 93 99.5t48 85.5q0 25 14 47q10 14 10 18q0 6 -38 37q-43 29 -99 80q-43 39 -113.5 89t-97.5 58.5t-41 26.5q-18 20 -41 21q-14 0 -30 -11q-63 -35 -119 -131q-18 -33 -78.5 -123t-83.5 -131q-39 -70 -49 -80 q-16 -20 -16 -28zM199 -117q0 27 16 43q23 23 49 23q31 0 55 -31q68 -74 299 -74q96 0 124 3t40 18q14 14 80 51q53 29 88 70q29 39 62 39q27 0 45 -29q10 -16 10 -35q0 -31 -41 -92q-37 -53 -98 -86q-35 -18 -57.5 -35.5t-27.5 -25t-28.5 -13.5t-62.5 -7t-127 -1 q-154 0 -222.5 12.5t-123.5 48.5q-80 55 -80 121z" />
<glyph unicode="v" horiz-adv-x="1011" d="M16 1096q0 8 4 61q6 68 20.5 96.5t47.5 38.5q4 2 14 2q25 0 48 -18q4 -4 79 -4q94 0 158 2q131 4 150 4q86 0 127 -14q45 -16 133 -25q147 -18 188 -59q12 -12 12 -41q0 -41 -20 -84q-6 -10 -13.5 -28.5t-15.5 -41t-12 -33.5q-78 -188 -117 -321q-25 -86 -88 -269 q-37 -109 -37 -131q0 -14 13 -34q14 -23 14 -35q0 -8 -12 -27q-15 -26 -57 -26h-3q-72 0 -90 84q-8 31 -33 30q-49 0 -84 109q-47 137 -102 211q-39 51 -97.5 144t-58.5 103.5t-61 94.5q-63 92 -86 133q-20 43 -21 78zM162 1106q0 -10 55 -96q68 -100 98.5 -157.5t90 -141.5 t79.5 -117q47 -70 47 -82t35 -33l35 -20l23 55q14 35 39 117q20 78 56 182.5t46 114.5q8 10 29.5 74.5t21.5 78.5q0 9 -41 9q-29 0 -120 20t-128 20h-8q-6 0 -49 -1t-92 -3t-100.5 -4t-84 -6t-32.5 -10z" />
<glyph unicode="w" horiz-adv-x="1169" d="M16 584v24l2 76l117 156q135 184 180 252q125 188 172 188q23 0 23 6q0 10 -40 63.5t-48 53.5t-47 -80q-84 -160 -137 -160q-23 0 -43.5 20.5t-20.5 41t29 78.5q35 63 59 120q23 53 41 75t55 40q29 16 78 16q43 0 69.5 -20.5t82.5 -93.5q49 -63 102 -92q49 -27 105 -97 q63 -86 63 -121q0 -16 -6 -30q-4 -16 -4 -19q0 -16 53 -53q27 -18 58.5 -47t51 -51.5t53.5 -60.5t46 -52q45 -51 45 -84q0 -31 -15.5 -53.5t-37.5 -22.5q-16 0 -43 -34q-25 -35 -131.5 -131.5t-157.5 -131.5l-100 -71l-49 -37l94 6q23 2 59 2q41 0 58.5 -9t25.5 -34 q6 -12 6 -24q0 -37 -44 -60.5t-113 -23.5q-68 0 -138 -17q-59 -14 -110 -14q-76 0 -99 35q-8 10 -8 32q0 37 21 58q16 16 71.5 22t65.5 8q14 4 14 9q0 6 -55 28q-39 16 -118 72.5t-124 73.5q-133 49 -194 102q-16 14 -17 66zM158 623q0 -12 104 -62q119 -55 176 -98 q72 -53 104.5 -53t110.5 53q88 59 194.5 159.5t106.5 125.5q0 23 -59.5 86t-120.5 104q-121 74 -227 158l-35 24l-76 -112q-59 -92 -131 -193q-59 -84 -59 -102q0 -16 -22.5 -42t-37.5 -26q-10 0 -24 -14q-4 -4 -4 -8z" />
<glyph unicode="x" horiz-adv-x="1234" d="M16 1421q1 34 19 52q14 16 41 16q33 0 53 -21q16 -16 55 -20t226 -10q291 -8 397 -33t106 -84v-18.5t-4 -13.5t-14 -11t-27.5 -4t-46.5 -2q-72 0 -426 22q-231 14 -304 39t-75 88zM88 1192q0 32 23 55q20 20 41 21q31 0 81 -54q41 -41 177 -151q119 -96 129 -113h2 q12 0 39 58q23 47 90 153q59 90 90 90q14 0 39 -20q16 -16 16 -37q0 -33 -49 -133q-59 -121 -80 -176l-27 -70l62 -104q59 -104 113 -203q51 -94 104 -152q49 -55 49 -86q0 -23 14 -22l37 4q47 6 78 36.5t47 30.5q23 0 40.5 -20t17.5 -49q0 -41 -36 -76t-95 -55 q-129 -43 -347 -43q-104 0 -172 2l-305 6l-41 45q-45 53 -45 82q0 23 31 76q33 53 55 75q16 14 73.5 113.5t78.5 149.5q27 66 49 114l25 56l-66 65q-59 59 -169 156.5t-140 118.5q-29 18 -29 57zM334 227q0 -4 270 -4h270l-38 43q-66 76 -185 283q-59 102 -63 102 q-10 0 -43 -78q-80 -184 -174 -297q-37 -45 -37 -49z" />
<glyph unicode="y" horiz-adv-x="1013" d="M16 1124q0 64 41 82q20 8 27 8q10 0 72 -40q106 -72 325 -111q80 -14 131 -14q47 0 93 14q57 16 100 16q49 0 74 27q27 27 61 27q29 0 45 -19q14 -16 14 -45q0 -92 -135 -227q-41 -41 -67.5 -83t-77.5 -151q-90 -186 -90 -266q0 -39 12 -92q16 -82 27 -184 q10 -115 26 -144q12 -25 13 -51q0 -39 -21.5 -69.5t-52.5 -30.5q-53 0 -79 63.5t-36 231.5q-12 174 -19 217t-28 45q-20 4 -43 26q-35 39 -242 422q-78 143 -116 182q-31 33 -39 51.5t-13 69.5q-2 16 -2 45zM258 961q0 -4 121 -234q102 -188 106 -190t11 -2q35 0 102 153 q72 154 90 178l27 39h-115q-174 4 -328 53q-12 4 -12 5q-2 0 -2 -2z" />
<glyph unicode="z" horiz-adv-x="1443" d="M16 301q0 35 91.5 214t152.5 263q96 137 180 332q10 18 22.5 22.5t55.5 6.5h23q49 0 71 -23q23 -20 23 -32.5t-8.5 -35t-8.5 -59.5q0 -66 29 -207q20 -106 35 -360l2 -39l51 70q16 25 71.5 112.5t96.5 145t88 110.5q182 205 228 301l20 49l-39 54q-176 223 -182 223 t-47 -59q-78 -109 -201 -207q-63 -51 -108 -52q-27 0 -48 19q-20 20 -20 51q0 37 24 53q104 74 149.5 117t104.5 127q37 51 117 96q23 12 45 13q31 0 62 -15q33 -14 41 -49q4 -25 39.5 -73t156.5 -191q96 -119 97 -156q0 -23 -38 -64.5t-59 -41.5q-12 0 -79.5 -77t-67.5 -91 q0 -8 -19 -23q-88 -72 -358 -479q-78 -115 -135 -172q-72 -72 -107 -137q-70 -125 -118 -180.5t-89 -55.5q-31 0 -47 9q-27 16 -127 115.5t-120 127.5q-29 37 -29 76q0 35 33 47q8 4 24 4q37 0 82 -63q18 -27 92 -91.5t86 -64.5h2l60 111q55 102 94 141l37 37l-6 164 q-10 201 -37 415q-8 59 -17 66h-2q-10 0 -32 -51q-25 -55 -88 -139q-63 -82 -150 -256q-59 -119 -88 -160t-53 -41q-12 0 -27 8q-31 18 -31 45z" />
<glyph unicode="&#xa0;" />
<glyph unicode="&#xc1;" horiz-adv-x="761" d="M16 575l35 107q33 104 64 174l30 68l45 -9q25 -4 232 -12l184 -6l49 -76q92 -143 93 -174q0 -18 -41 -108q-41 -86 -68 -162q-70 -184 -86 -219t-45 -64l-41 -39l-129 140q-117 125 -264 311zM199 1016l26 51q41 82 82 195q6 16 19 16q18 0 51 -33q25 -25 82 -116 t57 -105q0 -8 -160 -8h-157zM338 657q0 -31 22 -47q20 -14 41 -14q29 0 50 27q16 16 16 41q0 27 -23 43q-14 12 -41 12q-31 0 -49 -19q-16 -20 -16 -43z" />
<glyph unicode="&#xc4;" horiz-adv-x="770" d="M16 561l50 98q47 94 84 140q90 111 176 282q51 99 59 107q16 16 27 14q16 -6 110 -204.5t146 -333.5q31 -84 61 -134q27 -41 27 -67q0 -31 -62 -172q-147 -340 -184 -340h-2q-16 4 -131 129q-115 123 -176 231q-59 104 -121 176zM262 -205q1 20 21 43q18 25 41 25 q20 0 82 -19q61 -20 110 -20q39 0 62 14q27 14 55 15q31 0 51.5 -16.5t20.5 -43.5q0 -39 -58.5 -73.5t-122.5 -34.5q-49 0 -139 27.5t-106 47.5q-16 18 -17 35zM381 498q0 -25 16.5 -49.5t36.5 -28.5q6 -2 17 -2q31 0 52 23.5t21 56.5q0 24 -16 51q-18 25 -47 24 q-25 0 -47.5 -16t-30.5 -45q-2 -4 -2 -14z" />
<glyph unicode="&#xc6;" horiz-adv-x="1345" d="M16 578q0 14 86 77q135 100 226 234q6 8 47 66.5t69 97.5q80 109 107 158t41 108q12 53 33 53q31 0 30 -86q0 -57 21 -135q31 -139 59 -334l6 -37l103 8q23 2 91.5 6.5t92.5 6.5q57 4 80 4q145 0 190 -39q33 -27 33 -61.5t-12 -43t-195 -12.5q-248 -6 -272 -6l-92 -2 v-135q0 -123 18 -211q12 -53 13 -102q0 -31 -2.5 -45.5t-2.5 -38.5q0 -35 7 -37q10 -6 10 -45q0 -35 -21.5 -60.5t-50.5 -25.5q-10 0 -14 2q-33 6 -49.5 20t-44.5 64q-25 47 -68 106q-88 127 -120 159t-132 97q-150 98 -207 131q-80 45 -80 58zM432 670q0 -35 21.5 -67 t48.5 -32q29 0 48 28t19 60t-18 50q-20 20 -55 20q-31 0 -47.5 -16.5t-16.5 -42.5z" />
<glyph unicode="&#xc9;" horiz-adv-x="1611" d="M16.5 358q1.5 2 14.5 2q63 2 217 142q72 66 99.5 99.5t60.5 98.5q57 107 77 134q23 33 52 32q20 0 47 -8q39 -12 127 -22q106 -12 121.5 -24.5t35.5 -104.5q27 -127 29 -158l4 -49l66 -4q276 -29 422 -33q139 -4 173.5 -14.5t34.5 -51.5q0 -94 -149 -94h-10 q-86 2 -245 15.5t-181 21.5q-31 10 -72 10q-49 0 -119 -16q-61 -14 -164 -15q-98 0 -159 -16q-59 -16 -142 -16q-72 0 -129 14q-55 16 -121 23q-72 8 -83 22q-8 10 -6.5 12zM520 616q0 -27 23.5 -51t50.5 -24q35 0 59.5 29.5t24.5 64.5q0 31 -23 47q-20 16 -49 16 q-23 0 -54.5 -30.5t-31.5 -51.5zM594 979l37 53q36 52 63 109q25 53 41 53q27 0 53 -147q10 -57 11 -78q0 -4 -6 -4q-31 0 -99 6z" />
<glyph unicode="&#xcb;" horiz-adv-x="1452" d="M16 254q0 39 54 63q49 23 148 115t132 146q31 49 92 135q39 53 112 192.5t112 235.5q18 47 30 47l13 -4q25 -12 37 -48t38 -184q41 -217 58 -284q16 -59 30 -144q2 -6 6.5 -33.5t6.5 -37.5l6 -31l176 6q201 8 252 18q43 8 63 9q18 0 35 -15q20 -18 21 -47q0 -43 -39 -69 q-37 -25 -140.5 -35t-570.5 -33q-330 -18 -330 -41q0 -6 131 -63q117 -51 166.5 -80t149.5 -107q174 -133 211 -205q20 -45 20 -57q0 -10 -16 -31q-18 -20 -39 -20q-41 0 -117 74q-209 195 -432 292q-389 172 -407 207q-8 20 -9 29zM530 526q0 -31 20.5 -50t47.5 -19 q29 0 49.5 20.5t20.5 44.5q0 29 -27 49q-31 23 -41 23q-18 0 -44 -24.5t-26 -43.5z" />
<glyph unicode="&#xcd;" horiz-adv-x="772" d="M16 -195q0 51 60 80q39 18 56.5 64.5t39.5 175.5q10 57 23.5 131t22.5 128t18 110q10 75 12 81l6 31l96 -6q98 -8 105 -14q2 -2 22 -76q18 -72 43 -117q25 -47 51 -184q27 -127 59 -195.5t107 -156.5q20 -27 20.5 -51.5t-16 -37t-71.5 -20.5q-8 -2 -37 -6t-56.5 -8 t-50.5 -6q-66 -8 -94 -9q-20 0 -106 9q-106 12 -152 12h-14h-8q-45 0 -83 13.5t-49 33.5q-4 6 -4 18zM272 764q0 27 29 170q29 156 35 156t35.5 -159t29.5 -188q0 -12 -67 -12h-21q-23 0 -32 6t-9 27zM356 -12q0 -23 13.5 -36t31.5 -13q27 0 45 26q12 18 12 26.5t-12 26.5 q-16 25 -40 25q-20 0 -35 -15.5t-15 -39.5z" />
<glyph unicode="&#xcf;" horiz-adv-x="925" d="M16 -176q0 39 109 123q61 43 84 71q23 27 104 195q55 113 74 162t31 123q12 61 60.5 233t56.5 213q8 43 16 43t29 -139q18 -133 32 -168q12 -31 23.5 -106.5t19.5 -102.5q8 -33 35 -195q16 -131 53 -206q27 -53 46.5 -73t54.5 -32q31 -8 53 -49q12 -23 12 -37 q0 -25 -61 -57q-31 -14 -199 -26.5t-325 -12.5q-111 0 -168 6q-139 14 -140 35zM428 61q0 -49 64 -79q41 -20 51 -20.5t32 22.5q20 23 21 57q0 36 -25 61q-27 27 -67 27q-35 0 -55.5 -20.5t-20.5 -47.5z" />
<glyph unicode="&#xd0;" horiz-adv-x="1183" d="M16 496q0 16 13 53q12 33 12 67v17q0 27 39 76q47 59 76 127q198 440 317 491q35 14 72 14q25 0 47 -8q31 -10 104.5 -80.5t143.5 -152.5q125 -141 135 -154q63 -68 90 -110q47 -68 61 -86q27 -35 33 -98.5t8 -364.5l2 -279l-26 -20q-20 -14 -35 -15q-10 0 -35 7 q-90 29 -166 133q-53 76 -119 141l-65 65l-51 -51q-41 -41 -164 -143q-113 -94 -123 -133q-25 -94 -82 -94q-29 0 -59 30q-27 31 -39 31t-26.5 36t-14.5 68q0 41 -33 101q-57 106 -102 274q-12 43 -13 58zM244 715q-10 -27 2 -27q4 0 8 4q6 6 2 25q-4 16 -10 2q-2 -2 -2 -4z M289 551q0 -37 41 -72q41 -31 76 -30q61 0 71 81q2 10 2 27q0 24 -20 51q-29 29 -66 35q-8 2 -20 2q-20 0 -51 -29q-33 -33 -33 -65zM481 -74q0 29 27 55.5t133 32.5q86 4 119 4q203 0 239 -47q14 -18 14.5 -38.5t-16.5 -41.5q-23 -23 -157 -26q-43 0 -120 -13.5t-106 -23.5 q-2 -2 -10 -2q-43 0 -100 53q-23 16 -23 47zM713 1010q0 -4 4 -4q6 0 6 4q0 6 -6 6q-4 0 -4 -6zM817 606q0 -37 25.5 -63.5t66.5 -26.5t62 27q35 41 35 98q-1 23 -11 33q-14 14 -69 22q-12 2 -31 2q-25 0 -49 -24q-29 -29 -29 -68z" />
<glyph unicode="&#xd3;" horiz-adv-x="1204" d="M16 678q0 33 33 51.5t39 38.5q8 27 86 107.5t150 138.5q71 59 190 143q98 68 129 68t80 -58q80 -96 192.5 -192t206.5 -150q45 -27 58 -43q10 -16 10 -43q0 -37 -16 -53q-12 -12 -20.5 -43t-71 -100.5t-119.5 -112.5q-63 -47 -134 -129q-68 -80 -98.5 -80t-112.5 70 q-76 68 -204 133q-123 63 -135 63q-8 0 -91 56q-84 57 -108 63q-63 16 -64 72zM524 756q0 -29 23.5 -48.5t54.5 -19.5q29 0 49.5 20.5t20.5 55.5q-1 29 -17 43q-25 23 -59 22q-31 0 -51.5 -19t-20.5 -54z" />
<glyph unicode="&#xd6;" horiz-adv-x="1435" d="M16 659q0 23 19.5 47.5t36.5 24.5q12 0 80 41q57 35 75 35q12 0 25 -6q18 -6 47 -6q70 0 260 43q236 51 528 61h33q84 0 115 -22q41 -27 80 -46q106 -57 106 -116q0 -33 -10 -47q-10 -16 0 -41q6 -16 6 -29q0 -78 -153 -168q-72 -39 -134 -100q-37 -41 -134 -116 t-136 -95q-16 -10 -84 -15q-61 0 -131 39q-164 86 -203 125q-25 23 -76 57.5t-61 34.5q-12 0 -88 54.5t-111 87.5q-47 43 -47 67q0 20 -22 39q-20 16 -21 51zM356 924q-4 4 15.5 19t60.5 42t96 57q80 45 131 88q37 32 68 52q29 14 55 8q29 -6 99.5 -48t111.5 -79l41 -35 l-47 -2q-252 -6 -547 -86q-59 -16 -80 -16h-4zM659 625q0 -27 11.5 -41.5t66.5 -57.5q57 -49 82 -49q8 0 8 12q0 33 21 56q25 31 25 77.5t-27 71.5q-27 27 -70 27q-45 0 -81 -27.5t-36 -68.5z" />
<glyph unicode="&#xda;" horiz-adv-x="1204" d="M16 629q0 14 18.5 36.5t31.5 22.5q27 0 221 182l55 54l92 -25q82 -20 166 -20q10 0 36 1t40 1q104 4 133 8t49 18q31 23 35 23q8 0 121 -125q117 -127 125 -127q23 0 37 -27.5t14 -62.5q0 -45 -22.5 -67.5t-39 -22.5t-163 -136.5t-185.5 -189.5q-68 -88 -123 -88 q-37 0 -88 41q-27 23 -78 60.5t-92 70.5t-77 68q-111 100 -132 114q-49 37 -111.5 105.5t-62.5 85.5zM369 -63q0 10 6 22q18 37 53 37q16 0 64 -14q55 -20 129 -25q6 0 17 -1t15 -1q37 0 86 39q47 39 72 39q18 0 39 -21q18 -18 18 -35q0 -25 -59 -81q-41 -41 -70.5 -56.5 t-74.5 -15.5q-41 0 -91 8q-96 14 -150 42t-54 63zM424 1018q0 16 39 67t74 78q57 43 81 43q29 0 82.5 -39t96.5 -90l47 -57l-205 -4q-131 -4 -166 -4h-23.5h-17.5l-6 2q-2 0 -2 4zM575 623q0 -51 27 -68q18 -14 70 -18h4q35 0 61.5 22.5t34.5 54.5q2 4 2 15q0 59 -43 98 q-27 20 -63 21q-25 0 -39 -9q-53 -29 -54 -116z" />
<glyph unicode="&#xdc;" horiz-adv-x="1187" d="M16 735q0 12 2 19q8 23 41 59q39 45 66 86q92 137 153.5 208t139.5 130q96 76 137 76q31 0 72 -45q59 -63 229 -232q150 -145 150 -159q0 -8 67 -39q66 -29 84 -56q16 -23 17 -51q0 -31 -22 -52.5t-56 -21.5q-33 0 -41 -24q-6 -23 -132 -133.5t-202 -157.5 q-49 -33 -73.5 -41t-59.5 -8q-53 0 -74 16q-14 12 -100 49q-82 33 -121 58.5t-105 89.5q-84 80 -108.5 96t-44 58t-19.5 75zM121 182q0 18 14 39q16 23 43 23q31 0 70 -27q43 -31 102 -33q14 0 85 -3t114 -5q86 -4 104 -4q61 0 91 10t67 41q45 43 80 43q31 0 49 -39 q8 -16 8 -37q0 -45 -44 -89t-111 -62q-57 -14 -129 -14q-57 0 -97 2q-211 8 -281.5 24.5t-127.5 69.5q-37 37 -37 61zM512 748q0 -51 33 -72q12 -8 45 -8q31 0 50 24.5t19 57.5q1 44 -32 77q-29 29 -41 29q-10 0 -37 -20q-37 -31 -37 -88z" />
<glyph unicode="&#xdd;" horiz-adv-x="1118" d="M16 1085q0 27 27 54q23 23 53 22q27 0 111 -18q51 -10 139 -10q94 0 287.5 11t226.5 13q128 4 144 14q14 10 38 11q27 0 44.5 -19.5t17.5 -52.5q0 -23 -20.5 -58.5t-32.5 -35.5q-10 0 -93 -123q-88 -137 -112 -164q-18 -23 -39 -49.5t-33 -47t-34.5 -57t-34.5 -55.5 l-43 -69v-312q-2 -221 -5.5 -271t-19.5 -71q-20 -27 -43 -26q-20 0 -41 18l-25 21l-4 333l-2 332l-65 55q-90 76 -199 222q-141 190 -199 254q-43 47 -43 79zM532 854q0 -18 11 -39q18 -29 71 -29q20 0 35 8.5t19 17.5t0 32q-9 41 -25 57q-18 18 -47 18.5t-45 -16.5 q-18 -18 -19 -49z" />
<glyph unicode="&#xde;" horiz-adv-x="1228" d="M16 1065q0 31 20.5 49.5t55.5 18.5q31 0 109 24q90 29 164 39q233 33 241 51q4 10 203 10q164 0 211 -8t82 -47q29 -29 55.5 -28.5t46.5 -14.5q10 -6 10 -12t-51 -41q-88 -57 -131 -133t-84 -252q-66 -270 -65 -434v-58l4 -155l-41 -21q-37 -18 -98 -18q-6 0 -26 1t-34 1 q-190 8 -213 31q-14 14 -37 104q-74 309 -138 461.5t-163 255.5q-78 80 -99.5 112.5t-21.5 63.5zM535 768q0 -78 65 -100q31 -10 49 -11q31 0 58 33q29 35 28 74q0 61 -51 102q-16 12 -37 13q-39 0 -75.5 -35t-36.5 -76z" />
<glyph unicode="&#xe1;" horiz-adv-x="638" d="M16 578q0 16 34 71t65 92q12 12 20 13q12 0 45 -13q139 -53 297 -53h86q10 -20 30.5 -64t31.5 -67l-45 -78q-33 -66 -96.5 -168t-75.5 -123q-61 -98 -91 -98q-8 0 -10 4q-10 12 -150.5 242.5t-140.5 241.5zM203 870q0 20 64.5 120t70.5 100t67.5 -119t61.5 -129 q0 -4 -33 -4q-51 0 -132 9t-97 19q-2 0 -2 4z" />
<glyph unicode="&#xe4;" horiz-adv-x="731" d="M16 545q0 20 37 92q47 90 124 270t83 215q6 31 16 62q12 41 27 41q31 0 176 -219q133 -197 189 -295l43 -76l-17 -49q-12 -39 -28 -140q-33 -219 -97 -368q-33 -80 -73 -80q-10 0 -17 6q-29 23 -172 219q-117 162 -215 236q-76 57 -76 86zM162 -90q-2 37 20.5 53.5 t36.5 16.5q20 0 90 -35q74 -37 109 -37q39 4 121 45q90 45 118 45q23 0 41.5 -18.5t18.5 -38.5q0 -53 -135 -121q-47 -23 -73 -29t-87.5 -6t-87 6t-86.5 37q-59 31 -70.5 42t-15.5 40z" />
<glyph unicode="&#xe6;" horiz-adv-x="1079" d="M16 543q0 14 10.5 34.5t96.5 84.5q76 59 126 128.5t58 127.5q14 110 43 147q29 33 60 33q29 0 49 -25q74 -78 98 -332l10 -84q182 0 330 -6h23q55 0 75 6q31 8 49 -10q20 -18 21 -43q0 -35 -37 -69q-25 -25 -37 -30t-49 -5h-43q-195 8 -201 8l-110 8v-37q0 -96 45 -119 q29 -12 29 -61q0 -23 -9 -39q-10 -23 -54 -47.5t-71 -24.5h-8q-31 8 -104 72q-76 63 -191.5 139t-144.5 80q-63 12 -64 64z" />
<glyph unicode="&#xe9;" horiz-adv-x="1531" d="M16 233q0 16 35 33q49 29 99 70q59 49 100 55q90 16 241.5 126.5t178.5 180.5q6 16 26.5 19.5t132.5 3.5h152l8 -33q45 -178 70 -235q20 -47 29.5 -55.5t41.5 -10.5q53 0 123 16q57 10 123 11q104 0 129 -19q12 -12 13 -39q0 -33 -17 -49q-12 -16 -39 -20 q-221 -43 -349 -56.5t-345 -13.5q-129 0 -209 2q-106 2 -252 2q-174 0 -205 -10q-33 -14 -59.5 -2t-26.5 24zM715 823q0 16 24 131q14 72 15 121q0 47 22.5 71.5t46.5 24.5q23 0 49 -20q47 -35 68 -233l6 -70l-84 -14q-106 -18 -117 -21q-8 -2 -20 -2q-10 0 -10 12z" />
<glyph unicode="&#xeb;" horiz-adv-x="1439" d="M16 252q0 23 13 47q16 31 94 59q141 53 229 139.5t144 227.5q45 106 100 375q16 84 43 104.5t39 20.5q14 0 37 -19q18 -16 28.5 -64t40.5 -268q12 -88 39 -240.5t35 -203.5q18 -115 33 -115h4q119 39 203 39q61 0 131 17q59 14 100 14q43 0 69.5 -20.5t26.5 -40.5 q0 -14 -16 -41q-18 -25 -55 -25q-20 -2 -108.5 -16.5t-137.5 -14.5q-82 0 -139 -24q-57 -20 -287 -29l-213 -8q252 -127 299 -162q76 -57 127 -127t51 -115q0 -20 -12 -32q-16 -12 -31 -13q-39 0 -96 70q-72 84 -190.5 157.5t-256.5 118.5q-119 39 -313 136q-31 14 -31 53z " />
<glyph unicode="&#xed;" horiz-adv-x="839" d="M16.5 -92q-0.5 6 32.5 39q29 27 70 102q31 68 45 76q27 16 55.5 148.5t28.5 236.5v35q-1 49 26 164l9 28h209l6 -35q2 -14 9 -82.5t15 -131t17 -76.5q78 -152 114 -191q16 -18 62.5 -84.5t72.5 -93.5q37 -37 37 -59q0 -18 -26 -52q-29 -31 -88 -30q-29 0 -74 10 q-35 8 -96 8q-139 0 -219 -35q-35 -16 -60 -16q-6 0 -26 4q-41 14 -125 21q-94 8 -94.5 14zM301 874l6 56q49 369 49 391q0 51 6 57q4 4 7 4q12 0 55 -120q29 -76 34 -111t5 -135v-142h-162z" />
<glyph unicode="&#xef;" horiz-adv-x="1112" d="M16 -41q0 23 23.5 51.5t54.5 42.5q43 20 65.5 49t49.5 93q31 74 70 137q72 109 104 235q16 59 42 253t36 331q12 145 18 190l8 48l13 -64q6 -43 38.5 -155.5t41.5 -157.5q8 -51 46 -198.5t48 -172.5q6 -12 26 -90q27 -104 74 -230t68 -149q23 -27 121 -70 q135 -59 135 -84q0 -14 -54 -14q-51 0 -172 -27q-123 -27 -280 -26h-88q-279 0 -314 2h-30q-43 0 -88 -4q-31 -6 -41 -6q-14 0 -15 16z" />
<glyph unicode="&#xf0;" horiz-adv-x="1310" d="M16 514q0 12 7 25q31 61 83 133q33 43 71 91t59.5 75.5t35.5 46.5q39 51 117 125q80 80 80 88t45 35q41 27 80 26q55 0 164 -76q193 -137 342 -204q29 -14 81 -60.5t93 -97.5q23 -29 22 -47q0 -31 -77 -115q-51 -53 -117 -131l-39 -49l-303 -6q-324 -8 -381 -17 q-23 -4 -139 -16l-66 -6l-70 57q-88 76 -88 123zM326 240q0 6 49 12q25 2 269.5 14.5t277.5 12.5h6q10 0 10 -9q0 -23 -55 -86q-63 -76 -64 -112q0 -33 -18.5 -55.5t-42.5 -22.5q-23 0 -41 20q-59 70 -107 86q-39 12 -147.5 63.5t-126.5 65.5q-10 6 -10 11z" />
<glyph unicode="&#xf3;" horiz-adv-x="1204" d="M16 387q0 6 13 12q55 35 124.5 94.5t102.5 96.5q24 31 190 203q141 145 146 145q2 0 123 -117q84 -84 154.5 -134t256.5 -165l64 -39l-6 -47q-8 -49 -29.5 -83t-73.5 -70q-104 -80 -223 -230q-61 -78 -92 -104q-27 -20 -61 -21q-72 0 -170 90q-66 59 -226 152 q-178 104 -254 174q-39 37 -39 43z" />
<glyph unicode="&#xf6;" horiz-adv-x="1130" d="M16 485q1 4 56 84l53 72h184q172 0 303 -16.5t215 -16.5h99l63 -51q61 -53 96 -70q31 -18 31 -34.5t-49 -65.5q-39 -37 -111.5 -125t-72.5 -98q0 -6 -78 -88q-57 -59 -73.5 -70.5t-53.5 -11.5q-35 0 -54.5 10t-72.5 59q-61 57 -254 191q-281 193 -281 231zM219 786l70 72 q78 78 160 139q90 68 96 68t24 -29q0 -2 23.5 -32.5t49.5 -65.5t47.5 -65.5t21.5 -34.5q0 -16 -236 -33q-25 -2 -89 -5t-87 -5z" />
<glyph unicode="&#xfa;" horiz-adv-x="1103" d="M16 623q1 59 103 170q51 59 74 59q2 0 5 -1t5 -1q111 -25 286 -25q92 0 150 2q262 8 303 15q10 2 25 2q29 0 71 -23l52 -26v-58q-2 -41 -8.5 -55t-37.5 -41q-10 -10 -40.5 -36.5t-42.5 -37.5q-43 -39 -89 -125q-39 -76 -92 -141q-47 -57 -53 -82q-16 -66 -63 -65 q-25 0 -43 24q-72 106 -129 133q-63 33 -163 108t-130 95q-70 45 -99 45h-12q-4 0 -9 -1t-7 -1q-41 0 -54 53q0 2 -1 6.5t-1 6.5zM279 -4q0 53 38 72q25 10 39 10q25 0 66 -23q39 -23 108 -28q8 0 21.5 -1t17.5 -1q37 0 76 24q41 27 86 45q43 16 49 43q6 23 27.5 45.5 t46.5 22.5q20 0 35 -17q14 -14 14 -49q0 -25 -2 -41q-4 -63 -24.5 -94t-69.5 -43q-39 -10 -96 -45q-63 -41 -154 -41q-70 0 -147 25q-78 23 -104.5 43t-26.5 53zM326 958l30 27q13 10 154 125q51 39 102 39h17q27 0 42 -9.5t44 -39.5q29 -33 88 -82l43 -33l-123 -6 q-37 -2 -132 -6t-128 -6zM776 598q0 -14 8.5 -7t-0.5 15q-2 4 -5 1t-3 -9z" />
<glyph unicode="&#xfc;" horiz-adv-x="1118" d="M16 625v6q0 29 20.5 67.5t41.5 46.5q14 6 61 60.5t86 112.5q25 37 110 129t93 92q6 0 41 39q33 37 76 36q27 0 43 -9t51 -42q53 -45 106 -114q59 -72 140 -123q168 -106 200 -162q18 -31 18.5 -49.5t-30.5 -53t-31 -45t-104 -98.5q-98 -80 -144 -130t-122 -161 q-80 -121 -99 -131q-8 -6 -22 -6q-47 0 -62 35q-10 27 -36 37q-29 14 -70 65q-55 70 -203 213q-154 154 -162 181zM213 -35q0 23 18 41q16 20 74 21q43 0 86 -17q37 -16 119 -16q80 0 129 26q47 29 74 37q20 6 43 6q63 0 63 -51q0 -20 -10 -39q-10 -20 -100 -69 q-63 -33 -88 -40t-91 -7q-100 0 -157 18q-61 20 -99 29q-29 6 -45 23.5t-16 37.5z" />
<glyph unicode="&#xfd;" horiz-adv-x="950" d="M16 1063q0 23 23.5 44t46.5 21q25 0 31 11q26 39 393 53q135 6 195 6q84 0 108 -27q18 -23 55 -14q4 0 11.5 1t9.5 1q18 0 35 -24q14 -20 14 -35t-8 -39q-23 -88 -139 -195q-57 -53 -134 -149q-86 -106 -106 -119q-18 -8 -21.5 -45t-3.5 -246q0 -274 -16 -332 q-23 -76 -68 -75q-18 0 -39 14q-18 12 -18 156q0 119 2 211l2 354l-49 49q-45 45 -112.5 127t-116.5 133q-94 98 -95 119z" />
<glyph unicode="&#xfe;" horiz-adv-x="1335" d="M16 1049q0 18 23.5 38.5t46.5 20.5q27 0 27 10q0 6 25.5 18.5t54 23.5t30.5 14q20 14 102 44.5t115 36.5q45 8 166 9h47l164 -2l189 -64q193 -66 213 -86q20 -25 34 -25q18 0 43 -26.5t25 -44.5q0 -45 -139 -115q-37 -20 -84 -68.5t-70 -89.5q-16 -35 -49 -127 q-29 -88 -29 -159q0 -53 2 -95q4 -111 6.5 -136t14.5 -31q51 -27 51 -64q0 -18 -43 -62t-70 -51q-12 -4 -82 -4q-264 0 -301 21q-31 16 -54 133t-23 252q0 90 -20.5 145.5t-84.5 141.5q-131 170 -209 217q-39 23 -80 65.5t-41 59.5z" />
<glyph unicode="&#x2000;" />
<glyph unicode="&#x2001;" horiz-adv-x="1638" />
<glyph unicode="&#x2002;" />
<glyph unicode="&#x2003;" horiz-adv-x="1638" />
<glyph unicode="&#x2004;" horiz-adv-x="546" />
<glyph unicode="&#x2005;" horiz-adv-x="409" />
<glyph unicode="&#x2006;" horiz-adv-x="273" />
<glyph unicode="&#x2007;" horiz-adv-x="273" />
<glyph unicode="&#x2008;" horiz-adv-x="204" />
<glyph unicode="&#x2009;" horiz-adv-x="327" />
<glyph unicode="&#x200a;" horiz-adv-x="91" />
<glyph unicode="&#x202f;" horiz-adv-x="327" />
<glyph unicode="&#x205f;" horiz-adv-x="409" />
<glyph unicode="&#x25fc;" horiz-adv-x="1484" d="M0 0v1485h1485v-1485h-1485z" />
</font>
</defs>
</svg>
