<?xml version="1.0" standalone="no"?>
<!DOCTYPE svg PUBLIC "-//W3C//DTD SVG 1.1//EN" "http://www.w3.org/Graphics/SVG/1.1/DTD/svg11.dtd" >
<svg xmlns="http://www.w3.org/2000/svg" xmlns:xlink="http://www.w3.org/1999/xlink" version="1.1">
<metadata></metadata>
<defs>
<font id="viturdeshpregular" horiz-adv-x="1269" >
<font-face units-per-em="2048" ascent="1638" descent="-410" />
<missing-glyph horiz-adv-x="757" />
<glyph horiz-adv-x="757" />
<glyph horiz-adv-x="757" />
<glyph horiz-adv-x="682" />
<glyph unicode="&#xd;" horiz-adv-x="681" />
<glyph unicode=" "  horiz-adv-x="757" />
<glyph unicode="&#x09;" horiz-adv-x="757" />
<glyph unicode="&#xa0;" horiz-adv-x="757" />
<glyph unicode="!" horiz-adv-x="1118" d="M8 301q18 27 41 57q143 193 266 430l25 50h442l19 -37q123 -248 274 -453l37 -51q-166 -92 -311.5 -233.5t-243.5 -307.5l-29 47q-180 289 -487 478zM418 1004q113 293 135 387q8 29 10 26q2 -2 15 -41q2 -6 64.5 -163.5t62.5 -204.5q0 -6 -144 -7z" />
<glyph unicode="&#x22;" horiz-adv-x="632" d="M8 1206q0 49 8 80q23 84 88.5 145.5t149.5 79.5q31 6 63 7q131 0 226 -99q86 -88 86 -213q0 -133 -101 -227q-88 -82 -209 -82q-25 0 -36 2q-96 12 -167 72.5t-98 150.5q-10 29 -10 84zM133 1210q0 -53 28.5 -99t80.5 -71q27 -14 76 -14t77 14q61 33 88 90q14 27 14 76 t-16 82q-43 94 -157 101h-11q-68 0 -125 -52q-55 -51 -55 -127zM215 1208q0 63 59 92q16 8 41 9q41 0 74 -29q31 -31 31 -72q0 -66 -60 -94q-25 -10 -41 -10q-37 0 -67 26q-37 31 -37 78z" />
<glyph unicode="&#x201d;" horiz-adv-x="632" d="M8 1206q0 49 8 80q23 84 88.5 145.5t149.5 79.5q31 6 63 7q131 0 226 -99q86 -88 86 -213q0 -133 -101 -227q-88 -82 -209 -82q-25 0 -36 2q-96 12 -167 72.5t-98 150.5q-10 29 -10 84zM133 1210q0 -53 28.5 -99t80.5 -71q27 -14 76 -14t77 14q61 33 88 90q14 27 14 76 t-16 82q-43 94 -157 101h-11q-68 0 -125 -52q-55 -51 -55 -127zM215 1208q0 63 59 92q16 8 41 9q41 0 74 -29q31 -31 31 -72q0 -66 -60 -94q-25 -10 -41 -10q-37 0 -67 26q-37 31 -37 78z" />
<glyph unicode="&#x201c;" horiz-adv-x="632" d="M8 1206q0 49 8 80q23 84 88.5 145.5t149.5 79.5q31 6 63 7q131 0 226 -99q86 -88 86 -213q0 -133 -101 -227q-88 -82 -209 -82q-25 0 -36 2q-96 12 -167 72.5t-98 150.5q-10 29 -10 84zM133 1210q0 -53 28.5 -99t80.5 -71q27 -14 76 -14t77 14q61 33 88 90q14 27 14 76 t-16 82q-43 94 -157 101h-11q-68 0 -125 -52q-55 -51 -55 -127zM215 1208q0 63 59 92q16 8 41 9q41 0 74 -29q31 -31 31 -72q0 -66 -60 -94q-25 -10 -41 -10q-37 0 -67 26q-37 31 -37 78z" />
<glyph unicode="'" horiz-adv-x="632" d="M8 1204q0 115 65.5 195t164.5 106q37 10 77 11q43 0 80 -11q106 -27 170 -111.5t64 -189.5q0 -74 -33 -139q-39 -80 -114 -125t-165 -45q-127 0 -218 86t-91 223zM137.5 1204q-0.5 -51 14.5 -78q43 -86 137 -102q10 -2 28 -2q51 0 96.5 28.5t69.5 75.5q14 27 15 78 q-1 49 -13 76q-49 106 -166 106q-29 0 -45 -4q-82 -20 -122 -100q-14 -27 -14.5 -78z" />
<glyph unicode="&#x2019;" horiz-adv-x="632" d="M8 1204q0 115 65.5 195t164.5 106q37 10 77 11q43 0 80 -11q106 -27 170 -111.5t64 -189.5q0 -74 -33 -139q-39 -80 -114 -125t-165 -45q-127 0 -218 86t-91 223zM137.5 1204q-0.5 -51 14.5 -78q43 -86 137 -102q10 -2 28 -2q51 0 96.5 28.5t69.5 75.5q14 27 15 78 q-1 49 -13 76q-49 106 -166 106q-29 0 -45 -4q-82 -20 -122 -100q-14 -27 -14.5 -78z" />
<glyph unicode="&#x2018;" horiz-adv-x="632" d="M8 1204q0 115 65.5 195t164.5 106q37 10 77 11q43 0 80 -11q106 -27 170 -111.5t64 -189.5q0 -74 -33 -139q-39 -80 -114 -125t-165 -45q-127 0 -218 86t-91 223zM137.5 1204q-0.5 -51 14.5 -78q43 -86 137 -102q10 -2 28 -2q51 0 96.5 28.5t69.5 75.5q14 27 15 78 q-1 49 -13 76q-49 106 -166 106q-29 0 -45 -4q-82 -20 -122 -100q-14 -27 -14.5 -78z" />
<glyph unicode="," horiz-adv-x="616" d="M8 215q0 6 15 2q131 -29 299 -29q150 0 251 23q33 8 37 8q2 0 -2 -5t-11 -13t-15 -19q-150 -166 -246 -366l-29 -58l-14 33q-45 100 -117 210t-139 181q-29 29 -29 33z" />
<glyph unicode="." horiz-adv-x="618" d="M8 -18l25 26q168 192 258 389q16 39 20 39t23 -41q86 -195 254 -381q6 -8 12 -15t10 -11l2 -6q-10 0 -34 6q-104 23 -259 22q-160 0 -294 -26z" />
<glyph unicode="0" horiz-adv-x="169" d="M8 117v1442h156v-1442h-156z" />
<glyph unicode="1" horiz-adv-x="663" d="M8 219v94h324l325 -2v-188h-647z" />
<glyph unicode="2" horiz-adv-x="663" d="M8 305q0 182 2 186.5t324 4.5l323 -2v-371h-647z" />
<glyph unicode="3" horiz-adv-x="661" d="M8 125v375h647v-375h-647zM8 559v191h647v-191h-647z" />
<glyph unicode="4" horiz-adv-x="663" d="M8 309q0 185 2 187q2 4 324 4h321v-375q-106 2 -321 2t-324 2zM8 559v371h647v-371h-647z" />
<glyph unicode="5" horiz-adv-x="663" d="M8 309q0 185 2 187q2 4 324 4h321v-375q-106 2 -321 2t-324 2zM8 559v371h647v-371h-647zM8 1083v97h647v-193h-321l-324 2z" />
<glyph unicode="6" horiz-adv-x="665" d="M8 227q0 12 1 48t1 59l2 176l322 -2h323v-184l2 -185h-647q-4 20 -4 88zM8 1308.5v28v21.5l2 8q2 4 324 4h319v-371h-641l-2 181q0 27 -1 70.5t-1 58zM12 567v375h322l323 -2v-371h-323z" />
<glyph unicode="7" horiz-adv-x="1042" d="M8 311q0 185 2 187q2 6 322 6h321l2 -137v-185l-2 -47l-55 -4q-31 -2 -319 -2l-269 2zM8 561v369h645v-369h-645zM8 1171q0 183 2 185q2 6 324 6h319v-373h-321l-322 2zM711 561v369h325v-363l-55 -4q-31 -2 -164 -2h-106z" />
<glyph unicode="8" horiz-adv-x="1406" d="M8 565v371h326v-371h-326zM373 750q0 170 4 178q2 8 321 8h320v-371h-320q-319 0 -321 8q-4 8 -4 177zM375 135v180v160v27q2 6 323 6h320l2 -131q0 -41 1 -104.5t1 -71.5q0 -16 -2 -37v-21l-2 -10l-322 2h-321zM375 995v181v159v27q2 4 323 4h320v-373h-320zM1077 565 v371h324v-371h-324z" />
<glyph unicode="9" horiz-adv-x="1413" d="M8 565v371h330v-371h-330zM377 133v184q0 183 4 187t324 4h319v-375h-647zM377 565v371h647v-371h-647zM377 1366h647v-373h-322l-321 2q0 61 -2 185.5t-2 185.5zM377 1425v191h647v-191h-647zM1077 750q0 174 2 178q2 8 164 8h164v-371h-164q-162 0 -164 8q-2 4 -2 177z " />
<glyph unicode=":" horiz-adv-x="266" d="M8 139v162q0 617 2 631q0 4 125 4h125v-803h-125q-123 0 -127 6z" />
<glyph unicode=";" horiz-adv-x="370" d="M8 600v336h334v-166l-2 -166q-55 -2 -166 -2t-166 -2zM27 104q0 2 2 9q16 96 16 213q0 102 -10 161q-8 42 -8 60q0 2 9 -6.5t27 -24.5q115 -100 252 -168l50 -26q0 -4 -35 -19q-141 -59 -264 -170q-39 -35 -39 -29z" />
<glyph unicode="?" horiz-adv-x="542" d="M8 876.5q0 104.5 78 186.5q66 66 147 78q12 2 37 2q106 0 186.5 -76t80.5 -193q0 -106 -77 -183t-184 -77q-115 0 -190 76q-78 82 -78 186.5zM23 131l18 29l8 10q121 135 197 289l28 59l35 -67q82 -162 189 -283q29 -29 28 -35h-6q-4 0 -11 1t-15 3q-113 20 -234 21 q-150 0 -237 -27zM141 877q0 -53 36 -92.5t95 -39.5q78 0 121 76q10 19 10 56q0 80 -69 118q-27 14 -60 15q-55 0 -94 -39t-39 -94z" />
<glyph unicode="A" horiz-adv-x="772" d="M8 754q0 4 41 63q191 250 316 590l20 41q4 -4 23 -55q119 -315 309 -570l49 -65l-12 -23q-59 -94 -64 -104q-2 -6 -168 -301q-127 -217 -135 -217q-10 0 -135 219q-119 215 -207 358q-37 55 -37 64zM135 754l47 -78q117 -211 187 -322l18 -30l27 41q16 25 92 159.5 t90 157.5q27 41 27 45q0 2 6 19.5t-6 23.5q-145 201 -232 414l-8 18l-16 -37q-16 -41 -17 -43q-2 -16 -74.5 -146t-113.5 -188zM279 748q0 39 25.5 69.5t62.5 36.5q6 2 18 2q43 0 78 -30.5t35 -75.5q0 -29 -15 -56q-30 -57 -98 -57q-43 0 -74.5 32.5t-31.5 78.5z" />
<glyph unicode="B" d="M8 1441v8v3l58 -53q248 -242 540 -391l31 -15l45 23q276 137 524 364q47 45 56 45q2 0 2 -2q0 -57 -23.5 -257.5t-23.5 -315.5q0 -197 20 -322l2 -14l-43 -27q-145 -88 -334 -208q-218 -142 -227 -142q-11 0 -189 119q-319 209 -407 262q-20 10 -21 19q0 2 1 12t3.5 31.5 t4.5 40.5q18 170 18 346q0 221 -31 430q0 6 -2 17t-3 15.5t-1 11.5zM129 1202l2 -16q14 -86 14 -301q0 -184 -10 -260l-2 -23l35 -22q358 -240 377 -252l35 -21v582l-25 12q-68 33 -185.5 114t-193.5 146zM264 821.5q20 30.5 49 40.5q16 8 39 8q37 0 68 -23.5t39 -53.5 q4 -12 4 -35q0 -66 -60 -96q-25 -12 -51 -13q-51 0 -82 37q-26 32 -26 67q0 38 20 68.5zM686 307q47 25 223 142q111 74 164 106l51 31q-4 21 -8 166q0 16 -1 44.5t-1 43.5q0 164 21 342q-16 -10 -35 -27q-160 -139 -377 -250l-37 -18v-580zM803 766q0 14 6 33q14 47 55 67 q25 12 51 13q45 0 76 -32t31 -79t-29.5 -78t-77.5 -31q-43 0 -77.5 31t-34.5 76z" />
<glyph unicode="C" horiz-adv-x="1816" d="M8 848v8l41 -8q139 -31 342 -31q72 0 129 6q78 8 84 11q12 2 37 47q150 258 233 542q23 76 25 80q0 4 4 4t25 -69q86 -293 231 -547q31 -51 43 -57q61 -16 240 -17q180 0 354 39l14 2l-41 -63q-168 -254 -276 -564l-27 -79l-32 2q-141 12 -533 12q-389 0 -530 -12l-31 -2 l-29 79q-106 303 -268 553q-35 57 -35 64zM178 725l6 -8q41 -61 106.5 -195.5t94.5 -218.5l12 -33l199 2q203 0 227 9l-80 170q-127 270 -139 270q-82 -8 -203 -8q-117 0 -172 8q-49 8 -51 4zM389 500q0 53 31 81.5t86 28.5q45 -2 72.5 -35.5t27.5 -74.5q0 -43 -26 -72 q-35 -37 -82 -37q-43 0 -76 30t-33 79zM694 778l35 -76q45 -92 68 -143q98 -219 106 -219q2 0 80 163t98 208l31 67l-14 25q-121 215 -195 434q-10 -20 -18 -47q-72 -205 -176 -387zM817.5 836.5q24.5 29.5 65.5 37.5q6 2 20 3q72 0 103 -70q6 -14 6 -39q0 -31 -8 -47 q-29 -66 -103 -66q-39 0 -72 29q-36 34 -36 80q0 43 24.5 72.5zM981 281q27 -8 227 -9l201 -2l16 45q76 205 201 408q2 4 -4 4l-49 -6q-49 -8 -168 -8q-121 0 -203 8q-8 0 -27.5 -38t-111.5 -232zM1196 500q0 40 29 73q37 37 80 37q23 0 36 -4q78 -25 78 -104q0 -25 -12 -49 q-31 -61 -98 -62q-51 0 -84 37q-29 33 -29 72z" />
<glyph unicode="D" d="M8 150v4q0 4 2 14t4 26.5t4 28.5q29 219 29 430q0 170 -18 336q-2 18 -4 36.5t-3.5 29t-1.5 16.5v8t3.5 7.5t4.5 5.5t7 6l9 6t13.5 8t16.5 10q80 52 420 279q143 94 145 94q8 0 250 -160q182 -121 268 -174q74 -45 76 -47q8 -6 4 -59q-16 -164 -16 -310q0 -242 41 -534 q2 -18 2 -37q0 -2 -7.5 3t-20.5 17.5t-26 24.5q-229 219 -516 371l-53 26l-29 -14q-279 -139 -536 -391q-63 -61 -68 -61zM133 418q0 -8 4 -8t43 34q174 154 361 258l43 23v297q0 295 -4 295q-6 0 -87 -55.5t-179.5 -124t-133.5 -88.5l-45 -29l4 -31q2 -16 6 -153 q2 -39 2 -131q0 -168 -10 -250q-4 -33 -4 -37zM244 858q0 35 22.5 65t61.5 42q6 2 20 2q63 0 94 -41q25 -31 25 -70q0 -55 -45 -88q-33 -23 -66 -23q-39 0 -69.5 24t-38.5 62q-4 16 -4 27zM426 291h420l2 -43q4 -43 0 -62l-2 -20h-209l-209 2v61zM690 725l25 -12 q82 -41 197.5 -119t189.5 -141l37 -31q-18 254 -19 379v53l4 170q2 12 -30 33q-98 66 -176 117q-45 31 -111 72.5t-72 45.5q-35 25 -41 25q-4 0 -4 -295v-297zM809 858q0 35 12 55q35 55 94 56q25 0 50 -13q61 -31 61 -100q0 -55 -41 -86q-28 -22 -67 -22h-3q-47 0 -77 32 q-29 29 -29 78z" />
<glyph unicode="E" horiz-adv-x="1857" d="M8 160q0 6 45 28q207 104 402 267q51 43 140 133t136 145q289 346 455 752l12 31v-627l2 -629l324 -2h325v-53l2 -51h-921q-922 0 -922 6zM391 262l354 -2h355v805l-27 -47q-115 -205 -274 -387q-127 -143 -248 -246q-14 -10 -52 -40t-50 -40zM807 436q0 74 61 101 q16 8 45 8q31 0 48 -8q29 -10 47 -41t18 -64q0 -41 -29 -70q-34 -36 -77 -36h-2q-47 0 -79 31.5t-32 78.5z" />
<glyph unicode="F" horiz-adv-x="1853" d="M8 154l2 51v53h324l321 2v627q0 625 4 624l5 -8l11 -27.5t13 -29.5q223 -520 590 -879q254 -248 526 -381q43 -23 43 -28q0 -4 -919 -4h-920zM754 260h710l-63 49q-370 283 -608 697l-37 61q-2 -182 -2 -403v-404zM827 436q1 63 58 96q23 12 51 13q49 0 84 -37 q29 -31 29 -70q0 -45 -34 -78.5t-77 -33.5q-49 0 -80 32.5t-31 77.5z" />
<glyph unicode="G" horiz-adv-x="1372" d="M8 815q0 80 8 121q37 201 179 348q165 172 407 209h100q137 0 287 -68l-53 -2q-150 -8 -246 -95t-129 -220q-8 -41 -8 -82q0 -45 8 -86q31 -160 172 -252q99 -67 217 -67h4q160 0 275 110q94 90 117 197q4 20 8 20q12 -8 12 -131v-29q-6 -188 -113 -352q-29 -43 -84 -98 t-100 -86q-121 -80 -262 -107q-39 -8 -119 -8q-92 0 -133 10q-203 41 -349.5 188.5t-187.5 348.5q-10 41 -10 131zM106 821q0 -104 39 -203q68 -172 218.5 -275t330.5 -103q35 0 54 2q158 16 283.5 101t195.5 228q20 41 20 52q0 2 -2 2q-4 0 -33 -19q-68 -43 -147 -65 q-39 -10 -121 -11q-76 0 -113 11q-164 45 -268 176t-104 297q0 117 53 225q31 65 94 131l29 33h-14q-2 0 -64 -14q-188 -51 -319.5 -204t-131.5 -364zM285 606q0 33 10 49q18 38 57 54q12 6 41 6q31 0 43 -6q39 -16 58 -54q10 -16 10 -49q0 -37 -10 -51q-33 -59 -99 -59 q-68 0 -100 59q-10 14 -10 51z" />
<glyph unicode="H" horiz-adv-x="1519" d="M8 598q0 45 4 127q27 303 147.5 498.5t325.5 265.5q31 10 37 10q2 0 -1 -5t-7 -13q-68 -111 -68 -226q0 -47 13 -92q33 -117 118 -190.5t183 -73.5q31 0 47 4q94 20 163.5 96t92.5 183q8 45 8 73q0 121 -67 224q-10 18 -9 20h2q20 0 95 -37q109 -53 206 -166 q162 -186 207 -489q8 -74 8 -174q0 -94 -8 -184q-16 -129 -45 -246l-16 -68h-686l-686 2l-13 37q-51 154 -51 424zM117 659q0 -236 43 -393l6 -22h592l592 -2q39 158 49 274q6 74 6 141q0 347 -188 574q-43 49 -47.5 49t-8.5 -47q-8 -172 -90 -284.5t-219 -145.5 q-31 -8 -59 -8q-6 0 -19.5 1t-23.5 1q-111 6 -201 57q-33 20 -78 66.5t-68 83.5q-47 82 -73 231l-4 18l-29 -39q-139 -178 -172 -407q-8 -57 -8 -148zM647 528q1 66 62 99q25 12 51 12q43 0 76 -33q34 -34 34 -78q0 -65 -59 -96q-29 -14 -53 -14q-41 0 -74 28q-37 33 -37 82 z" />
<glyph unicode="I" horiz-adv-x="980" d="M8 137l27 39q131 201 241.5 497t174.5 615q38 205 38 230v6l19 -97q98 -569 272 -938q86 -178 195 -354h-483zM197 240h8h23.5t35 -1t46 -1h55h62.5h67l294 2l-30 47q-102 164 -178 403q-62 186 -80 299q-2 20 -6 21q-6 0 -19 -58q-92 -408 -252 -665q-27 -41 -26 -47z M383 428q0 33 14 53q27 41 64 49q20 4 28 5q45 0 78 -32t33 -77q0 -47 -34 -79t-79 -32t-75 31q-29 29 -29 82z" />
<glyph unicode="J" horiz-adv-x="1230" d="M8 614q0 33 2 52q14 145 109 329q39 78 69 146q76 176 82 352q0 2 344 2l344 -2q16 -152 50 -254t106 -235q53 -94 82 -199q27 -94 27 -180q0 -164 -93.5 -276.5t-246.5 -164.5q-37 -14 -39 -16q-25 -14 -144 -29q-27 -4 -84 -4q-260 0 -430 127q-178 135 -178 352z M127 627q0 -55 8 -88q53 -215 340 -279q76 -16 143 -16q211 0 351 102q88 66 123 184q10 35 10 107q0 94 -20.5 161.5t-86.5 196.5q-57 113 -77 172q-37 109 -60 217h-493q-6 -43 -9 -45q0 -6 -4 -34q-4 -49 -38.5 -143.5t-73.5 -168.5q-76 -137 -90 -194q-23 -84 -23 -172z M508 645q0 67 59 98q25 12 51 13q72 0 101 -66q10 -25 10 -45q0 -39 -31 -74q-28 -34 -74 -34h-3h-11q-35 2 -51 14q-51 33 -51 94z" />
<glyph unicode="K" horiz-adv-x="1816" d="M8 786q0 10 35 60q150 231 254 508q25 66 25 69q0 10 14 54q4 6 59 4q186 -10 488 -11q223 0 329 5q150 6 220 6h36l25 -74q110 -316 317 -629q-213 41 -370 41q-209 0 -246 -20q-18 -8 -88 -150.5t-102 -236.5q-70 -199 -80 -236q-10 -45 -17 -45q-2 0 -10 23 q-35 143 -135 370q-37 84 -86 176.5t-60 98.5q-37 20 -249 20q-156 0 -299 -28q-12 -2 -21.5 -4.5t-15.5 -3.5t-11.5 -1h-7.5t-3 1t-1 3zM184 911q0 -2 10.5 -1t28.5 5q57 8 215 9q86 0 140 -4l40 -5l11 25q8 23 149 324q45 92 41 96l-213 4l-209 4l-6 -20 q-14 -59 -71.5 -183.5t-106.5 -206.5q-4 -6 -8 -13t-8 -13t-6.5 -10t-4.5 -9zM391 1139q0 41 32 73.5t81 32.5q43 -2 73.5 -33.5t30.5 -74.5q0 -33 -22 -68q-27 -41 -82 -41q-49 0 -81 32t-32 79zM702 868q-2 -14 17 -49q98 -172 168 -364l20 -52q2 2 22.5 57.5t22.5 63.5 q2 16 62.5 143.5t87.5 172.5l10 18l-41 86q-82 174 -123 266q-33 74 -41 82l-2 2q-8 0 -90 -178q-102 -219 -113 -248zM818.5 938q23.5 33 60.5 39q8 2 24 2q47 0 78 -30.5t31 -80.5q0 -47 -33 -77q-37 -33 -76 -33t-74 30q-34 28 -34 75q0 42 23.5 75zM987 1360 q0 -29 164 -361l41 -84l41 5q57 4 117 4q200 -1 276 -15q-160 297 -205 422l-14 35h-147q-272 -4 -273 -6zM1198 1137q0 47 33 77.5t76 30.5t77 -33q33 -33 33 -77.5t-30.5 -75.5t-77.5 -31q-51 0 -82 35q-29 31 -29 74z" />
<glyph unicode="L" horiz-adv-x="1503" d="M8 1087q0 203 37 379q2 6 3 12.5t1 8.5l2 4q4 0 19 -57q55 -205 196.5 -344.5t349.5 -184.5q41 -10 134 -10q84 0 124 8q158 31 285 121q100 72 164 164q94 135 129 285l6 18q2 0 15 -64q24 -150 24 -308v-13q0 -215 -41 -369q-66 -250 -219.5 -408.5t-366.5 -197.5 q-57 -8 -108 -8q-53 0 -111 8q-147 25 -280 119q-102 74 -172 170q-139 193 -181 469q-10 69 -10 198zM92 1098q0 -39 2 -62q20 -250 134 -452.5t280 -284.5q121 -59 264 -59q119 0 209 36q308 122 408 609q23 102 30 272q-10 -12 -18 -29q-68 -115 -175.5 -201.5 t-234.5 -127.5q-111 -37 -243 -37q-98 0 -150 10q-303 68 -473 322l-29 45l-4 -25v-16zM641 537q0 71 61 98q25 10 46 10q55 0 88 -37q27 -32 27 -72q0 -41 -29 -75q-27 -29 -84 -29q-109 0 -109 105z" />
<glyph unicode="M" horiz-adv-x="1505" d="M8 510q0 131 8 180q62 465 377 678q166 113 367 113q119 0 227 -41q135 -51 244 -160q207 -207 260 -582q8 -57 8 -211q0 -137 -8 -196q-25 -182 -31 -182q-2 0 -6 14t-10 36.5t-8 30.5q-66 203 -209.5 336t-339.5 172q-43 10 -135 11q-80 0 -123 -9 q-207 -39 -358.5 -185t-202.5 -359q-2 -8 -5.5 -20.5t-5.5 -18.5l-2 -6q-12 0 -41 237q-6 55 -6 162zM96 463l25 37q100 150 263 242t372 92h26q139 -6 265 -56q217 -86 350 -293l22 -36v26q0 39 -6 88q-47 432 -246 637q-134 142 -329 162q-49 4 -70 4q-51 0 -104 -10 q-180 -29 -315.5 -172.5t-207.5 -374.5q-45 -152 -45 -281v-14v-51zM645 1073q0 39 12 55q39 47 95 48q18 0 39 -7q29 -8 51 -37.5t22 -66.5q0 -18 -10 -45q-18 -43 -63 -55q-14 -4 -39 -4q-72 0 -101 59q-8 18 -6 53z" />
<glyph unicode="N" horiz-adv-x="1187" d="M8 115q0 18 44 167.5t77 245.5q181 511 455 945q6 10 8 10q8 0 80.5 -129t132.5 -246q186 -371 299 -727q78 -254 78 -275q-80 88 -92 101q-156 152 -365 199q-35 8 -131 8q-92 0 -131 -8q-229 -47 -391 -222q-10 -12 -47 -57q-16 -20 -17 -12zM207 424l41 25 q74 43 168 69q80 20 168 21q219 0 370 -101l25 -12q1 1 1 4q0 23 -60 182q-117 316 -275 576q-33 55 -53 82l-17 -27q-152 -225 -278 -545q-57 -141 -90 -274zM481 805q0 82 88 102q8 2 23 2q49 0 80 -30q33 -33 33 -78t-31 -76q-33 -33 -80 -33q-39 0 -69.5 23.5 t-39.5 60.5q-4 20 -4 29z" />
<glyph unicode="O" horiz-adv-x="1648" d="M8 799q-2 0 0 2t8.5 4t14.5 4t18 6q72 23 144 59q172 88 350 267q164 164 254 311q25 43 28.5 43t28.5 -43q43 -70 139 -188q41 -49 123 -130t127 -116q205 -166 379 -209q23 -8 20 -10q-2 -2 -34 -11q-166 -45 -363 -196q-49 -37 -138 -126t-134 -147 q-86 -106 -135 -192q-10 -18 -13 -18q-4 0 -26 38q-82 139 -217.5 280.5t-272.5 231.5q-127 86 -301 140zM287 807l49 -29q141 -80 303 -241q111 -111 164 -191l22 -33l27 37q88 131 217 251t244 181l39 21l-37 20q-234 139 -455 434l-33 41q-20 -23 -45 -53 q-145 -186 -288 -305q-106 -90 -179 -121zM715 791v12q0 39 23.5 66.5t60.5 35.5q10 2 28 2q47 0 78 -30.5t31 -75.5v-13q-4 -43 -36 -67.5t-75 -24.5t-74.5 24.5t-35.5 70.5z" />
<glyph unicode="P" horiz-adv-x="1566" d="M8 1300q8 8 98 48q242 104 549 141q49 6 138 6q154 0 217 -12q109 -20 275.5 -74.5t256.5 -99.5l19 -11l-35 -32q-154 -156 -269 -455q-66 -168 -106.5 -343t-40.5 -292v-22l2 -43l-330 -2h-327v59q0 164 -64.5 397.5t-163.5 423.5q-88 174 -184 273zM211 1247 q0 -2 20 -30q80 -102 158 -295q66 -162 110 -349.5t44 -308.5v-45h481l2 62q16 322 129 598q82 197 180 338l25 34l-49 23q-158 73 -340 102q-90 12 -232 13q-12 0 -26.5 -1.5t-18.5 -1.5t-24.5 -3t-32.5 -5q-111 -10 -238 -51q-188 -63 -188 -80zM672 936q0 70 61 96 q16 8 45 8q57 0 86 -28q31 -29 31 -78q0 -41 -25 -68q-31 -37 -88 -37q-53 0 -81.5 29t-28.5 78z" />
<glyph unicode="Q" horiz-adv-x="1445" d="M8 104q0 12 6 52q37 287 37 553q0 217 -20 421q-2 20 -4 45l-3 37.5t-1 14.5q0 10 75 61q266 182 293 205q2 2 6 -2t13 -18q57 -98 163 -152q66 -33 138 -33h26q61 2 90 12q92 33 156 101q56 55 68 92q2 8 10 2q225 -158 348 -233q-2 -33 -6 -72q-14 -135 -14 -363 q0 -293 22 -489q4 -25 10 -74t11.5 -84t5.5 -41q0 -4 -11.5 6.5t-58.5 55.5q-100 98 -205 184q-90 72 -198 143q-98 68 -199 119l-41 23l-59 -35q-293 -168 -570 -445l-36 -36t-25.5 -25t-20.5 -18zM145 406l48 45q86 80 214 177t220 150l35 21l2 178v178l-39 10 q-136 33 -226 125q-18 18 -24 19q-4 0 -64 -43q-18 -14 -60 -43t-46 -33q-6 -4 -16.5 -11.5t-14.5 -9.5t-9 -7t-7 -10t-3 -12t-1 -17.5t2 -42t4 -56.5q4 -98 4 -190v-101q-2 -190 -17 -303zM317 938q0 79 74 104q18 6 35 7q43 0 76 -33t33 -78q0 -70 -60 -100 q-16 -10 -49 -10.5t-49 10.5q-59 31 -60 100zM780 799q10 -4 32 -16.5t36 -20.5q29 -16 118 -76.5t107 -71.5q109 -76 221 -180q-2 31 -6 70q-18 150 -18 344q0 16 1 52t1 56q4 186 6 197l2 21l-49 32q-10 7 -98 68q-10 8 -23.5 16t-19.5 13l-9 6q-4 4 -22 -15 q-45 -47 -116 -85t-134 -48l-29 -6v-356zM932 938q0 45 29.5 77t76.5 32q23 0 35 -5q35 -10 56.5 -39.5t21.5 -64.5q0 -43 -27 -72q-31 -37 -84 -37q-47 0 -77.5 30t-30.5 79z" />
<glyph unicode="R" horiz-adv-x="1490" d="M8 166v33q0 217 53 434q133 543 545 770q140 76 283 92q33 4 125 4q98 -2 141 -12q156 -31 301 -115l29 -16v-172l-43 28q-135 90 -301 127q-51 10 -140 11q-102 0 -114 -2l-23 -5v-1093h621v-137h-737l-738 2zM137 258q0 -8 307 -8h310v532l-2 531q-23 -8 -50 -21 q-217 -94 -360 -314t-186 -523q-18 -115 -19 -197zM365 565q0 39 25.5 68t64.5 37q8 2 22 2q45 0 76 -31t31 -82q0 -47 -32 -76.5t-75 -29.5q-47 0 -79.5 32.5t-32.5 79.5z" />
<glyph unicode="S" horiz-adv-x="1271" d="M8 1534q41 -29 68 -47q121 -90 233.5 -151.5t321.5 -153.5q139 -61 272 -138q70 -39 198 -105.5t136 -66.5q4 0 4 -12t-6 -63q-14 -123 -14 -219q0 -182 36 -388l9 -57q-23 14 -49 35q-236 174 -547 307q-88 37 -268.5 132t-215.5 112q-150 76 -149 80q-1 2 -1 10 q0 16 5 57q12 119 12 242q0 215 -39 391zM139 1321q0 -10 6 -51q9 -55 9 -215q0 -158 -9 -199l52 -25q10 -6 115.5 -61t185.5 -97q76 -40 82 -40q4 0 4 221v84l-2 156l-58 26q-131 55 -254 129q-16 10 -53 35t-39 25q-31 20 -35 20t-4 -8zM248 977q0 45 31.5 80t76.5 35 q27 0 56 -17q55 -31 55 -100.5t-59 -100.5q-29 -14 -52 -14q-20 0 -49 14q-59 31 -59 103zM694 1028l2 -225q4 -227 6.5 -229.5t47.5 -20.5q162 -68 327 -178q14 -10 28.5 -17.5t22 -11.5t7.5 -2v8q-2 8 -4.5 22.5t-4.5 26.5q-6 41 -6 207q0 162 2 176l4 25l-24 10 q-9 4 -316 164q-84 41 -92 45zM805 690q0 39 25.5 71t58.5 42q18 6 61 -4q35 -10 56.5 -41t21.5 -68q0 -20 -10 -45q-31 -67 -101 -67h-2q-66 0 -96 61q-14 27 -14 51z" />
<glyph unicode="T" horiz-adv-x="1183" d="M8 1507q152 -201 375 -274q98 -33 209 -33q117 0 209 31q217 72 360 260l17 16q6 -6 -76 -272q-141 -446 -369 -862q-90 -168 -135 -232q-6 -10 -33 33l-4 6q-147 231 -301 578q-98 225 -172 456q-70 223 -80 293zM205 1194q29 -121 90 -270q76 -184 151 -328 q35 -66 87.5 -155t56.5 -89q8 0 63.5 97.5t106.5 195.5q121 238 186 438q29 90 29 99q0 6 -4 6t-33 -19q-76 -44 -156 -67q-80 -25 -182 -25q-221 0 -395 117zM483 815q0 27 11 51q24 48 77 56q8 2 21 2q35 0 64.5 -19.5t39.5 -50.5q6 -18 6 -35q0 -55 -36 -86 q-34 -24 -71 -24h-3q-66 0 -96 53q-12 20 -13 53z" />
<glyph unicode="U" horiz-adv-x="1323" d="M8 944l25 23q27 20 82 67t98 84q49 41 112.5 95.5t127.5 108t84 71.5q121 102 125 102q4 -2 311 -261t325 -276l19 -16l-14 -29q-100 -199 -255 -342t-343 -213l-43 -16l-39 14q-209 74 -375 240q-82 82 -150 182q-27 43 -59.5 102.5t-30.5 63.5zM172 920q0 -12 57 -103 q154 -238 394 -328l39 -14l28 10q139 51 258 159t187 245l18 35q-29 18 -150.5 121.5t-228 196.5t-110.5 93q-6 0 -43 -32q-63 -51 -244 -205q-205 -174 -205 -178zM319 344v68q0 69 5 69q2 0 18 -24.5t59 -67.5t68 -59q92 -61 193 -62q182 1 319 191l20 28q2 -25 2.5 -71.5 t2.5 -69.5l-13 -16q-76 -104 -178 -154q-76 -39 -156 -39q-174 0 -313 174zM541 840q0 45 32.5 76.5t77.5 31.5q20 0 47 -10q63 -27 64 -102q0 -18 -2 -27q-8 -37 -40 -57.5t-69 -20.5q-67 0 -98 57q-12 25 -12 52z" />
<glyph unicode="V" horiz-adv-x="1617" d="M8 1493h801l803 -2q0 -10 -408 -690q-274 -459 -352 -596q-41 -72 -43 -72l-2 6q-4 4 -10 14.5t-11 18.5q-25 43 -223 377t-376.5 636t-178.5 308zM231 1380q0 -23 291 -520q186 -319 260 -463l27 -45l27 45q74 141 282 500q271 460 271 483q0 4 -580 4q-578 0 -578 -4z M700 907v15q7 63 68 86q18 6 39 6q74 0 100 -53q12 -25 13 -54q0 -68 -58 -96q-16 -8 -51 -8q-37 0 -53 8q-57 25 -58 96z" />
<glyph unicode="W" horiz-adv-x="1161" d="M8 829q569 479 576 484q31 -27 67 -58q256 -213 285 -237q51 -43 106.5 -90t83.5 -72l29 -22q4 -4 -18 -50q-125 -240 -344 -381q-45 -29 -111 -59.5t-90 -34.5h-4q-27 0 -98.5 32t-129.5 71q-201 133 -327 372zM174 807q0 -8 29.5 -57.5t54.5 -79.5q63 -84 137 -138 q86 -66 166 -90q25 -8 51 2q176 66 303 232q23 31 50.5 77t27.5 54q0 10 -151 135q-125 104 -205 172q-51 43 -53 43t-113 -92q-78 -68 -203 -172q-94 -80 -94 -86zM289 1282q55 43 86 66q120 87 188 159l21 23l41 -39q102 -102 233 -188l25 -19h-86h-62q-29 0 -33 4 q-6 6 -59 49t-57 43l-8 -6q-8 -6 -24.5 -19.5t-31.5 -23.5l-59 -49h-174zM375 137v121h418v-121h-418zM483 811q0 47 29 77t80 30q70 0 100 -56q10 -16 10 -51q0 -37 -10 -53q-31 -53 -98 -53h-12q-99 6 -99 106z" />
<glyph unicode="X" horiz-adv-x="1374" d="M8 139l90 62q152 100 217 166q160 158 293 409l31 58l-31 53q-164 309 -352 467q-45 37 -141 100q-23 16 -48.5 33.5t-39.5 28.5l-15 8q0 4 676 4t676 -4q-6 -6 -88 -60q-125 -80 -207 -157q-174 -168 -307 -428l-23 -45l33 -64q86 -164 193 -291q76 -100 172 -176 q20 -18 137 -96l94 -62l-565 -4q-311 -2 -680 -2h-115zM362 256l230 4q127 2 321 2h91l-27 29q-180 190 -272 389q-14 33 -17 33l-8 -17q-31 -72 -117 -193.5t-155 -197.5zM365 1407l47 -49q147 -164 247 -348l31 -58l10 27q39 86 115 196.5t150 190.5l39 41h-639zM580 410 q0 49 27.5 77.5t80.5 28.5q47 0 78 -26.5t31 -73.5q0 -78 -82 -107q-10 -4 -31 -4q-72 0 -98 62q-6 16 -6 43zM580 1249q0 29 8 45q25 57 100 58q78 0 103 -64q6 -18 6 -43q0 -39 -15 -59q-31 -47 -94 -47q-68 0 -96 53q-12 25 -12 57z" />
<glyph unicode="Y" horiz-adv-x="1069" d="M8 1532h53q31 0 256 -8q152 -4 213 -4q59 0 424 10q20 0 46 1t32 1q31 0 31 -4q0 -8 -268 -457l-179 -299q-2 -102 -2 -307t-2 -307h-65l-66 -2v579l-30 49q-25 41 -133.5 224.5t-206 349.5t-103.5 174zM236 1399q0 -8 56 -107.5t124.5 -216.5t81.5 -141q37 -66 41 -66h2 q12 27 89 154t142.5 241t65.5 132q0 8 -299 8q-303 0 -303 -4zM428 1221q0 45 32 75.5t77 30.5q27 0 57 -12q55 -29 55 -94q0 -61 -51 -93q-27 -14 -63 -14q-27 0 -46 8q-61 25 -61 99z" />
<glyph unicode="Z" d="M8 139q0 8 6 45q23 106 33 234q2 27 2 117q0 184 -10 276l-8 61l125 62q127 66 215 115q125 72 278 139q344 149 559 309q12 8 25.5 18.5t19.5 16.5l9 4q-33 -225 -35 -258q-6 -61 -6 -170q0 -131 8 -197q8 -90 8 -96v-16l-137 -70q-33 -16 -152 -79.5t-202.5 -105.5 t-151.5 -69q-311 -133 -537 -303q-43 -33 -49 -33zM139 342l49 33q180 121 347 186q36 17 38 29q8 244 9 368q0 74 -4 74q-8 0 -373 -192l-55 -27l2 -29q4 -27 4 -118q0 -217 -15 -299zM248 690q0 37 20.5 69t55.5 44q18 6 34 6q43 0 75 -33t32 -82t-32 -81.5t-77 -32.5 q-33 0 -59 18q-49 31 -49 92zM688 866q0 -229 4 -229q8 0 228 117q111 59 170 88l36 18l-4 39q-2 18 -2 92q0 225 10 293q6 39 7 51q0 4 -25 -12q-158 -106 -344 -190l-78 -35zM807 977q0 39 21.5 71t60.5 44q16 4 24 4q33 0 64 -20.5t43 -53.5q6 -14 6 -39q0 -29 -10 -53 q-29 -63 -103 -64q-27 0 -45 11q-61 31 -61 100z" />
<glyph unicode="a" horiz-adv-x="610" d="M12 631q-6 12 21 47q61 79 129 196q45 78 145 312q12 -31 27 -70q90 -236 239 -432q31 -39 31 -43t-29 -51q-96 -162 -163 -283q-94 -170 -104.5 -170t-141.5 232q-121 213 -154 262zM111 637l22 -35q43 -74 62 -106q100 -180 108 -185h2q6 0 88 146q53 90 86 145l21 35 l-23 33q-74 111 -133 233l-39 80l-18 -45q-57 -129 -152 -264z" />
<glyph unicode="b" horiz-adv-x="1011" d="M8 1180q0 2 2 2q8 0 49 -41q186 -180 404 -295l45 -25l24 13q221 106 426 292l48 41q-2 -35 -9 -75q-26 -172 -26 -346v-13q0 -86 6 -178q6 -84 6 -88l2 -31l-61 -37q-16 -10 -236 -149q-174 -111 -180 -111q-10 0 -84 51q-37 25 -163 107t-179 115l-66 41l2 26 q18 190 19 307q0 164 -21 322q-8 70 -8 72zM111 510l350 -234l2 226v70.5v62.5t-1 48.5t-1 33.5v14q-10 10 -33 23q-104 55 -219 145q-10 8 -28.5 21.5t-30 22.5t-17.5 15l-22 21l4 -49q4 -66 4 -191q0 -129 -4 -186zM549 506q0 -227 2 -227q8 0 168 106q92 61 141 92l29 17 v186q0 186 6 229q4 25 4 52q0 2 -11 -7.5t-30 -23.5q-141 -115 -278 -182l-31 -15v-227z" />
<glyph unicode="c" horiz-adv-x="1421" d="M8 684q74 -14 80 -14q90 -16 205 -17h39q139 8 153 19q16 12 90 164q63 129 109 280q23 76 25 76q4 0 8 -14q14 -72 71 -215q63 -152 119 -252l25 -45l24 -2q96 -12 187 -13q135 0 258 31l14 2l-31 -45q-137 -207 -225 -463l-14 -41q-135 12 -432 12q-174 0 -424 -10 q-10 0 -15.5 8.5t-19.5 51.5q-86 244 -213 438zM154 582l8 -11q70 -109 139 -282l23 -58l155 2q160 0 160 7q0 10 -102 229l-54 109q-78 -8 -174 -9q-100 0 -141 11zM549 621l10 -23q20 -43 68 -141q78 -170 82 -170q6 0 84 172q33 74 59 125l18 37l-16 28q-88 158 -127 273 q-14 41 -16 43l-2 -2q-2 -4 -6.5 -12.5t-7.5 -17.5t-9 -22q-39 -106 -108 -235zM778 240q0 -6 162 -7l158 -2l22 56q72 182 140 282q6 12 0 13l-31 -7q-16 -4 -139 -4q-98 0 -121 2l-35 2l-43 -86q-113 -238 -113 -249z" />
<glyph unicode="d" horiz-adv-x="960" d="M8 164q0 2 1 11t3 28.5t4 34.5q16 131 17 274v84q-4 170 -8 201q-8 66 -9 67q0 8 72 56q92 57 227 151q154 106 166 107q10 0 172 -109q184 -123 226 -147q55 -35 55 -45q0 -12 -6 -106.5t-6 -166.5q0 -195 28 -389l2 -33q-25 20 -53 47q-100 92 -223 174 q-166 111 -193 111q-25 0 -166 -94q-135 -90 -258 -211q-25 -23 -38 -35t-13 -10zM106 365q8 8 70 59q106 88 213 149l51 31v213q0 209 -4 217h-2q-8 0 -305 -200l-23 -15l5 -45q2 -23 2 -125q0 -156 -4 -233zM322 223v49q2 4 159 4l158 -2v-92h-315zM522 600l27 -14 q137 -68 264 -174l41 -35q-2 25 -6 53q-8 63 -8 246q0 82 2 102l2 51l-154 103q-139 96 -162 106h-2q-4 0 -4 -217v-221z" />
<glyph unicode="e" horiz-adv-x="1396" d="M8 129q0 2 60 33q260 133 476 378.5t347 561.5l16 41l2 -463v-465h482v-84h-310q-2 0 -361.5 -2t-531.5 -2q-180 0 -180 2zM313 209l260 4l261 4v291l-3 289l-20 -35q-178 -309 -453 -518z" />
<glyph unicode="f" horiz-adv-x="1404" d="M8 121v80h481v471l3 467q10 -23 20 -47q276 -651 825 -938l62 -33h-1391zM565 201h260q258 0 258 4q0 2 -18 16q-131 94 -257 233.5t-210 286.5q-20 43 -26.5 43t-6.5 -286v-297z" />
<glyph unicode="g" horiz-adv-x="1073" d="M8 655q0 215 150 369q118 123 286 154q25 4 109 4q109 -2 190 -39l37 -15l-47 -4q-123 -6 -207 -90q-92 -92 -92 -219q0 -121 82 -212t217 -97h29q31 0 61 8q80 20 138.5 78.5t80.5 136.5q8 31 13 31q12 0 12 -109q0 -170 -100.5 -309t-264.5 -192q-84 -27 -176 -27 q-51 0 -90 8q-141 27 -249.5 124t-153.5 237q-25 74 -25 163zM88 659q0 -57 12 -106q41 -156 166 -251t279 -95q74 0 147 24q133 45 215 154q18 25 40 63.5t22 47.5q0 2 -7.5 -1t-21.5 -12q-92 -53 -203 -53q-158 0 -265 108.5t-114 252.5v16q1 151 107 268q20 20 20 27 q0 4 -6 4q-4 0 -45 -10q-125 -33 -215 -123t-121 -217q-10 -47 -10 -97z" />
<glyph unicode="h" horiz-adv-x="1187" d="M8 475q0 111 6 158q42 287 185 430q86 86 213 123q-4 -8 -9 -15q-51 -76 -51 -172q0 -82 39 -152.5t111 -105.5q47 -22 87 -22h3q82 0 148.5 62.5t84.5 146.5q6 31 6 63q0 109 -49 176q-8 12 -8 17h4q4 0 12.5 -2t16.5 -4q115 -41 210 -156t134 -258q31 -117 31 -250 q0 -154 -43 -336l-15 -57h-1065q-25 47 -43 172q-8 47 -8 182zM98 518q0 -164 27 -272l8 -37l459 -2h459q31 121 39 256q2 25 2 72q0 274 -156 452l-27 29l-4 -47q-8 -119 -63.5 -203t-149.5 -117q-35 -12 -94 -12t-98 12q-94 33 -159 109t-79 182q-4 25 -4 35l-2 12 l-18 -22q-92 -106 -129 -275q-10 -41 -11 -172z" />
<glyph unicode="i" horiz-adv-x="765" d="M8 164q6 14 21 33q137 203 243 548l109 500q4 0 25 -123q68 -379 192 -661q61 -137 143 -271l19 -30q0 -2 -377 -2q-375 0 -375 6zM156 244h452q-10 20 -24 43q-111 182 -185 489l-16 60q-8 -37 -21 -84q-72 -287 -186 -471z" />
<glyph unicode="j" horiz-adv-x="962" d="M8 524v31q2 72 19.5 127t70.5 162q55 109 78 180.5t35 171.5l2 23h539l4 -48q12 -109 49 -200l43 -86q84 -160 104 -277q4 -37 4 -63q0 -59 -10 -105q-29 -102 -117 -171.5t-225 -98.5q-41 -10 -125 -10q-82 0 -123 10q-258 53 -327 233q-20 51 -21 121zM102 539 q0 -70 27 -121q37 -72 126 -119t202 -51h26q197 0 299 102q76 76 76 193v26q-4 70 -17.5 115t-60.5 139q-75 154 -100 260l-8 47h-383q0 -2 -2 -15t-4 -23q-8 -59 -39 -146q-16 -39 -68 -139q-45 -90 -57.5 -133t-16.5 -113v-22z" />
<glyph unicode="k" horiz-adv-x="1495" d="M8 649l4 8q4 8 12.5 22.5t18.5 29.5q72 111 113 196q88 182 123 297l8 27l22 -2q6 0 36 -1t91.5 -3t104.5 -4q84 -2 209 -2q123 0 206 2q43 2 104.5 4t91.5 3t36 1l22 2l13 -39q78 -250 231 -483q10 -14 18.5 -27.5t12.5 -22t2 -8.5q-14 2 -29 6q-106 25 -262 25 q-190 0 -211 -14q-16 -10 -94 -172q-86 -180 -133 -359q-4 -18 -10 -18q-4 0 -11 24q-51 184 -131 353q-20 43 -56 105.5t-40 66.5q-23 14 -211 14q-156 0 -262 -25zM162 760q20 0 41 4q43 6 172 6q70 0 94 -2l43 -4l31 65l137 293q-78 2 -172 4l-170 2l-6 -10 q-86 -231 -162 -340q-2 -4 -5 -8t-3 -8v-2zM580 715l18 -33q33 -57 83 -171t60 -151q4 -12 7 -12q4 0 14 37q53 154 141 305l15 25l-27 57q-60 127 -115 248q-23 47 -29 47t-83 -172q-37 -82 -60 -127zM815 1122l135 -288l35 -70l45 4q57 4 94 4q113 0 211 -12 q-119 221 -155 313l-21 55h-51q-293 0 -293 -6z" />
<glyph unicode="l" horiz-adv-x="1214" d="M8 895q0 88 8 166q23 162 29 168l12 -35q39 -150 134.5 -258.5t234.5 -157.5q94 -33 176 -33q18 0 35 5q150 25 221 61q113 57 192.5 159.5t112.5 233.5q8 33 11 33q4 0 22 -129q12 -92 12 -180q0 -408 -209 -627q-141 -147 -340 -168q-16 -2 -47 -2q-193 0 -340 125 q-31 27 -35 27t-37.5 39.5t-54.5 68.5q-102 152 -131 383q-6 43 -6 121zM80 940l2 -68q4 -154 68.5 -301t160.5 -227q139 -115 303 -115h27q190 6 303 133q172 184 197 592l-29 -43q-86 -131 -229 -204q-131 -66 -293 -66q-90 0 -174 25q-193 61 -316 243z" />
<glyph unicode="m" horiz-adv-x="1220" d="M8 451q0 139 31 268q53 207 185.5 342t316.5 166q18 4 73 4q72 0 107 -8q207 -45 331 -217t156 -424q4 -29 4 -146q0 -115 -4 -145q-20 -174 -26 -174q-2 0 -11 26q-51 221 -221 351q-151 112 -337 112h-3q-240 0 -399 -168q-115 -119 -160 -303q-4 -14 -6 -14t-16 84 q-20 139 -21 246zM80 440q0 -20 2 -20q4 0 31 39q74 113 203.5 181.5t291.5 68.5h27q180 -6 328 -105q94 -63 153 -155q27 -43 29 -43t2 10q0 57 -19 159q-77 481 -405 551q-35 8 -86 9q-100 0 -178 -29q-137 -51 -234.5 -190.5t-132.5 -335.5q-12 -61 -12 -140z" />
<glyph unicode="n" horiz-adv-x="985" d="M8 92q0 27 56.5 204t97.5 284q133 340 307 614q4 6 7 11t6 8.5t6.5 6.5t5.5 5h2q6 -6 36 -62q227 -381 365 -794q27 -76 54.5 -173.5t27.5 -109.5q-2 -4 -29 29q-111 141 -282 198q-86 27 -176 27q-170 0 -320 -98q-33 -23 -79 -66t-66 -70q-18 -27 -19 -14zM176 360 q0 -8 47 17q111 67 264 67h5q158 0 280 -71l37 -19q2 0 -9.5 37t-28.5 87t-32 85q-87 222 -200 410q-8 12 -18.5 29.5t-16.5 25.5l-6 10q-2 2 -6.5 0t-10.5 -11t-16 -26q-113 -180 -201 -391q-23 -55 -55.5 -147t-32.5 -103z" />
<glyph unicode="o" horiz-adv-x="1363" d="M8 664q0 4 49 18q127 39 285 166q78 63 162 156.5t137 175.5q35 53 37 53t39 -55q29 -45 76 -105q37 -47 113.5 -125t119.5 -110q145 -115 281 -158l51 -18l-21 -5q-162 -41 -338 -185t-290 -333q-29 -45 -33 -45q-2 0 -2 4q0 8 -51.5 80t-83.5 113q-106 127 -240.5 227 t-269.5 137q-20 6 -21 9zM240 668l43 -23q82 -45 187 -142t171 -184q31 -41 37 -47q2 -2 6 2.5t11 13.5t14 19q68 98 171 193.5t195 146.5l31 17l-31 20q-80 49 -177 140.5t-179 197.5q-8 8 -17.5 20.5t-13.5 18.5l-6 8l-59 -72q-57 -72 -156.5 -168t-192.5 -143z" />
<glyph unicode="p" horiz-adv-x="1286" d="M8 1071l47 23q254 119 535 135q27 2 82 2q115 0 180 -14q152 -33 309 -95q106 -41 119 -53l-31 -35q-127 -131 -233 -411q-102 -272 -103 -482v-47h-538l-2 76q-6 176 -82 399q-102 309 -258 475zM178 1028q0 -4 17 -24q80 -109 145 -283q47 -125 79 -267.5t32 -228.5 v-37h391l2 62q12 260 110 491q27 61 73 147.5t73 119.5q8 10 8 20q-4 6 -59.5 30t-100.5 38q-145 45 -301 45q-137 0 -260 -33q-49 -12 -129 -43t-80 -37z" />
<glyph unicode="q" horiz-adv-x="1052" d="M8 121v2q0 16 6 63q25 203 25 365q0 139 -21 360l-2 31l80 55q14 10 45 31t53.5 36.5t36.5 25.5q54 40 58 40t22 -30q33 -51 90.5 -86t126.5 -35q61 0 127 37q25 16 55.5 45t41 49t16.5 20l33 -20q29 -18 127 -86l98 -66l-6 -55q-10 -94 -10 -256q0 -221 22 -401 q8 -66 12 -90l3 -21l-58 55q-190 184 -397 304q-59 32 -64 32q-14 0 -147 -88q-178 -119 -318 -264q-53 -53 -55 -53zM113 348l22 21q78 70 156 129q119 88 164 112l24 15v256l-18 6q-90 23 -158 82l-29 24q-66 -49 -120 -86l-39 -26l4 -56q2 -29 2 -161q0 -213 -4 -275z M569 752q0 -129 9 -131q35 -10 167 -105q104 -74 166 -131l29 -27l-4 23q-14 133 -14 371q0 66 2 88l4 55l-45 31q-10 6 -37 23.5t-35 23.5l-29 20q-2 0 -18 -16q-66 -68 -162 -90l-33 -6v-129z" />
<glyph unicode="r" horiz-adv-x="1085" d="M8 164v31q0 369 174.5 624.5t446.5 304.5q37 4 78 4q98 0 149 -10q84 -18 162 -59q6 -4 16 -8q33 -16 39 -24.5t6 -41.5v-20l-2 -64q-14 6 -28 17q-100 68 -222 94q-39 8 -104 8q-70 0 -92 -8l-2 -391v-394h223q227 0 227 -4v-51l-2 -47h-1067zM102 227h447v381 q0 381 -6 381t-51 -22q-168 -82 -267.5 -263.5t-118.5 -441.5z" />
<glyph unicode="s" horiz-adv-x="931" d="M8 1135q0 6 47 -31q141 -106 355 -201q137 -59 264 -131q25 -16 69.5 -38.5t97 -48.5t66.5 -34q-2 -31 -6 -67q-6 -70 -6 -144q0 -131 20 -258q10 -57 11 -67l-4 2q-6 2 -14.5 8t-16.5 12q-152 119 -381 217q-84 35 -148 70q-18 10 -92.5 48t-109.5 56l-135 70l4 16 q12 80 12 187q0 162 -25 289zM104 985q14 -129 15 -219v-31l-2 -94l39 -20q20 -8 135 -70t135 -70v332l-25 10q-100 39 -221 115q-20 12 -42.5 26.5t-33.5 20.5zM512 672q0 -115 2 -160l2 -76q98 -33 307 -164q-8 119 -8 217v117l-84 45q-47 25 -149 76q-14 8 -32 17.5 t-26 13.5l-10 4q-2 0 -2 -90z" />
<glyph unicode="t" horiz-adv-x="884" d="M8 1145q2 4 19 -19q47 -63 133 -122q129 -86 278 -86q152 0 285 86q80 53 127 114l29 33q6 -6 -64 -231q-45 -139 -117 -308q-119 -276 -239 -465l-17 -24l-16 27q-223 356 -358 778q-59 203 -60 217zM164 897q0 -10 29.5 -94t50.5 -135q41 -98 113.5 -235.5t85 -137.5 t92 154.5t122.5 257.5q66 168 66 192q0 8 -25 -8q-102 -60 -235 -66h-19q-125 0 -243 58q-27 14 -30 15t-7 -1z" />
<glyph unicode="u" horiz-adv-x="989" d="M8 719q0 6 334 289q30 27 104 88q47 39 49.5 39t243 -203t244.5 -207q1 -1 1 -3q0 -21 -71 -126q-147 -219 -374 -305q-27 -10 -41.5 -10t-67.5 20q-215 88 -352 297q-70 100 -70 121zM141 717q-8 -8 2 -31q104 -205 312 -293q27 -12 41 -12q8 0 63 22q176 78 285 275 l16 29l-29 24q-10 8 -166.5 141.5t-168.5 143.5l-172 -146q-168 -139 -183 -153zM242 272v58q0 49 2 49q2 2 6 -4q2 -2 12 -15.5t17 -21.5q66 -84 163 -109q25 -6 54 -6q45 0 75 13q90 32 156 120l25 33v-55v-35q0 -20 -11 -37q-104 -139 -245 -139q-129 0 -232 121z" />
<glyph unicode="v" horiz-adv-x="1206" d="M8 1112q0 4 596 4t596 -4t-112.5 -194.5t-256 -432t-186.5 -315.5q-37 -63 -41 -64q-2 0 -67 111q-14 27 -52.5 89.5t-91.5 150.5t-90 151q-295 494 -295 504zM178 1028q0 -16 230 -410q70 -119 137 -243q43 -80 61 -107l12 27q47 92 183 323q229 392 229 410q0 4 -426 4 t-426 -4z" />
<glyph unicode="w" horiz-adv-x="843" d="M8 645q4 9 377 320q8 6 17.5 14t15.5 12l4 4q4 0 210 -174t206 -178q0 -2 -17 -35q-57 -113 -156.5 -205t-209.5 -131q-18 -6 -33 -6q-27 0 -80 27q-211 102 -319 313q-16 35 -15 39zM131 633q-4 -8 8 -33q25 -49 72 -100t94 -82q86 -55 117 -56q37 0 110 50 q72 47 125 116q16 20 38 57.5t22 43.5q0 2 -146.5 126t-148.5 124q-2 2 -143.5 -119t-147.5 -127zM248 1004q88 63 149 124l25 25q18 -18 43 -41q72 -70 156 -123q20 -14 20 -16q0 -4 -63 -4h-66l-43 37l-45 34q-23 -14 -47 -34l-45 -37h-64q-65 0 -65 2t45 33zM266 180 q0 43 2 47t154 4h153v-90h-307z" />
<glyph unicode="x" horiz-adv-x="976" d="M8 182l82 56q164 111 270 274q88 137 89 156q0 29 -91 161q-115 170 -270 271q-78 51 -78 55q0 2 482 2q475 0 475 -4q0 -2 -84 -57q-80 -53 -131 -105q-131 -131 -209 -291l-17 -32l27 -50q106 -201 233 -309q31 -27 109 -78l76 -49l-238 -2h-483zM268 268h434l-32 37 q-100 117 -154 221q-25 43 -29 43t-20 -30q-49 -100 -170 -238zM268 1067l41 -45q94 -111 156 -221l24 -43l23 43q74 135 156 227l34 39h-434z" />
<glyph unicode="y" horiz-adv-x="761" d="M8 1151q0 4 31 4q82 0 184 -4q45 -2 119 -2q31 0 219 4q123 4 152 4l41 -2q6 -6 -179 -311l-141 -234v-430h-96v414l-125 207q-205 346 -205 350zM172 1057q0 -8 107 -193q16 -29 38.5 -66.5t35 -59t14.5 -27.5q10 -23 18 -23q2 0 2 4t137 244q12 25 31.5 57.5t28 48 t8.5 17.5q-96 2 -211 2q-209 0 -209 -4z" />
<glyph unicode="z" horiz-adv-x="890" d="M8 180q4 20 8 45q23 125 23 273q0 109 -12 184l-4 14l83 39q74 37 152 82q86 51 195 98q268 120 403 226q6 6 13.5 10t11.5 6t4 0q0 -8 -11 -74q-18 -113 -18 -225q0 -94 14 -213q-25 -14 -81 -43t-126.5 -64.5t-91.5 -45.5q-102 -53 -157 -78q-203 -88 -348 -193z M102 330l45 28q98 63 209 113l47 23v79q0 6 2.5 83t2.5 112q0 37 -2.5 37t-141.5 -72l-139 -74l-12 -4l4 -82v-45q0 -133 -15 -198zM487 694q0 -158 4 -158t82 42q12 6 67.5 35.5t76.5 39.5l67 35l-2 113q0 108 4 157q4 25 5 52q0 2 -5.5 -1t-14.5 -8.5t-19 -11.5 q-86 -57 -211 -115l-54 -22v-158z" />
<glyph unicode="&#xc1;" horiz-adv-x="776" d="M8 786.5q0 4.5 35 51.5q78 106 129 190l29 45h377l12 -20q70 -117 143 -213q37 -47 37 -53.5t-43 -73.5q-41 -63 -164 -279.5t-131 -228.5l-41 -68l-20 29q-45 66 -158 270q-115 203 -172 295q-33 51 -33 55.5zM248 1159q0 2 26 55q54 109 97 224q14 39 16 39q2 2 6 -7 q4 -6 37 -88q20 -51 98 -223q-61 -2 -139 -2q-141 0 -141 2zM291 778q0 -43 27.5 -70.5t70.5 -27.5t69.5 26.5t26.5 69.5q0 82 -86 98h-10q-41 0 -69.5 -27.5t-28.5 -68.5z" />
<glyph unicode="&#xc4;" horiz-adv-x="696" d="M8 352v144l27 -35q57 -78 123 -121q90 -63 192 -64q94 0 182 58q78 53 136 133l22 29v-144l-14 -18q-4 -6 -45 -51q-129 -135 -283 -136q-109 0 -203 68q-70 49 -116 111zM12 877l37 51q180 239 291 538l8 21q16 -37 33 -78q104 -262 266 -481l39 -51l-45 -72 q-25 -39 -145.5 -251t-139.5 -237l-8 -12l-37 60q-25 41 -133 229t-127 219zM262 864q0 -10 12 -35q23 -45 74 -45q35 0 60.5 22.5t25.5 57.5v13q-6 45 -47 65q-20 10 -39 10q-35 0 -60.5 -25.5t-25.5 -62.5z" />
<glyph unicode="&#xc6;" horiz-adv-x="921" d="M8 793l39 41q260 276 410 616q14 31 18 31q4 -4 4 -316v-311h436v-115h-206h-91q-125 0 -139 -6v-293q0 -293 -4 -293t-53 64q-47 61 -242 344q-74 111 -117 166zM190 791q0 -37 23 -64q27 -31 76 -31q57 0 84 39q10 17 10 58q0 39 -9 54t-36 30q-20 10 -45 10 q-61 0 -84 -35q-18 -29 -19 -61z" />
<glyph unicode="&#xc9;" horiz-adv-x="1857" d="M8 143.5q0 6.5 45 28.5q561 283 926 887l10 18h213v-831h649v-109h-921q-922 0 -922 6.5zM819 422q0 -16 10 -41q27 -57 89 -57q35 0 61.5 20.5t34.5 56.5q2 8 2 23q-1 61 -60 88q-25 8 -36 8q-41 0 -71 -29.5t-30 -68.5zM1042 1165l7 15q8 12 21.5 37.5t23.5 48.5 l106 229q2 -74 2 -166v-168h-82q-78 0 -78 4z" />
<glyph unicode="&#xcb;" horiz-adv-x="1820" d="M8 139l68 41q137 82 218 143.5t195 172.5q421 407 650 948l24 51v-1249h652v-109h-1108l63 -33q174 -92 326 -221l67 -59v-160l-59 57q-133 129 -272.5 218.5t-342.5 175.5l-49 20q-72 0 -216 2t-216 2zM782 424q0 -8 4 -29q23 -72 95 -71q63 0 90 57q8 18 8 39 q0 33 -19.5 59.5t-48.5 36.5q-20 4 -28 4q-41 0 -71 -28.5t-30 -67.5z" />
<glyph unicode="&#xcd;" horiz-adv-x="978" d="M8 147l21 31q219 332 360 862l8 37h181l8 -33q78 -311 184 -534q33 -70 99.5 -192.5t86.5 -153.5l17 -21h-484q-481 0 -481 4zM389 428q0 -45 35 -74q27 -25 63 -24q33 0 62 24q35 29 35 76q0 45 -35 74q-23 18 -35 20q-20 4 -29 4q-41 0 -68.5 -30.5t-27.5 -69.5z M420 1163q4 16 23.5 115.5t25.5 136.5q4 18 7 43t6 39t3 16l2 7l17 -86q4 -31 17.5 -95.5t23.5 -113.5t10 -58q0 -6 -66 -6z" />
<glyph unicode="&#xcf;" horiz-adv-x="976" d="M8 143l35 54q137 217 243.5 506.5t157.5 576.5q39 213 39 240v4q2 0 21.5 -100.5t47.5 -233.5t48 -193q4 -8 9 -27.5t13.5 -48t14.5 -47.5q80 -264 188 -471q96 -182 121 -219q25 -35 25 -37q0 -4 -479 -4h-484zM391 432q0 -43 30 -72.5t68.5 -29.5t69.5 30q27 27 27 66 v12q-2 37 -30 63.5t-67 26.5q-8 0 -28 -4q-18 -4 -40 -25.5t-26 -37.5q-4 -20 -4 -29z" />
<glyph unicode="&#xd0;" horiz-adv-x="1267" d="M8 125q0 20 4 45q33 225 33 473q0 152 -16 322l-9 100q254 166 375 248q229 156 237.5 155.5t252.5 -159.5q160 -106 346 -222q4 -4 4 -12q0 -4 -1 -10t-2 -17.5t-1 -23.5q-14 -145 -14 -311q0 -240 34 -484q10 -68 11 -79l-9 6q-8 6 -21 17t-28 26q-252 240 -534 379 l-33 16l-51 -29q-279 -152 -506 -372zM256 831q0 -25 8 -40q27 -55 90 -56q72 1 92 64q4 10 5 28q0 39 -26 71t-65 32h-6q-41 0 -69.5 -30t-28.5 -69zM424 266h420v-123h-209l-209 2v62zM815 836q0 -63 57 -93q20 -10 41 -10q33 0 56 17q43 31 43 79q-1 60 -54 89 q-25 12 -49 12q-37 0 -63 -25q-31 -29 -31 -69z" />
<glyph unicode="&#xd3;" horiz-adv-x="1652" d="M8 825q0 2 25 11q186 45 407 233l25 21h723l39 -31q145 -121 262 -174.5t151 -53.5q16 0 -6 -10l-24 -6q-158 -41 -332 -172q-256 -193 -436 -489l-15 -23l-24 39q-86 145 -217 284.5t-271 231.5q-154 102 -282 131q-25 6 -25 8zM561 1178q0 2 39 45q125 137 203 262 q23 31 28 31q80 -137 211 -281q49 -53 49.5 -57t-264.5 -4q-266 0 -266 4zM727 829q0 -29 14 -53q25 -43 84 -43q70 0 93 51q8 18 8 43q0 57 -45 82q-25 12 -54 13q-68 0 -90 -50q-10 -20 -10 -43z" />
<glyph unicode="&#xd6;" horiz-adv-x="1648" d="M8 829l6 2q12 0 68.5 20.5t93.5 39.5q162 80 328 234.5t287 340.5l36 56l9 -15q119 -193 289.5 -358.5t338.5 -249.5q80 -41 148 -61l4 -2l26 -11q-6 -4 -59 -18q-168 -53 -354 -203q-109 -86 -225 -221q-94 -115 -158 -219q-18 -29 -21 -29q-4 0 -28 43 q-123 203 -295 359q-244 225 -461 278q-33 10 -33 14zM727 834q0 -35 16 -62q29 -41 84 -41q80 0 97 72q2 8 2 22q0 63 -49 86q-25 12 -52 13q-74 0 -94 -64q-4 -16 -4 -26z" />
<glyph unicode="&#xda;" horiz-adv-x="1320" d="M8 938q0 10 84 80l86 72h967l84 -70q18 -14 40.5 -33.5t33.5 -30.5l12 -10q0 -20 -76 -145q-170 -272 -436 -402q-115 -55 -144 -55q-27 0 -157 66q-250 133 -408 374q-86 127 -86 154zM281 1174q16 18 198 172q180 150 182.5 149.5t180.5 -149t192 -162.5l2 -2 q0 -8 -374 -8h-381zM317 344l2 70v71q109 -162 259 -209q31 -10 86 -10q53 0 84 10q129 39 229 175q16 23 22.5 22.5t6.5 -27.5v-40v-60l-21 -27q-141 -182 -323 -182q-106 0 -201 64q-23 14 -63 53t-60 65zM555 834q0 -70 74 -89q8 -2 22 -2q39 0 68 23q33 27 33 74 q0 51 -39 78q-14 12 -56 14h-8q-88 0 -94 -86v-12z" />
<glyph unicode="&#xdc;" horiz-adv-x="1320" d="M8 936q0 12 588 508q61 51 66 51q8 0 63 -49l586 -496q4 -4 4 -8t-25 -53q-78 -152 -200.5 -278t-268.5 -201q-127 -66 -159 -66q-4 0 -62 21q-307 123 -502 413q-90 133 -90 158zM317 346v68l2 69q12 -16 27 -34q100 -133 232 -173q31 -10 84 -10t83 10q137 43 232 173 q18 25 24 24q4 0 5 -31v-32v-64l-21 -27q-141 -182 -323.5 -182t-323.5 182zM553 838q0 -25 10 -45q25 -49 88 -50q41 0 70 25q31 29 31 72q0 49 -41 78q-16 12 -54 14h-8q-63 0 -86 -49q-10 -20 -10 -45z" />
<glyph unicode="&#xdd;" horiz-adv-x="1075" d="M8 1505l150 -2q266 -8 366 -8q86 0 131 2q37 2 137.5 4t127.5 2l149 2l-16 -30q-63 -119 -385 -650l-56 -92v-602h-129v578l-172 284q-256 432 -272 461q-4 10 -31 51zM440 1194q0 -61 54 -86q18 -8 47 -8q31 0 49 10q47 25 47 82q0 61 -49 86q-23 12 -49 12 q-63 0 -86 -47q-12 -25 -13 -49z" />
<glyph unicode="&#xde;" horiz-adv-x="1382" d="M8 1296q26 23 139 76q254 121 537 121q66 0 139 -6q250 -23 461 -135q78 -41 92 -56q-16 -33 -39 -71q-285 -500 -374 -1075l-13 -80h-516l-10 67q-31 207 -94 424q-98 338 -285 668zM571 969q0 -31 15 -58q35 -63 108 -63q25 0 54 12q68 33 67 109q1 77 -67 108 q-29 14 -60 15q-49 0 -83 -37t-34 -86z" />
<glyph unicode="&#xe1;" horiz-adv-x="577" d="M8 538.5q0 4.5 15 22.5q61 76 102 146l22 38h281q90 -139 117 -174l26 -34l-28 -43q-4 -6 -21.5 -35t-36 -61.5t-34.5 -61.5q-154 -270 -164 -270q-8 0 -150 247q-66 121 -102 176q-27 45 -27 49.5zM184 807q-2 2 19 41q38 76 71 168q12 33 15 31q4 -4 22 -56 q14 -43 49 -114q31 -66 31 -68q0 -4 -137 -4q-68 0 -70 2z" />
<glyph unicode="&#xe4;" horiz-adv-x="524" d="M8 199v55l2 55l29 -37q74 -94 164 -116q25 -6 57 -6q45 0 70 8q86 25 157 116l27 35q2 -18 2 -53t2 -51l-16 -21q-51 -66 -117 -100q-20 -10 -27 -16q-27 -20 -98 -21q-41 0 -63 8q-94 31 -164 115zM14 588q0 10 33 53q55 80 64 92q80 127 100 193q14 43 43 114q4 10 8 4 q70 -211 207 -397q39 -55 39 -57t-13.5 -22.5t-13.5 -24.5q0 -8 -107.5 -192.5t-111.5 -184.5t-123 205q-74 129 -98 170q-27 39 -27 47z" />
<glyph unicode="&#xe6;" horiz-adv-x="729" d="M8 625l31 34q41 43 101.5 118t60.5 83l16 29q35 53 92.5 157.5t57.5 118.5q0 12 8 2l2 -4q2 -4 2 -248v-241h338q8 -25 4 -60l-4 -32h-334v-230q0 -227 -4 -235h-2q-10 0 -182 248q-61 90 -138 194z" />
<glyph unicode="&#xe9;" horiz-adv-x="1472" d="M8 117l60 33q422 223 688 647l37 57h163v-653h254l252 -2q0 -14 2 -42t2 -40h-1458zM831 918q0 4 41 86q48 96 62 131l20 45l2 -105v-55v-76v-29h-63q-61 0 -62 3z" />
<glyph unicode="&#xeb;" horiz-adv-x="1429" d="M8 117q0 2 58 37q121 70 196 133q160 131 313 319q185 225 312 518l24 62q2 -166 2 -493.5t2 -493.5h254l254 -2l-2 -41v-41l-430 -2h-428l55 -31q135 -74 256 -178l39 -35v-64q0 -63 -2 -63l-34 35q-172 182 -471 309l-64 27h-166q-168 0 -168 4z" />
<glyph unicode="&#xed;" horiz-adv-x="761" d="M8 115q8 18 23 39q163 257 274 667l6 19h142l14 -58q63 -240 141 -401q66 -139 129 -238l19 -28l-373 -2zM328 907q0 4 18 92q15 72 25 140q6 49 10 45t12 -56q8 -49 43 -225h-55q-53 0 -53 4z" />
<glyph unicode="&#xef;" horiz-adv-x="768" d="M8 113l25 37q117 178 210 447.5t134 545.5l8 49q8 -35 14 -74q74 -432 205 -717q18 -43 65.5 -132t67.5 -119l25 -37h-754z" />
<glyph unicode="&#xf0;" horiz-adv-x="1216" d="M8 662q0 3 299 253q295 248 301 248q4 0 147.5 -120.5t291 -244.5t153.5 -128l10 -8l-14 -27q-70 -143 -182 -264l-29 -31h-754l-34 37q-66 66 -134 178q-59 94 -55 107zM301 279q0 4 307 4q305 0 305 -4q0 -6 -54 -43t-97 -60q-33 -18 -88.5 -40.5t-65.5 -22.5 q-35 0 -145 57q-41 20 -101.5 61.5t-60.5 47.5z" />
<glyph unicode="&#xf3;" d="M16 635q-20 0 11 10q8 2 18 6q130 35 277 158l36 31h555l35 -29q102 -86 137 -96q12 -4 52.5 -21.5t74 -32t43.5 -14.5q20 0 -4 -8q-8 -4 -18 -6q-141 -37 -306 -175.5t-268 -307.5l-22 -39q-102 164 -225 282q-125 123 -248 187q-31 16 -83 35.5t-65 19.5zM428 903 l43 47q63 70 166 219q117 -164 145 -196q18 -18 39 -43t23 -27h-416z" />
<glyph unicode="&#xf6;" d="M14 639q-16 0 9 8q8 4 22 8q72 20 184 90q98 66 198.5 166t172.5 209l37 54q10 -14 22 -35q88 -139 224.5 -266.5t259.5 -184.5q92 -41 114 -41q20 0 -8 -10q-6 -2 -16 -4q-141 -37 -299 -168t-268 -305l-31 -45q-2 0 -25 39q-82 137 -211 256.5t-254 181.5 q-94 47 -131 47z" />
<glyph unicode="&#xfa;" horiz-adv-x="1064" d="M8 758q33 28 72 61l70 58h772l63 -54q14 -12 31.5 -27.5t28 -23.5t12.5 -10q6 -4 -13 -41q-168 -324 -473 -434l-34 -13l-25 9q-70 20 -166 79q-158 100 -266 265q-20 33 -47 81t-25 50zM231 944q0 2 150.5 129t157.5 127q4 0 78.5 -63.5t148.5 -128.5l74 -64 q0 -4 -305 -4q-304 0 -304 4zM262 272v60q0 57 4 53q2 -2 31 -39q102 -131 240 -131q23 0 32 2q123 18 215 141l23 31l2 -53q0 -57 -2 -64q-4 -10 -42 -50t-65 -58q-82 -55 -165 -55q-139 0 -256 141z" />
<glyph unicode="&#xfc;" horiz-adv-x="1034" d="M8 737l43 37q53 45 129 109.5t152 130.5q180 154 184 153.5t109 -90.5q367 -311 403 -340l-12 -24q-143 -285 -400 -404q-37 -18 -75 -30l-25 -9l-39 15q-139 53 -259 163.5t-191 253.5zM252 270l2 58v57q117 -172 264 -172q63 0 129 37q55 33 113 106l22 29v-117 l-22 -26q-109 -133 -242 -133h-20q-131 14 -226 137z" />
<glyph unicode="&#xfd;" horiz-adv-x="829" d="M8 1167l131 -4q168 -4 280.5 -4t276.5 4q55 2 105 2q23 0 22 -2q0 -6 -209 -358l-137 -230v-469h-102v445l-133 219q-55 92 -107.5 181t-85.5 146.5t-41 69.5z" />
<glyph unicode="&#xfe;" horiz-adv-x="1026" d="M8 1018l23 14q70 45 174 81t196 44q27 4 111 4t111 -4q217 -20 387 -133l10 -8l-31 -51q-217 -377 -278 -809l-6 -39l-41 -2q-66 -4 -187 -4q-133 0 -145 4q-10 4 -17 45q-35 256 -137 514q-55 137 -141 293z" />
<glyph unicode="&#x2000;" horiz-adv-x="808" />
<glyph unicode="&#x2001;" horiz-adv-x="1616" />
<glyph unicode="&#x2002;" horiz-adv-x="808" />
<glyph unicode="&#x2003;" horiz-adv-x="1616" />
<glyph unicode="&#x2004;" horiz-adv-x="538" />
<glyph unicode="&#x2005;" horiz-adv-x="404" />
<glyph unicode="&#x2006;" horiz-adv-x="269" />
<glyph unicode="&#x2007;" horiz-adv-x="269" />
<glyph unicode="&#x2008;" horiz-adv-x="202" />
<glyph unicode="&#x2009;" horiz-adv-x="323" />
<glyph unicode="&#x200a;" horiz-adv-x="89" />
<glyph unicode="&#x202f;" horiz-adv-x="323" />
<glyph unicode="&#x205f;" horiz-adv-x="404" />
<glyph unicode="&#x25fc;" horiz-adv-x="1157" d="M0 0v1157h1157v-1157h-1157z" />
</font>
</defs>
</svg>
