<?xml version="1.0" encoding="utf-8"?>
<!-- Generator: Adobe Illustrator 25.2.3, SVG Export Plug-In . SVG Version: 6.00 Build 0)  -->
<svg version="1.1" id="Layer_1" xmlns="http://www.w3.org/2000/svg" xmlns:xlink="http://www.w3.org/1999/xlink" x="0px" y="0px"
	 viewBox="0 0 8578.8 7910.9" style="enable-background:new 0 0 8578.8 7910.9;" xml:space="preserve">
<style type="text/css">
	.st0{fill:#FFFFFF;}
	.st1{fill:#C4C4FF;}
</style>
<circle class="st0" cx="3955.4" cy="3955.4" r="3955.4"/>
<circle class="st1" cx="3955.4" cy="3955.4" r="2926.8"/>
<g>
	<g>
		<path d="M3337.6,3168.7c-10.1,12.4-20.7,24.3-30.1,37.2c-41.6,56.9-82.8,114.2-124.4,171.2c-25.5,35-51.5,69.7-77.2,104.5
			c-25.1,33.9-50.1,67.7-75.2,101.6c-26.1,35.3-52.3,70.5-78.4,105.7c-24.8,33.3-49.6,66.7-74.6,99.9c-26,34.6-52.1,69.1-78.4,103.5
			c-24.9,32.6-49.8,65.1-75.1,97.3c-51.3,65.4-102.7,130.8-154.3,195.9c-24.4,30.8-49.1,61.3-74.2,91.6
			c-51.7,62.2-103.1,124.6-155.8,186c-50,58.3-100.8,115.9-152.5,172.8c-49.3,54.3-99.3,108-150.6,160.4
			c-50.1,51.1-101.4,101.3-153.9,150c-48.3,44.8-97.8,88.4-148.6,130.2c-50.9,41.9-102.9,82.5-156.5,120.7
			c-47.9,34.2-97.6,66.5-148.4,96.2c-94,55-191.2,103.8-295.9,135.6c-146,44.4-294.2,57.8-444.7,26.5
			c-68.5-14.2-130.2-42-182.9-90.3c-29.2-26.8-51.6-57.2-71.6-90.5c-53.9-89.8-53.7-187.1-39.2-285.9c4.5-30.2,10.2-61.1,21.5-89.3
			c23.9-60,49.2-119.7,78.8-177c20.3-39.2,46.7-75.8,74-110.7c44.8-57.5,94.5-111.4,152.9-155.1c46.6-34.8,95.4-68,147.1-94.5
			c94-48.1,194.8-69,301.2-59c55.9,5.2,100.1,44.1,109,85.1c9,41.5,3,81.5-19.2,118.3c-20.3,33.6-36.8,70.7-62.3,99.8
			c-77.9,88.6-173.6,149-293.7,161.5c-27.6,2.8-57.2,0.8-84.1-6.1c-43.9-11.2-66.9-45.5-68.3-91.4c-0.3-10.3,0-20.7,0-33
			c-10.3,9-20.5,16.2-28.6,25.3c-62.9,70.8-110.8,149.7-140.4,240.8c-24.3,74.9-33.2,150-12.3,224.9
			c28.1,100.8,89.3,167,203.9,184.2c79.6,11.9,158.5,1.5,236.6-15.1c84.3-17.9,164.9-46.6,240.7-87.6
			c52.3-28.3,104.8-56.7,154.9-88.7c53.1-33.8,104.7-70.3,154.7-108.6c52.2-40,102.8-82.4,152.1-126.1
			c52.3-46.4,103.2-94.4,152.6-143.7c52.3-52.1,103.2-105.8,153-160.4c52.2-57.2,102.4-116.1,153.1-174.6
			c25.3-29.2,50.3-58.8,74.7-88.8c51.5-63,102.9-126.2,153.9-189.5c25.7-31.9,50.8-64.4,75.9-96.8c25.9-33.3,51.6-66.7,77.2-100.2
			c26-33.9,51.8-67.9,77.5-102c25.1-33.1,50.1-66.3,74.9-99.7c26.2-35.2,52.3-70.4,78.4-105.7c25-33.9,50-67.8,74.8-101.9
			c26.2-35.9,52.1-72,78.2-107.9c25.1-34.6,50.3-69.1,75.6-103.5c25.6-35,51.2-69.9,76.8-104.8c25.3-34.4,50.7-68.8,76.2-103.1
			c25.8-34.8,51.6-69.5,77.6-104.3c23.8-31.9,48.1-63.5,71.5-95.7c7.6-10.5,16.3-14.4,29.1-14.4c160.7,0.3,321.5,0.4,482.2-0.1
			c13.6,0,19.3,4.4,22.7,17c11.4,41.5,21.9,83.7,13.5,126.3c-11.7,58.8-27.1,116.9-42.6,174.9c-7.3,27.3-16.9,54.3-28.1,80.3
			c-25.2,58.3-50.8,116.4-78.5,173.5c-23.4,48.3-49.4,95.3-75.4,142.3c-24.9,44.9-50.9,89.2-77.1,133.3
			c-24.8,41.7-50.5,82.8-75.9,124.1c-25.7,41.7-51.6,83.4-77.5,125c-25,40.2-50.2,80.2-75.5,120.3c-24.6,39.1-49.3,78.1-74,117
			c-25,39.5-50.2,78.9-75.2,118.4c-26.3,41.4-52.8,82.6-78.6,124.3c-22.2,35.8-45.1,71.2-64.9,108.3
			c-31.2,58.4-59.4,118.5-90.2,177.2c-18.4,34.9-28.8,71.7-32.3,110.4c-2.9,31.5,8.3,46.3,39.7,45.8c27.2-0.5,56.4-4.2,80.8-15.2
			c33.9-15.2,66.6-35.5,95.4-59c39.2-32.2,76.6-67.3,110.5-105c50.1-55.8,97.2-114.2,144-172.9c29.5-37,56.2-76.2,83.4-114.9
			c24.9-35.4,49-71.3,73-107.3c27.3-40.8,54.1-81.9,81.1-122.9c24.1-36.6,48.2-73.2,72.1-110c27-41.6,53.8-83.5,80.8-125.1
			c20.7-31.9,41.8-63.6,62.5-95.6c30.4-47,60.5-94.3,90.9-141.3c22.6-34.9,45.4-69.6,68.4-104.2c27.8-41.9,55.5-83.7,83.7-125.3
			c24.4-35.8,49.2-71.2,74.3-106.5c26.1-36.7,52.4-73.3,79.2-109.4c24.1-32.4,48.3-64.9,74.1-96c49.8-60,98.8-120.8,152-177.7
			c46.8-50.1,97-97.6,149.2-142.2c66.7-57,140.8-103.5,224.7-131.8c133.9-45.2,269.6-57.9,406.2-13.8c53.7,17.3,104.8,42.1,139.4,90
			c13.7,18.9,25.5,39.2,37.2,59.5c6,10.4,2.1,17.1-10.7,19.1c-115.3,17.6-225.7,52.2-331.1,101.5c-38.5,18-74.6,42-109.2,66.8
			c-68.3,48.9-131.1,104.4-186.5,168c-12.8,14.7-27.6,27.8-40.5,42.4c-36.7,41.7-73,83.6-109.1,125.8c-26.3,30.7-52.2,61.8-77.8,93
			c-49.8,60.7-99.4,121.6-148.9,182.6c-26.2,32.3-51.9,65-77.8,97.5c-24.8,31.2-49.7,62.3-74.5,93.5c-51.8,65-103.6,130.1-155.5,195
			c-23.8,29.8-47.5,59.6-71.8,88.9c-52.7,63.6-105.6,127-158.8,190.2c-23.4,27.8-47.5,55.1-71.9,82.1
			c-52.3,57.8-104.4,115.9-157.9,172.7c-39.9,42.4-80.9,84-123.1,124.1c-59.6,56.5-119.4,112.9-181.6,166.5
			c-46.8,40.3-96.2,77.9-146.7,113.6c-71.4,50.5-146.7,95-227.3,129.4c-104.6,44.6-213.3,66.7-327.3,50.4
			c-57.4-8.2-106.6-29.7-141.6-80.8c-27.5-40.2-34.9-83.7-35.2-129.5c-0.3-54.8,8.6-109,26.8-160.5c22.9-64.7,47.9-128.8,75.2-191.7
			c22.5-51.8,48.8-102,74.9-152.1c24.8-47.6,51-94.4,77.6-141c24-42.1,49.1-83.5,74.4-124.9c25.8-42.4,52.2-84.4,78.6-126.4
			c23.3-37.2,46.8-74.2,70.3-111.2c27.5-43.4,55.2-86.7,82.7-130c24.7-39,49.6-77.9,74.1-117c26.7-42.6,53.3-85.1,79.4-128
			c24.3-39.9,49-79.7,71.3-120.7c28-51.7,53-105,80.5-156.9c18.9-35.8,31.3-73.1,32.4-113.5c0.3-10.4-5.3-21-8.2-31.5
			C3342.4,3168.4,3340,3168.5,3337.6,3168.7z"/>
		<path d="M4348.9,4469.8c25.6-15,52.9-27.9,76.6-45.6c63.6-47.2,126.6-95.4,188.1-145.2c52.9-42.9,103.9-88.2,155-133.4
			c51.5-45.5,102.9-91.1,152.8-138.4c52-49.2,102.8-99.6,152.8-150.8c40.3-41.3,76.6-86.5,118.2-126.3
			c62.1-59.5,137.3-95.4,222.8-107.9c16.4-2.4,33.5-3.9,48.1,8.5c10,8.5,14.1,24.7,6.6,35.2c-22,31-43.4,62.6-66.8,92.6
			c-53,67.8-107,134.8-160.7,202c-23,28.9-46.4,57.5-69.5,86.3c-27.8,34.7-55.5,69.6-83.2,104.4c-23.3,29.3-46.7,58.7-70,88.1
			c-53.2,66.9-106.3,133.8-159.7,200.5c-10.7,13.3-22.7,25.7-31.9,41c11.6-6.9,23.6-13.2,34.6-20.9c43.7-30.5,87.9-60.3,130.3-92.4
			c52.9-40.1,105-81.4,156.2-123.8c52.1-43.1,102.6-88,153.7-132.3c25.3-21.9,50.4-44.2,75.6-66.3c2.2-1.9,4.1-5,6.6-5.5
			c11.9-2.4,25.9-9,35.4-5.1c14.3,5.9,9,22.3,5.5,34.3c-7.8,26.9-19.7,51.4-41.6,70.5c-47,41.2-92.8,83.7-140,124.6
			c-41,35.5-81.9,71.5-125.2,104c-85.5,64.2-172.2,126.9-259.5,188.8c-47.6,33.7-95.5,68-146.8,95.4c-46.8,25-75.3,65.2-106.1,104.2
			c-44,55.9-85.9,113.4-129,170c-24.1,31.7-48.7,63-73.2,94.5c-25.1,32.4-50.3,64.7-75.5,97c-25.6,32.8-51.2,65.6-76.8,98.3
			c-25.6,32.7-51.3,65.4-77,98c-25.4,32.2-50.8,64.3-76.2,96.5c-25.5,32.1-50.9,64.3-76.6,96.2c-50.8,62.9-101.4,126-152.8,188.4
			c-50.4,61-100.9,121.9-152.9,181.6c-49.3,56.6-98,114.1-151.6,166.6c-48.1,47.2-101.6,89.2-154.4,131.2
			c-17.2,13.6-39.2,22.6-60.4,29.4c-38.2,12.4-68.5-3.9-73.3-43.1c-4.6-37.5-5-76.7,0.9-113.8c8-51.2,19.1-102.9,37.1-151.4
			c22.4-60.4,51.3-118.6,81-175.9c20.4-39.3,45.9-76.1,71.1-112.7c25.8-37.6,53.3-74.1,81.4-110c22.4-28.6,45.5-56.8,70.4-83.3
			c52.2-55.6,104.5-111.1,159.1-164.3c44.2-43.1,90.7-84,137.8-124c54.6-46.4,110.4-91.5,166.9-135.6
			c49.2-38.4,99.8-75.1,150.5-111.5c40.4-29,81.9-56.4,122.8-84.6c4.7-3.3,9.5-6.9,13-11.4c19.7-24.8,39.5-49.6,58.5-75
			c37.5-49.9,74.6-100.1,111.8-150.2c25.1-33.8,50.4-67.6,75.4-101.5c26.4-35.7,52.7-71.5,79.2-107.2c20.9-28.3,42-56.5,62.9-84.8
			c2.5-3.4,4.4-7.3,4.7-12.6c-2.7,1.8-5.5,3.2-7.9,5.3c-37.3,32-74,64.8-112,96c-54,44.4-108.5,88.3-163.7,131.3
			c-47.4,36.9-95.8,72.7-144.3,108.1c-50.9,37.1-101.3,75.3-154.4,109.1c-41.8,26.5-86.9,48-131.6,69.5c-15.7,7.6-34.4,10.2-52,12.2
			c-29.9,3.3-49.8-15.2-48.1-45.2c0.9-16.5,5-33.2,10.1-49c17.9-54.9,48.2-103.5,79.9-151.1c40.8-61,81.9-121.8,123.9-182
			c20.8-29.8,43.5-58.2,65.6-87.1c28.8-37.6,57.6-75.2,86.6-112.7c24.1-31,48.1-62.1,72.9-92.5c50.4-61.7,100-124.2,152.5-184.2
			c46.4-52.9,91.9-107.5,148.9-149.6c64.5-47.7,133.4-88,213-105.5c10-2.2,20.8-2.6,31.1-2.1c26.2,1.3,38.9,20.6,27.9,44.6
			c-6.2,13.5-15.7,25.6-25.1,37.4c-11.1,13.9-23.8,26.5-35.3,40.1c-38.5,45.5-76.7,91.1-115,136.7c-24.9,29.6-50.3,58.8-74.5,89
			c-51.9,64.9-103.4,130.2-154.6,195.7c-26,33.2-51.2,66.9-76.2,100.8c-25.7,34.8-51.1,69.8-75.9,105.3
			c-21,30.1-40.9,60.9-61.3,91.5C4344.2,4465,4346.6,4467.4,4348.9,4469.8z M4196.7,5007.2c-1.1-1-2.3-1.9-3.5-2.9
			c-37.7,28.5-76.2,56.2-113,85.8c-50.9,40.9-101.7,81.9-150.5,125.2c-52.3,46.3-104.1,93.4-152.6,143.7
			c-53.7,55.6-104.7,114-154.2,173.4c-29.1,34.9-54,73.4-79,111.5c-25,38.1-49.3,76.8-71.4,116.6c-25.4,45.6-45.8,93.6-56.1,145.2
			c-1.4,6.8-0.9,14-1.3,21c1.6,0.9,3.1,1.8,4.7,2.6c24.9-21.2,51-41.1,74.3-63.9c24.3-23.8,46.3-49.9,68.4-75.7
			c51.8-60.5,103.2-121.4,154.6-182.4c25.3-30,50.3-60.3,75.1-90.7c51.7-63.6,103.3-127.3,154.8-191.1c25-31,49.9-62,74.3-93.5
			c42.2-54.3,83.9-109,126.1-163.4C4163.5,5047.9,4180.3,5027.7,4196.7,5007.2z"/>
		<path d="M2045.6,2786.9c-12.6-22.6-28-46.9-40.3-72.6c-20.6-43.1-41-86.5-58.2-131c-19.2-49.5-35.7-100.1-51.9-150.7
			c-21.4-66.6-41.7-133.6-61.9-200.7c-10.3-34.3-20.6-68.8-28.8-103.7c-10.1-43-18.1-86.5-27-129.7c-5.6-27.2-12.2-54.3-16.7-81.7
			c-7.5-46.7-14.7-93.6-20.1-140.6c-5.3-45.9-6.7-92.4-12.8-138.2c-19.8-148.8-21.9-298.3-17.8-448c1.3-45.8,11.4-91.4,18-137
			c8.7-60,17.6-120.1,27-180c2.2-14,6.8-27.6,14-41.3c1.1,4,2.6,8,3.4,12.1c7.7,41,13.4,82.4,23.3,122.8c20,81.4,41,162.6,74.2,240
			c25.3,58.9,49.9,118.1,76.8,176.2c22.8,49.2,47.8,97.4,73.2,145.3c25.1,47.3,50.6,94.5,78.5,140.2
			c43.3,70.9,88.6,140.5,133.4,210.4c31.4,49,64.3,97.1,95,146.6c25.5,41.2,49.8,83.2,72.7,125.9c26.7,49.8,49.7,101.6,77,151
			c36.4,65.9,60.8,136.4,81.4,208.1c17,59.2,30.3,119.6,42.6,180c8.3,40.8,13.5,82.3,17.7,123.7c14.7,144.4,23.6,288.8-1.6,433.2
			c-9.9,57-13.9,115-23.2,172.1c-6.5,40-14.8,80.1-26.8,118.7c-16.1,51.8-33.2,103.8-55.9,152.9c-26.5,57.3-64.9,107.7-111.9,150.5
			c-5.4,4.9-17.2,6.7-24.4,4.5c-4.3-1.3-8.2-13.8-7.2-20.4c18.2-118,10.2-236.1,1-354.1c-2.4-30.6-7.1-61-10.6-91.6
			c-1.7-14.6-9-20.5-24.1-24.3c-36.1-9.2-53.5-19.2-56.1-58.6c-3.3-51.4-6.8-103.4-17.7-153.6c-15.8-72.7-38.9-143.7-57.8-215.8
			c-14.8-56.2-41.1-107.6-64.6-160.2c-4.6-10.3-10.6-13.3-20.2-9.5C2094.9,2766.8,2072.8,2775.9,2045.6,2786.9z"/>
		<path d="M5980.5,3727.1c-75.5,111.1-91.8,235.1-101.5,364.1c20.4-10.4,37.9-18.9,55.1-28.1c68.9-36.8,137.3-74.5,206.5-110.6
			c77.4-40.4,155.3-79.9,233.4-118.9c75.1-37.4,150.4-74.4,226.3-109.9c101.6-47.6,203.6-94.3,306-140
			c75-33.5,150.4-66.3,226.6-96.9c128.3-51.4,256.9-102.3,386.4-150.6c99.2-37,199.5-71.1,300.2-103.8
			c177.8-57.8,357.6-109,539.7-151.9c72.6-17.1,145.7-32.2,219.6-44.8c-12.5,4.7-24.9,9.8-37.5,14.1
			c-136.6,46.4-273.2,92.5-409.7,139c-28,9.5-55.3,20.7-83.1,30.8c-98.5,35.9-197.4,70.6-295.4,107.7
			c-66.6,25.2-131.9,53.9-197.9,80.8c-113,46.1-226.3,91.4-339,138.2c-65.7,27.3-131,55.7-195.5,85.9
			c-123.6,57.8-247.2,115.9-369.5,176.5c-88,43.7-174.4,90.8-260.5,138.2c-77,42.3-153.3,86-228.7,131.1
			c-77.4,46.3-152,97.4-230.6,141.4c-32.6,18.3-39.9,38.5-33.4,71.4c7.6,38,9.5,77.5,20.3,114.5c22.9,78.7,47.9,156.8,76,233.8
			c15.5,42.5,35.9,84.1,59.8,122.5c26.7,42.9,56.2,85.3,90.8,121.8c64.1,67.7,145.2,108.7,236.6,126.3
			c60.1,11.6,121.3,17.6,179.4,25.8c-3.6,1.3-11.3,4.8-19.4,6.9c-128.8,34.4-254.6,26.6-377.3-26.7
			c-56.1-24.4-107.3-56.2-155.2-94.4c-60.2-48-113.2-102.4-155.9-166.3c-26.2-39.3-50.2-80.1-75.1-120.2
			c-37.5-60.5-58.7-127.7-79.7-195c-5.3-16.9-12.2-33.2-18.6-50.5c-1.4,0.6-3.7,1.1-5.4,2.3c-38.4,26.8-77.5,52.8-115.1,80.8
			c-55.1,41.2-110.1,82.5-163,126.3c-39.5,32.6-76.9,68-112.9,104.6c-26.1,26.5-42.1,59.5-44,100.3c-53.7,9.9-104.3,5.4-147.2-33.1
			c-41.5-37.3-48.6-73.9-16.1-119.1c25.3-35.2,57.8-65.4,87.6-97.3c10.2-11,21.7-21,33.1-30.7c82-70.1,171.7-129.5,262.8-186.8
			c44-27.7,89.8-52.7,134.5-79.4c17.1-10.2,40.6-17.8,48.2-33.1c7.5-15-1.5-38.2-2.9-57.9c-6.1-88.1,0.4-175,28.7-259.1
			c17.7-52.3,55.3-89.4,102.4-114.9c41.5-22.5,85.6-40.5,129.6-57.9C5924.6,3724.9,5951.1,3720.4,5980.5,3727.1z"/>
		<path d="M450.5,3932.2c38.5,1.5,77,3.1,115.5,4.5c114.1,3.8,228.2,4.1,342.1-4.2c67.5-4.9,135.3-8.2,202.5-15.8
			c56.3-6.4,112-17.8,167.9-27.6c123.1-21.7,246.8-41.3,369.2-66.5c150.2-30.9,301-36.7,452.7-19.2c64.5,7.4,128.4,20.5,188.5,46.4
			c16.1,6.9,30.2,18.6,48.5,30.2c-21.6,15.3-40.2,32.1-61.7,43.1c-72.4,37.3-145.9,72.9-225.3,93c-57.2,14.4-115.6,23.7-173,37.3
			c-13.8,3.3-27.8,12.6-37.8,22.9c-29.6,30.3-64.3,41.2-106.2,40.6c-113-1.5-226.1,2.7-338.9-1.2c-92.6-3.1-185.4-10.9-277.3-23.2
			c-99.2-13.2-198.3-30.4-295.9-52.5c-107.8-24.5-214-56.3-320.7-85.5c-17.5-4.8-34.1-12.6-51.1-19
			C449.7,3934.5,450.1,3933.3,450.5,3932.2z"/>
		<path d="M4678.6,2518.6c-15.7,14.5-30.7,29-46.6,42.4c-3.1,2.6-13,2.9-14.5,0.7c-12.7-18.8-30.3-28.4-52.3-30.2
			c-30.6-2.5-60.5,0.1-87.3,16.7c-10.1,6.3-20.4,13.4-27.6,22.5c-15.3,19.4-10.5,32.7,13.3,40c13.8,4.3,28.1,7,42.1,10.7
			c15.1,4,30.4,7.6,45.1,12.7c35.4,12.3,47.3,39.8,34,74.7c-12.5,32.9-36.8,55.8-64.5,75.2c-61.6,43.2-129.6,57.2-203.1,39.5
			c-10.4-2.5-20.7-8-29.4-14.3c-31.1-22.6-31.6-35.8-3.3-60.5c9.1-7.9,18.3-20,28.3-20.9c6.8-0.7,14,16.4,23.1,22.5
			c13.1,8.7,27.5,17.9,42.5,21.1c33.7,7.2,67.5,1.9,98-13.8c14.2-7.4,26.7-20.2,36.7-33.2c11.9-15.6,7.7-27.6-10.3-36.2
			c-9.8-4.7-20.8-7-31.2-10.2c-23.7-7.2-47.9-13.1-71-21.7c-22.2-8.3-30.5-24.7-28.3-47.9c2.8-29.2,21.1-49.3,40.7-68.2
			c61.7-59.4,135.4-77.3,218-60C4651.1,2484.5,4667.8,2496.8,4678.6,2518.6z"/>
		<path d="M3003.8,2833.5c-27,0-50,0.5-73-0.6c-3.6-0.2-8-7.3-10-12c-15.4-37.5-30.2-75.2-45.5-112.7c-2.2-5.4-5.9-10.1-10.7-18
			c-20.1,36.5-37.9,70.2-57,103c-30.5,52.3-20.8,41.1-82.7,39.6c2.4-5.8,3.9-11.1,6.5-15.8c17.2-31.5,34.2-63.2,51.9-94.4
			c25.9-45.6,52.3-91.1,78.6-136.4c17.4-29.9,34.6-59.8,53.1-89c3.4-5.5,12-10,18.6-10.7c14.8-1.6,29.9-0.5,50.8-0.5
			c-27.4,46.8-52.4,89.6-77.5,132.5c0.7,0.7,1.4,1.5,2.1,2.2c16.2-10,32.7-19.5,48.5-30.1c43.3-29,87.3-57.1,129.1-88.1
			c32.4-24,67.3-16.4,101.9-17.1c0.7,1.4,1.4,2.9,2.2,4.3c-3.4,3.2-6.4,6.9-10.2,9.4c-46.6,30.2-93.2,60.3-140,90.2
			c-32.6,20.8-65.2,41.7-98.2,61.7c-9.8,5.9-8.2,11.8-4.7,20.1c19.7,46.7,39.1,93.5,58.5,140.4
			C2998.5,2817.3,3000.3,2823.3,3003.8,2833.5z"/>
		<path d="M3782.6,2538.5c11.4-20.6,19.9-36.8,29.3-52.5c1.6-2.6,6.8-4.3,10.3-4.3c47.5,0.2,95.1-1,142.5,2.3
			c17.8,1.3,37.8,10,51.4,21.6c9.4,7.9,13.2,26.7,13.1,40.6c-0.4,34.5-23.5,59.7-43.9,84.1c-44.2,52.7-101.4,81.1-171.2,81.7
			c-19.7,0.2-39.5-0.5-59.1,1.1c-6.4,0.5-14.7,5.7-18.2,11.2c-19.7,31.8-38.1,64.4-57.4,96.5c-2.4,3.9-7.2,8.7-11.1,9
			c-17.1,1-34.3,0.4-55.1,0.4c4.7-10.2,7.5-17.4,11.3-24c24.3-42.5,49.3-84.6,73.1-127.4c8.7-15.6,19-23,38-22.7
			c42.2,0.8,84.7,1.1,126.8-2.5c43.1-3.6,72.8-30.5,92.1-67.5c14.2-27.2,3.4-44.8-28.1-47c-27.1-1.9-54.4-0.5-81.7-0.6
			C3825.9,2538.4,3806.9,2538.5,3782.6,2538.5z"/>
		<path d="M3291.3,2830.5c8.8-16,17.3-32.2,26.8-47.7c1.8-2.9,7.8-3.7,12-4.5c52.7-9.5,97.8-32.9,138.1-68.4
			c25-22,44-47.1,56.1-77.7c18.9-47.7-1.7-92.7-51-94.8c-3-0.1-6-2.7-11.2-5.2c10.9-17.2,20.8-33.8,31.9-49.5
			c2-2.8,9.6-2.8,14.3-2.2c70.6,9.7,105,60.7,86.2,129.4c-18.4,67-64.8,113-118.5,153.1c-37.5,28-78.3,49.5-123.4,62
			c-18.7,5.2-38.1,7.6-57.3,11.3C3294.1,2834.5,3292.7,2832.5,3291.3,2830.5z"/>
		<path d="M3471,2481.5c-10.5,19.2-18.9,35.6-28.5,51.1c-2.1,3.4-8.9,4.6-13.8,5.6c-71.1,14.2-129.6,48.4-170,109.8
			c-10.2,15.5-20.5,32.1-25.7,49.7c-11.4,38.2,6.4,67.1,44.7,78c6,1.7,12.1,3.1,21.4,5.5c-9.7,17.7-18.2,33.9-27.5,49.5
			c-1.5,2.5-6.7,4.1-10.2,4c-39.7-0.5-71.8-18.4-90-52.1c-17.5-32.4-13.9-67.9,5.8-100.5c4.5-7.4,7.1-15.9,11.5-23.3
			c61.3-101.4,153.1-157.4,268-178.4C3459.9,2479.8,3463.3,2480.8,3471,2481.5z"/>
		<path d="M4023,2825c3.5-7.2,6-12.9,9.1-18.3c42.6-75.4,85.2-150.8,128.1-226.1c17.7-31,36-61.6,54.4-92.2c2.1-3.6,6.2-8.3,9.5-8.4
			c17.7-0.8,35.4-0.4,58.3-0.4c-12.7,23.1-22.8,42.2-33.6,60.9c-13.8,23.9-28.6,47.1-42.4,71.1c-36.5,63.6-72.5,127.5-108.8,191.1
			C4082.9,2828.4,4064.5,2834,4023,2825z"/>
	</g>
</g>
</svg>
